<svg xmlns="http://www.w3.org/2000/svg" xmlns:xlink="http://www.w3.org/1999/xlink" width="500" zoomAndPan="magnify" viewBox="0 0 375 374.999991" height="500" preserveAspectRatio="xMidYMid meet" version="1.0"><defs><g/><clipPath id="e89d961b81"><path d="M 112.5 46.992188 L 262.5 46.992188 L 262.5 196.992188 L 112.5 196.992188 Z M 112.5 46.992188 " clip-rule="nonzero"/></clipPath><clipPath id="2198b17a7e"><path d="M 136.476562 46.800781 L 237.882812 46.800781 C 238.675781 46.800781 239.464844 46.839844 240.253906 46.917969 C 241.042969 46.996094 241.828125 47.109375 242.605469 47.265625 C 243.382812 47.417969 244.148438 47.613281 244.90625 47.839844 C 245.667969 48.070312 246.410156 48.335938 247.144531 48.640625 C 247.875 48.941406 248.59375 49.28125 249.289062 49.652344 C 249.988281 50.027344 250.667969 50.433594 251.328125 50.871094 C 251.988281 51.3125 252.621094 51.785156 253.234375 52.285156 C 253.847656 52.789062 254.433594 53.316406 254.996094 53.878906 C 255.554688 54.4375 256.085938 55.023438 256.589844 55.632812 C 257.09375 56.246094 257.5625 56.878906 258.003906 57.539062 C 258.445312 58.195312 258.851562 58.875 259.226562 59.574219 C 259.597656 60.269531 259.9375 60.984375 260.242188 61.714844 C 260.542969 62.445312 260.8125 63.191406 261.039062 63.949219 C 261.269531 64.707031 261.464844 65.472656 261.617188 66.25 C 261.773438 67.023438 261.890625 67.804688 261.964844 68.59375 C 262.042969 69.382812 262.082031 70.171875 262.082031 70.960938 L 262.082031 172.828125 C 262.082031 173.617188 262.042969 174.40625 261.964844 175.195312 C 261.890625 175.984375 261.773438 176.765625 261.617188 177.539062 C 261.464844 178.316406 261.269531 179.082031 261.039062 179.839844 C 260.8125 180.597656 260.542969 181.339844 260.242188 182.074219 C 259.9375 182.804688 259.597656 183.519531 259.226562 184.214844 C 258.851562 184.914062 258.445312 185.59375 258.003906 186.25 C 257.5625 186.90625 257.09375 187.542969 256.589844 188.152344 C 256.085938 188.765625 255.554688 189.351562 254.996094 189.910156 C 254.433594 190.46875 253.847656 191 253.234375 191.503906 C 252.621094 192.003906 251.988281 192.476562 251.328125 192.914062 C 250.667969 193.355469 249.988281 193.761719 249.289062 194.132812 C 248.59375 194.507812 247.875 194.84375 247.144531 195.148438 C 246.410156 195.449219 245.667969 195.71875 244.910156 195.945312 C 244.148438 196.175781 243.382812 196.367188 242.605469 196.523438 C 241.828125 196.675781 241.042969 196.792969 240.253906 196.871094 C 239.464844 196.949219 238.675781 196.988281 237.882812 196.988281 L 136.476562 196.988281 C 135.683594 196.988281 134.890625 196.949219 134.101562 196.871094 C 133.3125 196.792969 132.53125 196.675781 131.753906 196.523438 C 130.976562 196.367188 130.207031 196.175781 129.449219 195.945312 C 128.691406 195.71875 127.945312 195.453125 127.214844 195.148438 C 126.480469 194.84375 125.765625 194.507812 125.066406 194.132812 C 124.367188 193.761719 123.6875 193.355469 123.03125 192.914062 C 122.371094 192.476562 121.734375 192.003906 121.121094 191.503906 C 120.511719 191 119.921875 190.46875 119.363281 189.910156 C 118.804688 189.351562 118.269531 188.765625 117.769531 188.152344 C 117.265625 187.542969 116.792969 186.90625 116.355469 186.25 C 115.914062 185.59375 115.507812 184.914062 115.132812 184.214844 C 114.757812 183.519531 114.421875 182.804688 114.117188 182.074219 C 113.8125 181.339844 113.546875 180.597656 113.316406 179.839844 C 113.085938 179.082031 112.894531 178.316406 112.742188 177.539062 C 112.585938 176.765625 112.46875 175.984375 112.390625 175.195312 C 112.3125 174.40625 112.277344 173.617188 112.277344 172.828125 L 112.277344 70.960938 C 112.277344 70.171875 112.3125 69.382812 112.390625 68.59375 C 112.46875 67.804688 112.585938 67.023438 112.742188 66.25 C 112.894531 65.472656 113.085938 64.707031 113.316406 63.949219 C 113.546875 63.191406 113.8125 62.445312 114.117188 61.714844 C 114.421875 60.984375 114.757812 60.269531 115.132812 59.574219 C 115.507812 58.875 115.914062 58.195312 116.355469 57.539062 C 116.792969 56.878906 117.265625 56.246094 117.769531 55.632812 C 118.269531 55.023438 118.804688 54.4375 119.363281 53.878906 C 119.921875 53.316406 120.511719 52.789062 121.121094 52.285156 C 121.734375 51.785156 122.371094 51.3125 123.03125 50.871094 C 123.691406 50.433594 124.367188 50.027344 125.066406 49.652344 C 125.765625 49.28125 126.480469 48.941406 127.214844 48.640625 C 127.945312 48.335938 128.691406 48.070312 129.449219 47.839844 C 130.207031 47.613281 130.976562 47.417969 131.753906 47.265625 C 132.53125 47.109375 133.3125 46.996094 134.101562 46.917969 C 134.890625 46.839844 135.683594 46.800781 136.476562 46.800781 Z M 136.476562 46.800781 " clip-rule="nonzero"/></clipPath><linearGradient x1="255.753658" gradientTransform="matrix(1.170188, 0, 0, 1.168313, -186.403111, -450.117359)" y1="554.196323" x2="382.744512" gradientUnits="userSpaceOnUse" y2="424.986834" id="c85244f301"><stop stop-opacity="1" stop-color="rgb(2.69928%, 0.39978%, 20.799255%)" offset="0"/><stop stop-opacity="1" stop-color="rgb(2.867126%, 0.480652%, 20.849609%)" offset="0.0625"/><stop stop-opacity="1" stop-color="rgb(3.189087%, 0.637817%, 20.94574%)" offset="0.0703125"/><stop stop-opacity="1" stop-color="rgb(3.500366%, 0.788879%, 21.038818%)" offset="0.078125"/><stop stop-opacity="1" stop-color="rgb(3.81012%, 0.939941%, 21.131897%)" offset="0.0859375"/><stop stop-opacity="1" stop-color="rgb(4.121399%, 1.091003%, 21.224976%)" offset="0.09375"/><stop stop-opacity="1" stop-color="rgb(4.431152%, 1.243591%, 21.31958%)" offset="0.101562"/><stop stop-opacity="1" stop-color="rgb(4.742432%, 1.394653%, 21.412659%)" offset="0.109375"/><stop stop-opacity="1" stop-color="rgb(5.052185%, 1.545715%, 21.505737%)" offset="0.117188"/><stop stop-opacity="1" stop-color="rgb(5.363464%, 1.696777%, 21.598816%)" offset="0.125"/><stop stop-opacity="1" stop-color="rgb(5.674744%, 1.847839%, 21.691895%)" offset="0.132813"/><stop stop-opacity="1" stop-color="rgb(5.984497%, 1.998901%, 21.784973%)" offset="0.140625"/><stop stop-opacity="1" stop-color="rgb(6.295776%, 2.151489%, 21.878052%)" offset="0.148438"/><stop stop-opacity="1" stop-color="rgb(6.60553%, 2.302551%, 21.97113%)" offset="0.15625"/><stop stop-opacity="1" stop-color="rgb(6.916809%, 2.453613%, 22.065735%)" offset="0.164063"/><stop stop-opacity="1" stop-color="rgb(7.226562%, 2.604675%, 22.158813%)" offset="0.171875"/><stop stop-opacity="1" stop-color="rgb(7.537842%, 2.755737%, 22.251892%)" offset="0.179688"/><stop stop-opacity="1" stop-color="rgb(7.847595%, 2.908325%, 22.344971%)" offset="0.1875"/><stop stop-opacity="1" stop-color="rgb(8.158875%, 3.059387%, 22.438049%)" offset="0.195313"/><stop stop-opacity="1" stop-color="rgb(8.468628%, 3.210449%, 22.531128%)" offset="0.203125"/><stop stop-opacity="1" stop-color="rgb(8.779907%, 3.361511%, 22.624207%)" offset="0.210938"/><stop stop-opacity="1" stop-color="rgb(9.091187%, 3.512573%, 22.717285%)" offset="0.21875"/><stop stop-opacity="1" stop-color="rgb(9.40094%, 3.663635%, 22.810364%)" offset="0.226563"/><stop stop-opacity="1" stop-color="rgb(9.712219%, 3.816223%, 22.904968%)" offset="0.234375"/><stop stop-opacity="1" stop-color="rgb(10.021973%, 3.967285%, 22.998047%)" offset="0.242188"/><stop stop-opacity="1" stop-color="rgb(10.333252%, 4.118347%, 23.091125%)" offset="0.25"/><stop stop-opacity="1" stop-color="rgb(10.643005%, 4.269409%, 23.184204%)" offset="0.257813"/><stop stop-opacity="1" stop-color="rgb(10.954285%, 4.420471%, 23.277283%)" offset="0.265625"/><stop stop-opacity="1" stop-color="rgb(11.264038%, 4.571533%, 23.370361%)" offset="0.273438"/><stop stop-opacity="1" stop-color="rgb(11.575317%, 4.724121%, 23.46344%)" offset="0.28125"/><stop stop-opacity="1" stop-color="rgb(11.885071%, 4.875183%, 23.556519%)" offset="0.289063"/><stop stop-opacity="1" stop-color="rgb(12.19635%, 5.026245%, 23.651123%)" offset="0.296875"/><stop stop-opacity="1" stop-color="rgb(12.507629%, 5.177307%, 23.744202%)" offset="0.304688"/><stop stop-opacity="1" stop-color="rgb(12.817383%, 5.328369%, 23.83728%)" offset="0.3125"/><stop stop-opacity="1" stop-color="rgb(13.128662%, 5.480957%, 23.930359%)" offset="0.320313"/><stop stop-opacity="1" stop-color="rgb(13.438416%, 5.632019%, 24.023438%)" offset="0.328125"/><stop stop-opacity="1" stop-color="rgb(13.749695%, 5.783081%, 24.116516%)" offset="0.335938"/><stop stop-opacity="1" stop-color="rgb(14.059448%, 5.934143%, 24.209595%)" offset="0.34375"/><stop stop-opacity="1" stop-color="rgb(14.370728%, 6.085205%, 24.302673%)" offset="0.351563"/><stop stop-opacity="1" stop-color="rgb(14.680481%, 6.236267%, 24.397278%)" offset="0.359375"/><stop stop-opacity="1" stop-color="rgb(14.99176%, 6.388855%, 24.490356%)" offset="0.367188"/><stop stop-opacity="1" stop-color="rgb(15.301514%, 6.539917%, 24.583435%)" offset="0.375"/><stop stop-opacity="1" stop-color="rgb(15.612793%, 6.690979%, 24.676514%)" offset="0.382813"/><stop stop-opacity="1" stop-color="rgb(15.924072%, 6.842041%, 24.769592%)" offset="0.390625"/><stop stop-opacity="1" stop-color="rgb(16.233826%, 6.993103%, 24.862671%)" offset="0.398438"/><stop stop-opacity="1" stop-color="rgb(16.545105%, 7.145691%, 24.95575%)" offset="0.40625"/><stop stop-opacity="1" stop-color="rgb(16.854858%, 7.296753%, 25.048828%)" offset="0.414063"/><stop stop-opacity="1" stop-color="rgb(17.166138%, 7.447815%, 25.143433%)" offset="0.421875"/><stop stop-opacity="1" stop-color="rgb(17.475891%, 7.598877%, 25.236511%)" offset="0.429688"/><stop stop-opacity="1" stop-color="rgb(17.78717%, 7.749939%, 25.32959%)" offset="0.4375"/><stop stop-opacity="1" stop-color="rgb(18.096924%, 7.901001%, 25.422668%)" offset="0.445313"/><stop stop-opacity="1" stop-color="rgb(18.408203%, 8.053589%, 25.515747%)" offset="0.453125"/><stop stop-opacity="1" stop-color="rgb(18.717957%, 8.204651%, 25.608826%)" offset="0.460938"/><stop stop-opacity="1" stop-color="rgb(19.029236%, 8.355713%, 25.701904%)" offset="0.46875"/><stop stop-opacity="1" stop-color="rgb(19.340515%, 8.506775%, 25.794983%)" offset="0.476563"/><stop stop-opacity="1" stop-color="rgb(19.650269%, 8.657837%, 25.888062%)" offset="0.484375"/><stop stop-opacity="1" stop-color="rgb(19.961548%, 8.808899%, 25.982666%)" offset="0.492188"/><stop stop-opacity="1" stop-color="rgb(20.271301%, 8.961487%, 26.075745%)" offset="0.494581"/><stop stop-opacity="1" stop-color="rgb(20.426941%, 9.037781%, 26.123047%)" offset="0.5"/><stop stop-opacity="1" stop-color="rgb(20.582581%, 9.112549%, 26.168823%)" offset="0.505419"/><stop stop-opacity="1" stop-color="rgb(20.73822%, 9.188843%, 26.216125%)" offset="0.507813"/><stop stop-opacity="1" stop-color="rgb(20.892334%, 9.263611%, 26.261902%)" offset="0.515625"/><stop stop-opacity="1" stop-color="rgb(21.203613%, 9.414673%, 26.35498%)" offset="0.523438"/><stop stop-opacity="1" stop-color="rgb(21.513367%, 9.565735%, 26.448059%)" offset="0.53125"/><stop stop-opacity="1" stop-color="rgb(21.824646%, 9.718323%, 26.541138%)" offset="0.539063"/><stop stop-opacity="1" stop-color="rgb(22.134399%, 9.869385%, 26.634216%)" offset="0.546875"/><stop stop-opacity="1" stop-color="rgb(22.445679%, 10.020447%, 26.728821%)" offset="0.554688"/><stop stop-opacity="1" stop-color="rgb(22.756958%, 10.171509%, 26.821899%)" offset="0.5625"/><stop stop-opacity="1" stop-color="rgb(23.066711%, 10.322571%, 26.914978%)" offset="0.570313"/><stop stop-opacity="1" stop-color="rgb(23.377991%, 10.473633%, 27.008057%)" offset="0.578125"/><stop stop-opacity="1" stop-color="rgb(23.687744%, 10.626221%, 27.101135%)" offset="0.585938"/><stop stop-opacity="1" stop-color="rgb(23.999023%, 10.777283%, 27.194214%)" offset="0.59375"/><stop stop-opacity="1" stop-color="rgb(24.308777%, 10.928345%, 27.287292%)" offset="0.601563"/><stop stop-opacity="1" stop-color="rgb(24.620056%, 11.079407%, 27.380371%)" offset="0.609375"/><stop stop-opacity="1" stop-color="rgb(24.92981%, 11.230469%, 27.474976%)" offset="0.617188"/><stop stop-opacity="1" stop-color="rgb(25.241089%, 11.381531%, 27.568054%)" offset="0.625"/><stop stop-opacity="1" stop-color="rgb(25.550842%, 11.534119%, 27.661133%)" offset="0.632813"/><stop stop-opacity="1" stop-color="rgb(25.862122%, 11.685181%, 27.754211%)" offset="0.640625"/><stop stop-opacity="1" stop-color="rgb(26.173401%, 11.836243%, 27.84729%)" offset="0.648438"/><stop stop-opacity="1" stop-color="rgb(26.483154%, 11.987305%, 27.940369%)" offset="0.65625"/><stop stop-opacity="1" stop-color="rgb(26.794434%, 12.138367%, 28.033447%)" offset="0.664063"/><stop stop-opacity="1" stop-color="rgb(27.104187%, 12.290955%, 28.126526%)" offset="0.671875"/><stop stop-opacity="1" stop-color="rgb(27.415466%, 12.442017%, 28.22113%)" offset="0.679688"/><stop stop-opacity="1" stop-color="rgb(27.72522%, 12.593079%, 28.314209%)" offset="0.6875"/><stop stop-opacity="1" stop-color="rgb(28.036499%, 12.744141%, 28.407288%)" offset="0.695313"/><stop stop-opacity="1" stop-color="rgb(28.346252%, 12.895203%, 28.500366%)" offset="0.703125"/><stop stop-opacity="1" stop-color="rgb(28.657532%, 13.046265%, 28.593445%)" offset="0.710938"/><stop stop-opacity="1" stop-color="rgb(28.967285%, 13.198853%, 28.686523%)" offset="0.71875"/><stop stop-opacity="1" stop-color="rgb(29.278564%, 13.349915%, 28.779602%)" offset="0.726563"/><stop stop-opacity="1" stop-color="rgb(29.589844%, 13.500977%, 28.872681%)" offset="0.734375"/><stop stop-opacity="1" stop-color="rgb(29.899597%, 13.652039%, 28.967285%)" offset="0.742188"/><stop stop-opacity="1" stop-color="rgb(30.210876%, 13.803101%, 29.060364%)" offset="0.75"/><stop stop-opacity="1" stop-color="rgb(30.52063%, 13.955688%, 29.153442%)" offset="0.757813"/><stop stop-opacity="1" stop-color="rgb(30.831909%, 14.10675%, 29.246521%)" offset="0.765625"/><stop stop-opacity="1" stop-color="rgb(31.141663%, 14.257812%, 29.3396%)" offset="0.773438"/><stop stop-opacity="1" stop-color="rgb(31.452942%, 14.408875%, 29.432678%)" offset="0.78125"/><stop stop-opacity="1" stop-color="rgb(31.762695%, 14.559937%, 29.525757%)" offset="0.789063"/><stop stop-opacity="1" stop-color="rgb(32.073975%, 14.710999%, 29.618835%)" offset="0.796875"/><stop stop-opacity="1" stop-color="rgb(32.383728%, 14.863586%, 29.711914%)" offset="0.804688"/><stop stop-opacity="1" stop-color="rgb(32.695007%, 15.014648%, 29.806519%)" offset="0.8125"/><stop stop-opacity="1" stop-color="rgb(33.006287%, 15.16571%, 29.899597%)" offset="0.820313"/><stop stop-opacity="1" stop-color="rgb(33.31604%, 15.316772%, 29.992676%)" offset="0.828125"/><stop stop-opacity="1" stop-color="rgb(33.627319%, 15.467834%, 30.085754%)" offset="0.835938"/><stop stop-opacity="1" stop-color="rgb(33.937073%, 15.618896%, 30.178833%)" offset="0.84375"/><stop stop-opacity="1" stop-color="rgb(34.248352%, 15.771484%, 30.271912%)" offset="0.851563"/><stop stop-opacity="1" stop-color="rgb(34.558105%, 15.922546%, 30.36499%)" offset="0.859375"/><stop stop-opacity="1" stop-color="rgb(34.869385%, 16.073608%, 30.458069%)" offset="0.867188"/><stop stop-opacity="1" stop-color="rgb(35.179138%, 16.22467%, 30.552673%)" offset="0.875"/><stop stop-opacity="1" stop-color="rgb(35.490417%, 16.375732%, 30.645752%)" offset="0.882813"/><stop stop-opacity="1" stop-color="rgb(35.800171%, 16.52832%, 30.738831%)" offset="0.890625"/><stop stop-opacity="1" stop-color="rgb(36.11145%, 16.679382%, 30.831909%)" offset="0.898438"/><stop stop-opacity="1" stop-color="rgb(36.422729%, 16.830444%, 30.924988%)" offset="0.90625"/><stop stop-opacity="1" stop-color="rgb(36.732483%, 16.981506%, 31.018066%)" offset="0.914062"/><stop stop-opacity="1" stop-color="rgb(37.043762%, 17.132568%, 31.111145%)" offset="0.921875"/><stop stop-opacity="1" stop-color="rgb(37.353516%, 17.28363%, 31.204224%)" offset="0.929688"/><stop stop-opacity="1" stop-color="rgb(37.664795%, 17.436218%, 31.298828%)" offset="0.9375"/><stop stop-opacity="1" stop-color="rgb(37.908936%, 17.555237%, 31.37207%)" offset="1"/></linearGradient></defs><g clip-path="url(#e89d961b81)"><g clip-path="url(#2198b17a7e)"><path fill="url(#c85244f301)" d="M 112.5 46.992188 L 112.5 196.988281 L 262.082031 196.988281 L 262.082031 46.992188 Z M 112.5 46.992188 " fill-rule="nonzero"/></g></g><path fill="#ffffff" d="M 188.300781 111.445312 C 192.128906 111.445312 195.027344 110.625 197.003906 108.953125 C 198.980469 107.277344 199.96875 104.839844 199.96875 101.597656 C 199.96875 98.402344 198.980469 95.96875 197.003906 94.308594 C 195.015625 92.605469 192.128906 91.753906 188.300781 91.753906 L 174.867188 91.753906 L 174.867188 111.445312 L 188.300781 111.445312 M 189.121094 152.132812 C 193.996094 152.132812 197.65625 151.117188 200.09375 149.082031 C 202.574219 147.046875 203.816406 143.972656 203.816406 139.859375 C 203.816406 135.828125 202.597656 132.816406 200.15625 130.824219 C 197.71875 128.789062 194.042969 127.773438 189.121094 127.773438 L 174.871094 127.773438 L 174.871094 152.136719 L 189.121094 152.136719 M 211.699219 118.675781 C 216.914062 120.171875 220.949219 122.933594 223.808594 126.960938 C 226.667969 130.992188 228.09375 135.933594 228.097656 141.792969 C 228.097656 150.765625 225.027344 157.453125 218.890625 161.859375 C 212.75 166.261719 203.417969 168.460938 190.890625 168.460938 L 150.59375 168.460938 L 150.59375 75.453125 L 187.042969 75.453125 C 200.121094 75.453125 209.578125 77.402344 215.421875 81.308594 C 221.308594 85.214844 224.25 91.46875 224.25 100.066406 C 224.25 104.59375 223.179688 108.457031 221.035156 111.65625 C 218.890625 114.8125 215.769531 117.144531 211.703125 118.695312 " fill-opacity="1" fill-rule="nonzero"/><g fill="#ffffff" fill-opacity="1"><g transform="translate(66.890625, 254.340115)"><g><path d="M 2.65625 0 L 2.65625 -30.546875 L 14.890625 -30.546875 C 18.253906 -30.546875 20.785156 -29.8125 22.484375 -28.34375 C 24.179688 -26.875 25.03125 -25 25.03125 -22.71875 C 25.03125 -20.914062 24.503906 -19.457031 23.453125 -18.34375 C 22.410156 -17.238281 21.097656 -16.507812 19.515625 -16.15625 L 19.515625 -15.859375 C 20.671875 -15.804688 21.757812 -15.472656 22.78125 -14.859375 C 23.800781 -14.253906 24.628906 -13.410156 25.265625 -12.328125 C 25.898438 -11.242188 26.21875 -9.945312 26.21875 -8.4375 C 26.21875 -6.820312 25.816406 -5.375 25.015625 -4.09375 C 24.210938 -2.820312 23.03125 -1.820312 21.46875 -1.09375 C 19.914062 -0.363281 17.992188 0 15.703125 0 Z M 9.109375 -5.28125 L 14.375 -5.28125 C 16.1875 -5.28125 17.5 -5.628906 18.3125 -6.328125 C 19.132812 -7.023438 19.546875 -7.941406 19.546875 -9.078125 C 19.546875 -10.347656 19.097656 -11.382812 18.203125 -12.1875 C 17.304688 -12.988281 16.082031 -13.390625 14.53125 -13.390625 L 9.109375 -13.390625 Z M 9.109375 -17.765625 L 13.90625 -17.765625 C 15.226562 -17.765625 16.328125 -18.109375 17.203125 -18.796875 C 18.078125 -19.492188 18.515625 -20.441406 18.515625 -21.640625 C 18.515625 -22.742188 18.125 -23.632812 17.34375 -24.3125 C 16.5625 -24.988281 15.453125 -25.328125 14.015625 -25.328125 L 9.109375 -25.328125 Z M 9.109375 -17.765625 "/></g></g></g><g fill="#ffffff" fill-opacity="1"><g transform="translate(94.639216, 254.340115)"><g><path d="M 12.890625 0.453125 C 10.566406 0.453125 8.5625 -0.0390625 6.875 -1.03125 C 5.195312 -2.019531 3.898438 -3.398438 2.984375 -5.171875 C 2.066406 -6.953125 1.609375 -9.015625 1.609375 -11.359375 C 1.609375 -13.734375 2.066406 -15.804688 2.984375 -17.578125 C 3.898438 -19.347656 5.195312 -20.726562 6.875 -21.71875 C 8.5625 -22.707031 10.566406 -23.203125 12.890625 -23.203125 C 15.203125 -23.203125 17.203125 -22.707031 18.890625 -21.71875 C 20.578125 -20.726562 21.875 -19.347656 22.78125 -17.578125 C 23.695312 -15.804688 24.15625 -13.734375 24.15625 -11.359375 C 24.15625 -9.015625 23.695312 -6.953125 22.78125 -5.171875 C 21.875 -3.398438 20.578125 -2.019531 18.890625 -1.03125 C 17.203125 -0.0390625 15.203125 0.453125 12.890625 0.453125 Z M 12.921875 -4.46875 C 14.484375 -4.46875 15.671875 -5.125 16.484375 -6.4375 C 17.296875 -7.75 17.703125 -9.40625 17.703125 -11.40625 C 17.703125 -13.40625 17.296875 -15.0625 16.484375 -16.375 C 15.671875 -17.695312 14.484375 -18.359375 12.921875 -18.359375 C 11.316406 -18.359375 10.101562 -17.695312 9.28125 -16.375 C 8.46875 -15.0625 8.0625 -13.40625 8.0625 -11.40625 C 8.0625 -9.40625 8.46875 -7.75 9.28125 -6.4375 C 10.101562 -5.125 11.316406 -4.46875 12.921875 -4.46875 Z M 12.921875 -4.46875 "/></g></g></g><g fill="#ffffff" fill-opacity="1"><g transform="translate(120.404694, 254.340115)"><g><path d="M 12.890625 0.453125 C 10.566406 0.453125 8.5625 -0.0390625 6.875 -1.03125 C 5.195312 -2.019531 3.898438 -3.398438 2.984375 -5.171875 C 2.066406 -6.953125 1.609375 -9.015625 1.609375 -11.359375 C 1.609375 -13.734375 2.066406 -15.804688 2.984375 -17.578125 C 3.898438 -19.347656 5.195312 -20.726562 6.875 -21.71875 C 8.5625 -22.707031 10.566406 -23.203125 12.890625 -23.203125 C 15.203125 -23.203125 17.203125 -22.707031 18.890625 -21.71875 C 20.578125 -20.726562 21.875 -19.347656 22.78125 -17.578125 C 23.695312 -15.804688 24.15625 -13.734375 24.15625 -11.359375 C 24.15625 -9.015625 23.695312 -6.953125 22.78125 -5.171875 C 21.875 -3.398438 20.578125 -2.019531 18.890625 -1.03125 C 17.203125 -0.0390625 15.203125 0.453125 12.890625 0.453125 Z M 12.921875 -4.46875 C 14.484375 -4.46875 15.671875 -5.125 16.484375 -6.4375 C 17.296875 -7.75 17.703125 -9.40625 17.703125 -11.40625 C 17.703125 -13.40625 17.296875 -15.0625 16.484375 -16.375 C 15.671875 -17.695312 14.484375 -18.359375 12.921875 -18.359375 C 11.316406 -18.359375 10.101562 -17.695312 9.28125 -16.375 C 8.46875 -15.0625 8.0625 -13.40625 8.0625 -11.40625 C 8.0625 -9.40625 8.46875 -7.75 9.28125 -6.4375 C 10.101562 -5.125 11.316406 -4.46875 12.921875 -4.46875 Z M 12.921875 -4.46875 "/></g></g></g><g fill="#ffffff" fill-opacity="1"><g transform="translate(146.170172, 254.340115)"><g><path d="M 14.71875 -22.90625 L 14.71875 -18.140625 L 10.40625 -18.140625 L 10.40625 -7.046875 C 10.40625 -6.171875 10.601562 -5.578125 11 -5.265625 C 11.40625 -4.953125 11.925781 -4.796875 12.5625 -4.796875 C 12.851562 -4.796875 13.148438 -4.820312 13.453125 -4.875 C 13.753906 -4.9375 13.984375 -4.984375 14.140625 -5.015625 L 15.140625 -0.28125 C 14.816406 -0.1875 14.367188 -0.0703125 13.796875 0.0625 C 13.222656 0.195312 12.519531 0.28125 11.6875 0.3125 C 9.382812 0.414062 7.535156 -0.078125 6.140625 -1.171875 C 4.742188 -2.273438 4.050781 -3.953125 4.0625 -6.203125 L 4.0625 -18.140625 L 0.921875 -18.140625 L 0.921875 -22.90625 L 4.0625 -22.90625 L 4.0625 -28.390625 L 10.40625 -28.390625 L 10.40625 -22.90625 Z M 14.71875 -22.90625 "/></g></g></g><g fill="#ffffff" fill-opacity="1"><g transform="translate(162.482338, 254.340115)"><g><path d="M 21.59375 -16.375 L 15.78125 -16.015625 C 15.625 -16.753906 15.222656 -17.382812 14.578125 -17.90625 C 13.929688 -18.4375 13.054688 -18.703125 11.953125 -18.703125 C 10.960938 -18.703125 10.125 -18.492188 9.4375 -18.078125 C 8.757812 -17.671875 8.425781 -17.125 8.4375 -16.4375 C 8.425781 -15.882812 8.640625 -15.421875 9.078125 -15.046875 C 9.523438 -14.671875 10.28125 -14.367188 11.34375 -14.140625 L 15.5 -13.296875 C 19.90625 -12.398438 22.113281 -10.332031 22.125 -7.09375 C 22.125 -5.59375 21.679688 -4.273438 20.796875 -3.140625 C 19.921875 -2.015625 18.71875 -1.132812 17.1875 -0.5 C 15.65625 0.132812 13.898438 0.453125 11.921875 0.453125 C 8.890625 0.453125 6.472656 -0.179688 4.671875 -1.453125 C 2.867188 -2.722656 1.816406 -4.453125 1.515625 -6.640625 L 7.765625 -6.96875 C 7.960938 -6.03125 8.421875 -5.320312 9.140625 -4.84375 C 9.867188 -4.363281 10.800781 -4.125 11.9375 -4.125 C 13.050781 -4.125 13.945312 -4.34375 14.625 -4.78125 C 15.300781 -5.21875 15.644531 -5.773438 15.65625 -6.453125 C 15.625 -7.585938 14.644531 -8.347656 12.71875 -8.734375 L 8.75 -9.53125 C 4.320312 -10.414062 2.113281 -12.597656 2.125 -16.078125 C 2.125 -18.285156 3.007812 -20.023438 4.78125 -21.296875 C 6.550781 -22.566406 8.90625 -23.203125 11.84375 -23.203125 C 14.738281 -23.203125 17.015625 -22.585938 18.671875 -21.359375 C 20.335938 -20.140625 21.3125 -18.476562 21.59375 -16.375 Z M 21.59375 -16.375 "/></g></g></g><g fill="#ffffff" fill-opacity="1"><g transform="translate(186.070876, 254.340115)"><g><path d="M 14.71875 -22.90625 L 14.71875 -18.140625 L 10.40625 -18.140625 L 10.40625 -7.046875 C 10.40625 -6.171875 10.601562 -5.578125 11 -5.265625 C 11.40625 -4.953125 11.925781 -4.796875 12.5625 -4.796875 C 12.851562 -4.796875 13.148438 -4.820312 13.453125 -4.875 C 13.753906 -4.9375 13.984375 -4.984375 14.140625 -5.015625 L 15.140625 -0.28125 C 14.816406 -0.1875 14.367188 -0.0703125 13.796875 0.0625 C 13.222656 0.195312 12.519531 0.28125 11.6875 0.3125 C 9.382812 0.414062 7.535156 -0.078125 6.140625 -1.171875 C 4.742188 -2.273438 4.050781 -3.953125 4.0625 -6.203125 L 4.0625 -18.140625 L 0.921875 -18.140625 L 0.921875 -22.90625 L 4.0625 -22.90625 L 4.0625 -28.390625 L 10.40625 -28.390625 L 10.40625 -22.90625 Z M 14.71875 -22.90625 "/></g></g></g><g fill="#ffffff" fill-opacity="1"><g transform="translate(202.383042, 254.340115)"><g><path d="M 2.53125 0 L 2.53125 -22.90625 L 8.6875 -22.90625 L 8.6875 -18.90625 L 8.9375 -18.90625 C 9.351562 -20.332031 10.050781 -21.410156 11.03125 -22.140625 C 12.007812 -22.867188 13.144531 -23.234375 14.4375 -23.234375 C 15.050781 -23.234375 15.617188 -23.160156 16.140625 -23.015625 C 16.671875 -22.867188 17.144531 -22.664062 17.5625 -22.40625 L 15.65625 -17.15625 C 15.363281 -17.300781 15.039062 -17.425781 14.6875 -17.53125 C 14.332031 -17.632812 13.9375 -17.6875 13.5 -17.6875 C 12.21875 -17.6875 11.128906 -17.25 10.234375 -16.375 C 9.347656 -15.5 8.898438 -14.359375 8.890625 -12.953125 L 8.890625 0 Z M 2.53125 0 "/></g></g></g><g fill="#ffffff" fill-opacity="1"><g transform="translate(220.380112, 254.340115)"><g><path d="M 9.0625 0.4375 C 6.875 0.4375 5.0625 -0.132812 3.625 -1.28125 C 2.1875 -2.425781 1.46875 -4.128906 1.46875 -6.390625 C 1.46875 -8.109375 1.867188 -9.453125 2.671875 -10.421875 C 3.472656 -11.398438 4.523438 -12.113281 5.828125 -12.5625 C 7.140625 -13.019531 8.550781 -13.316406 10.0625 -13.453125 C 12.050781 -13.648438 13.472656 -13.859375 14.328125 -14.078125 C 15.179688 -14.296875 15.609375 -14.773438 15.609375 -15.515625 L 15.609375 -15.59375 C 15.609375 -16.539062 15.3125 -17.269531 14.71875 -17.78125 C 14.132812 -18.300781 13.300781 -18.5625 12.21875 -18.5625 C 11.070312 -18.5625 10.160156 -18.3125 9.484375 -17.8125 C 8.804688 -17.320312 8.359375 -16.691406 8.140625 -15.921875 L 2.265625 -16.40625 C 2.703125 -18.488281 3.785156 -20.140625 5.515625 -21.359375 C 7.253906 -22.585938 9.5 -23.203125 12.25 -23.203125 C 13.945312 -23.203125 15.535156 -22.929688 17.015625 -22.390625 C 18.492188 -21.859375 19.6875 -21.023438 20.59375 -19.890625 C 21.507812 -18.753906 21.96875 -17.273438 21.96875 -15.453125 L 21.96875 0 L 15.9375 0 L 15.9375 -3.171875 L 15.765625 -3.171875 C 15.203125 -2.109375 14.367188 -1.238281 13.265625 -0.5625 C 12.160156 0.101562 10.757812 0.4375 9.0625 0.4375 Z M 10.890625 -3.953125 C 12.273438 -3.953125 13.414062 -4.359375 14.3125 -5.171875 C 15.207031 -5.984375 15.65625 -6.988281 15.65625 -8.1875 L 15.65625 -10.625 C 15.40625 -10.445312 15.019531 -10.296875 14.5 -10.171875 C 13.976562 -10.046875 13.421875 -9.929688 12.828125 -9.828125 C 12.242188 -9.734375 11.71875 -9.65625 11.25 -9.59375 C 10.132812 -9.425781 9.234375 -9.109375 8.546875 -8.640625 C 7.867188 -8.179688 7.53125 -7.503906 7.53125 -6.609375 C 7.53125 -5.734375 7.84375 -5.070312 8.46875 -4.625 C 9.101562 -4.175781 9.910156 -3.953125 10.890625 -3.953125 Z M 10.890625 -3.953125 "/></g></g></g><g fill="#ffffff" fill-opacity="1"><g transform="translate(244.743998, 254.340115)"><g><path d="M 2.53125 8.59375 L 2.53125 -22.90625 L 8.796875 -22.90625 L 8.796875 -19.0625 L 9.078125 -19.0625 C 9.367188 -19.6875 9.773438 -20.316406 10.296875 -20.953125 C 10.828125 -21.585938 11.523438 -22.117188 12.390625 -22.546875 C 13.253906 -22.984375 14.320312 -23.203125 15.59375 -23.203125 C 17.28125 -23.203125 18.820312 -22.765625 20.21875 -21.890625 C 21.625 -21.023438 22.75 -19.71875 23.59375 -17.96875 C 24.445312 -16.226562 24.875 -14.046875 24.875 -11.421875 C 24.875 -8.867188 24.460938 -6.710938 23.640625 -4.953125 C 22.816406 -3.203125 21.703125 -1.875 20.296875 -0.96875 C 18.898438 -0.0703125 17.328125 0.375 15.578125 0.375 C 14.347656 0.375 13.300781 0.171875 12.4375 -0.234375 C 11.582031 -0.640625 10.882812 -1.15625 10.34375 -1.78125 C 9.800781 -2.40625 9.378906 -3.035156 9.078125 -3.671875 L 8.890625 -3.671875 L 8.890625 8.59375 Z M 8.75 -11.453125 C 8.75 -9.410156 9.171875 -7.769531 10.015625 -6.53125 C 10.859375 -5.300781 12.046875 -4.6875 13.578125 -4.6875 C 15.128906 -4.6875 16.316406 -5.3125 17.140625 -6.5625 C 17.972656 -7.820312 18.390625 -9.453125 18.390625 -11.453125 C 18.390625 -13.441406 17.976562 -15.054688 17.15625 -16.296875 C 16.332031 -17.535156 15.140625 -18.15625 13.578125 -18.15625 C 12.035156 -18.15625 10.84375 -17.550781 10 -16.34375 C 9.164062 -15.132812 8.75 -13.503906 8.75 -11.453125 Z M 8.75 -11.453125 "/></g></g></g><g fill="#ffffff" fill-opacity="1"><g transform="translate(271.299737, 254.340115)"><g/></g></g><g fill="#ffffff" fill-opacity="1"><g transform="translate(281.036346, 254.340115)"><g><path d="M 13.625 0.421875 C 11.519531 0.421875 9.640625 0.0351562 7.984375 -0.734375 C 6.335938 -1.515625 5.035156 -2.585938 4.078125 -3.953125 C 3.117188 -5.316406 2.617188 -6.878906 2.578125 -8.640625 L 8.84375 -8.640625 C 8.925781 -7.453125 9.421875 -6.488281 10.328125 -5.75 C 11.242188 -5.019531 12.34375 -4.65625 13.625 -4.65625 C 15.144531 -4.65625 16.390625 -5.148438 17.359375 -6.140625 C 18.335938 -7.140625 18.828125 -8.429688 18.828125 -10.015625 C 18.828125 -11.617188 18.332031 -12.925781 17.34375 -13.9375 C 16.351562 -14.945312 15.085938 -15.457031 13.546875 -15.46875 C 12.640625 -15.46875 11.765625 -15.28125 10.921875 -14.90625 C 10.085938 -14.539062 9.441406 -14.039062 8.984375 -13.40625 L 3.234375 -14.4375 L 4.6875 -30.546875 L 23.359375 -30.546875 L 23.359375 -25.265625 L 10 -25.265625 L 9.21875 -17.609375 L 9.390625 -17.609375 C 9.929688 -18.367188 10.742188 -18.992188 11.828125 -19.484375 C 12.910156 -19.984375 14.125 -20.234375 15.46875 -20.234375 C 17.300781 -20.234375 18.9375 -19.800781 20.375 -18.9375 C 21.820312 -18.070312 22.960938 -16.882812 23.796875 -15.375 C 24.640625 -13.863281 25.054688 -12.132812 25.046875 -10.1875 C 25.054688 -8.125 24.578125 -6.296875 23.609375 -4.703125 C 22.648438 -3.109375 21.3125 -1.851562 19.59375 -0.9375 C 17.882812 -0.03125 15.894531 0.421875 13.625 0.421875 Z M 13.625 0.421875 "/></g></g></g></svg>