<svg xmlns="http://www.w3.org/2000/svg" xmlns:xlink="http://www.w3.org/1999/xlink" width="500" zoomAndPan="magnify" viewBox="0 0 375 374.999991" height="500" preserveAspectRatio="xMidYMid meet" version="1.0"><defs><clipPath id="99b8fd1984"><path d="M 108.109375 119 L 266.359375 119 L 266.359375 299.039062 L 108.109375 299.039062 Z M 108.109375 119 " clip-rule="nonzero"/></clipPath><clipPath id="e9615fdeb4"><path d="M 145 75.539062 L 170 75.539062 L 170 106 L 145 106 Z M 145 75.539062 " clip-rule="nonzero"/></clipPath><clipPath id="d520bf1452"><path d="M 174 75.539062 L 199 75.539062 L 199 107 L 174 107 Z M 174 75.539062 " clip-rule="nonzero"/></clipPath><clipPath id="8b1cdf19e8"><path d="M 202 75.539062 L 227 75.539062 L 227 107 L 202 107 Z M 202 75.539062 " clip-rule="nonzero"/></clipPath></defs><g clip-path="url(#99b8fd1984)"><path fill="#264de4" d="M 187.164062 299.03125 L 122.597656 281.082031 L 108.210938 119.460938 L 266.3125 119.457031 L 251.914062 281.054688 L 187.167969 299.027344 Z M 187.164062 299.03125 " fill-opacity="1" fill-rule="nonzero"/></g><path fill="#2965f1" d="M 239.585938 270.765625 L 251.894531 132.675781 L 187.265625 132.671875 L 187.265625 285.289062 Z M 239.585938 270.765625 " fill-opacity="1" fill-rule="nonzero"/><path fill="#ebebeb" d="M 141.195312 192.617188 L 142.96875 212.4375 L 187.265625 212.4375 L 187.265625 192.617188 Z M 141.195312 192.617188 " fill-opacity="1" fill-rule="nonzero"/><path fill="#ebebeb" d="M 137.632812 152.492188 L 139.429688 172.316406 L 187.265625 172.316406 L 187.265625 152.492188 Z M 137.632812 152.492188 " fill-opacity="1" fill-rule="nonzero"/><path fill="#ebebeb" d="M 187.265625 244.097656 L 187.175781 244.121094 L 165.132812 238.15625 L 163.722656 222.347656 L 143.855469 222.347656 L 146.628906 253.472656 L 187.171875 264.746094 L 187.265625 264.722656 Z M 187.265625 244.097656 " fill-opacity="1" fill-rule="nonzero"/><g clip-path="url(#e9615fdeb4)"><path fill="#ffffff" d="M 145.417969 75.539062 L 169.394531 75.539062 L 169.394531 85.578125 L 155.445312 85.578125 L 155.445312 95.617188 L 169.394531 95.617188 L 169.394531 105.65625 L 145.417969 105.65625 Z M 145.417969 75.539062 " fill-opacity="1" fill-rule="nonzero"/></g><g clip-path="url(#d520bf1452)"><path fill="#ffffff" d="M 174.1875 75.539062 L 198.160156 75.539062 L 198.160156 84.265625 L 184.214844 84.265625 L 184.214844 86.011719 L 198.160156 86.011719 L 198.160156 106.09375 L 174.1875 106.09375 L 174.1875 96.925781 L 188.136719 96.925781 L 188.136719 95.179688 L 174.1875 95.179688 Z M 174.1875 75.539062 " fill-opacity="1" fill-rule="nonzero"/></g><g clip-path="url(#8b1cdf19e8)"><path fill="#ffffff" d="M 202.957031 75.539062 L 226.929688 75.539062 L 226.929688 84.265625 L 212.976562 84.265625 L 212.976562 86.011719 L 226.929688 86.011719 L 226.929688 106.09375 L 202.957031 106.09375 L 202.957031 96.925781 L 216.902344 96.925781 L 216.902344 95.179688 L 202.957031 95.179688 Z M 202.957031 75.539062 " fill-opacity="1" fill-rule="nonzero"/></g><path fill="#ffffff" d="M 233.207031 192.617188 L 236.777344 152.492188 L 187.195312 152.492188 L 187.195312 172.316406 L 215.085938 172.316406 L 213.289062 192.617188 L 187.195312 192.617188 L 187.195312 212.4375 L 211.570312 212.4375 L 209.273438 238.144531 L 187.195312 244.113281 L 187.195312 264.734375 L 227.773438 253.472656 L 228.070312 250.121094 L 232.722656 197.9375 Z M 233.207031 192.617188 " fill-opacity="1" fill-rule="nonzero"/></svg>