<svg xmlns="http://www.w3.org/2000/svg" xmlns:xlink="http://www.w3.org/1999/xlink" width="40" zoomAndPan="magnify" viewBox="0 0 30 30.000001" height="40" preserveAspectRatio="xMidYMid meet" version="1.0"><defs><clipPath id="45dd912cb3"><path d="M 9.925781 9 L 20.089844 9 L 20.089844 20.324219 L 9.925781 20.324219 Z M 9.925781 9 " clip-rule="nonzero"/></clipPath><clipPath id="0aa5292d1f"><path d="M 9.925781 8.710938 L 19 8.710938 L 19 20 L 9.925781 20 Z M 9.925781 8.710938 " clip-rule="nonzero"/></clipPath><clipPath id="a3bea89166"><path d="M 11 8.710938 L 19 8.710938 L 19 19 L 11 19 Z M 11 8.710938 " clip-rule="nonzero"/></clipPath></defs><g clip-path="url(#45dd912cb3)"><path fill="#ff66c4" d="M 20.089844 17.546875 C 20.089844 18.09375 19.964844 18.574219 19.71875 18.992188 C 19.472656 19.410156 19.117188 19.734375 18.648438 19.964844 C 18.179688 20.199219 17.601562 20.316406 16.921875 20.316406 L 13.148438 20.316406 L 13.148438 20.3125 L 13.128906 20.3125 L 13.128906 20.308594 L 13.113281 20.308594 L 13.113281 20.304688 L 13.097656 20.304688 L 13.097656 20.300781 L 13.082031 20.300781 L 13.082031 20.292969 L 13.066406 20.292969 L 13.066406 20.289062 L 13.050781 20.289062 L 13.050781 20.285156 L 13.035156 20.285156 L 13.035156 20.28125 L 13.019531 20.28125 L 13.019531 20.277344 L 13.003906 20.277344 L 13.003906 20.273438 L 12.988281 20.273438 L 12.988281 20.265625 L 12.96875 20.265625 L 12.96875 20.261719 L 12.953125 20.261719 L 12.953125 20.253906 L 12.9375 20.253906 L 12.9375 20.25 L 12.921875 20.25 L 12.921875 20.242188 L 12.90625 20.242188 L 12.90625 20.238281 L 12.890625 20.238281 L 12.890625 20.234375 L 12.871094 20.234375 L 12.871094 20.230469 L 12.855469 20.230469 L 12.855469 20.226562 L 12.839844 20.226562 L 12.839844 20.222656 L 12.824219 20.222656 L 12.824219 20.214844 L 12.808594 20.214844 L 12.808594 20.210938 L 12.792969 20.210938 L 12.792969 20.207031 L 12.78125 20.207031 L 12.78125 20.203125 L 12.765625 20.203125 L 12.765625 20.199219 L 12.746094 20.199219 L 12.746094 20.191406 L 12.730469 20.191406 L 12.730469 20.183594 L 12.714844 20.183594 L 12.714844 20.179688 L 12.699219 20.179688 L 12.699219 20.175781 L 12.683594 20.175781 L 12.683594 20.167969 L 12.667969 20.167969 L 12.667969 20.164062 L 12.648438 20.164062 L 12.648438 20.160156 L 12.632812 20.160156 L 12.632812 20.15625 L 12.617188 20.15625 L 12.617188 20.152344 L 12.601562 20.152344 L 12.601562 20.148438 L 12.585938 20.148438 L 12.585938 20.140625 L 12.570312 20.140625 L 12.570312 20.136719 L 12.554688 20.136719 L 12.554688 20.132812 L 12.539062 20.132812 L 12.539062 20.128906 L 12.523438 20.128906 L 12.523438 20.125 L 12.507812 20.125 L 12.507812 20.113281 L 12.492188 20.113281 L 12.492188 20.109375 L 12.476562 20.109375 L 12.476562 20.105469 L 12.460938 20.105469 L 12.460938 20.101562 L 12.445312 20.101562 L 12.445312 20.097656 L 12.425781 20.097656 L 12.425781 20.089844 L 12.410156 20.089844 L 12.410156 20.085938 L 12.394531 20.085938 L 12.394531 20.082031 L 12.378906 20.082031 L 12.378906 20.078125 L 12.363281 20.078125 L 12.363281 20.074219 L 12.347656 20.074219 L 12.347656 20.066406 L 12.328125 20.066406 L 12.328125 20.0625 L 12.316406 20.0625 L 12.316406 20.058594 L 12.300781 20.058594 L 12.300781 20.054688 L 12.285156 20.054688 L 12.285156 20.042969 L 12.265625 20.042969 L 12.265625 20.039062 L 12.25 20.039062 L 12.25 20.035156 L 12.234375 20.035156 L 12.234375 20.03125 L 12.21875 20.03125 L 12.21875 20.027344 L 12.203125 20.027344 L 12.203125 20.023438 L 12.1875 20.023438 L 12.1875 20.015625 L 12.171875 20.015625 L 12.171875 20.011719 L 12.152344 20.011719 L 12.152344 20.007812 L 12.136719 20.007812 L 12.136719 20.003906 L 12.121094 20.003906 L 12.121094 20 L 12.105469 20 L 12.105469 19.992188 L 12.089844 19.992188 L 12.089844 19.988281 L 12.074219 19.988281 L 12.074219 19.984375 L 12.0625 19.984375 L 12.0625 19.976562 L 12.042969 19.976562 L 12.042969 19.972656 L 12.027344 19.972656 L 12.027344 19.964844 L 12.011719 19.964844 L 12.011719 19.960938 L 11.996094 19.960938 L 11.996094 19.957031 L 11.980469 19.957031 L 11.980469 19.953125 L 11.964844 19.953125 L 11.964844 19.949219 L 11.949219 19.949219 L 11.949219 19.941406 L 11.929688 19.941406 L 11.929688 19.9375 L 11.914062 19.9375 L 11.914062 19.929688 L 11.898438 19.929688 L 11.898438 19.925781 L 11.882812 19.925781 L 11.882812 19.917969 L 11.867188 19.917969 L 11.867188 19.914062 L 11.851562 19.914062 L 11.851562 19.910156 L 11.835938 19.910156 L 11.835938 19.90625 L 11.820312 19.90625 L 11.820312 19.902344 L 11.804688 19.902344 L 11.804688 19.898438 L 11.789062 19.898438 L 11.789062 19.890625 L 11.773438 19.890625 L 11.773438 19.886719 L 11.757812 19.886719 L 11.757812 19.882812 L 11.742188 19.882812 L 11.742188 19.878906 L 11.722656 19.878906 L 11.722656 19.875 L 11.707031 19.875 L 11.707031 19.867188 L 11.691406 19.867188 L 11.691406 19.859375 L 11.675781 19.859375 L 11.675781 19.855469 L 11.660156 19.855469 L 11.660156 19.851562 L 11.644531 19.851562 L 11.644531 19.847656 L 11.628906 19.847656 L 11.628906 19.839844 L 11.609375 19.839844 L 11.609375 19.835938 L 11.597656 19.835938 L 11.597656 19.832031 L 11.582031 19.832031 L 11.582031 19.828125 L 11.566406 19.828125 L 11.566406 19.824219 L 11.550781 19.824219 L 11.550781 19.816406 L 11.535156 19.816406 L 11.535156 19.8125 L 11.519531 19.8125 L 11.519531 19.808594 L 11.5 19.808594 L 11.5 19.804688 L 11.484375 19.804688 L 11.484375 19.800781 L 11.46875 19.800781 L 11.46875 19.789062 L 11.453125 19.789062 L 11.453125 19.785156 L 11.4375 19.785156 L 11.4375 19.78125 L 11.421875 19.78125 L 11.421875 19.777344 L 11.40625 19.777344 L 11.40625 19.773438 L 11.386719 19.773438 L 11.386719 19.765625 L 11.371094 19.765625 L 11.371094 19.761719 L 11.355469 19.761719 L 11.355469 19.757812 L 11.339844 19.757812 L 11.339844 19.753906 L 11.324219 19.753906 L 11.324219 19.75 L 11.308594 19.75 L 11.308594 19.742188 L 11.292969 19.742188 L 11.292969 19.738281 L 11.277344 19.738281 L 11.277344 19.734375 L 11.261719 19.734375 L 11.261719 19.730469 L 11.246094 19.730469 L 11.246094 19.722656 L 11.226562 19.722656 L 11.226562 19.714844 L 11.210938 19.714844 L 11.210938 19.710938 L 11.195312 19.710938 L 11.195312 19.707031 L 11.179688 19.707031 L 11.179688 19.703125 L 11.164062 19.703125 L 11.164062 19.699219 L 11.148438 19.699219 L 11.148438 19.691406 L 11.132812 19.691406 L 11.132812 19.6875 L 11.117188 19.6875 L 11.117188 19.683594 L 11.101562 19.683594 L 11.101562 19.679688 L 11.085938 19.679688 L 11.085938 19.675781 L 11.070312 19.675781 L 11.070312 19.671875 L 11.054688 19.671875 L 11.054688 19.664062 L 11.039062 19.664062 L 11.039062 19.660156 L 11.023438 19.660156 L 11.023438 19.652344 L 11.003906 19.652344 L 11.003906 19.648438 L 10.988281 19.648438 L 10.988281 19.640625 L 10.972656 19.640625 L 10.972656 19.636719 L 10.957031 19.636719 L 10.957031 19.632812 L 10.941406 19.632812 L 10.941406 19.628906 L 10.925781 19.628906 L 10.925781 19.625 L 10.90625 19.625 L 10.90625 19.617188 L 10.890625 19.617188 L 10.890625 19.613281 L 10.878906 19.613281 L 10.878906 19.609375 L 10.863281 19.609375 L 10.863281 19.605469 L 10.84375 19.605469 L 10.84375 19.601562 L 10.832031 19.601562 L 10.832031 19.597656 L 10.816406 19.597656 L 10.816406 19.589844 L 10.800781 19.589844 L 10.800781 19.582031 L 10.78125 19.582031 L 10.78125 19.578125 L 10.765625 19.578125 L 10.765625 19.574219 L 10.75 19.574219 L 10.75 19.566406 L 10.734375 19.566406 L 10.734375 19.5625 L 10.71875 19.5625 L 10.71875 19.558594 L 10.703125 19.558594 L 10.703125 19.554688 L 10.683594 19.554688 L 10.683594 19.550781 L 10.667969 19.550781 L 10.667969 19.546875 L 10.652344 19.546875 L 10.652344 19.539062 L 10.636719 19.539062 L 10.636719 19.535156 L 10.621094 19.535156 L 10.621094 19.53125 L 10.605469 19.53125 L 10.605469 19.527344 L 10.589844 19.527344 L 10.589844 19.523438 L 10.574219 19.523438 L 10.574219 19.511719 L 10.558594 19.511719 L 10.558594 19.507812 L 10.542969 19.507812 L 10.542969 19.503906 L 10.523438 19.503906 L 10.523438 19.5 L 10.507812 19.5 L 10.507812 19.492188 L 10.492188 19.492188 L 10.492188 19.488281 L 10.476562 19.488281 L 10.476562 19.484375 L 10.460938 19.484375 L 10.460938 19.480469 L 10.445312 19.480469 L 10.445312 19.476562 L 10.425781 19.476562 L 10.425781 19.472656 L 10.414062 19.472656 L 10.414062 19.464844 L 10.398438 19.464844 L 10.398438 19.460938 L 10.382812 19.460938 L 10.382812 19.457031 L 10.367188 19.457031 L 10.367188 19.453125 L 10.351562 19.453125 L 10.351562 19.441406 L 10.335938 19.441406 L 10.335938 19.4375 L 10.320312 19.4375 L 10.320312 19.433594 L 10.300781 19.433594 L 10.300781 19.429688 L 10.285156 19.429688 L 10.285156 19.425781 L 10.269531 19.425781 L 10.269531 19.421875 L 10.253906 19.421875 L 10.253906 19.414062 L 10.238281 19.414062 L 10.238281 19.410156 L 10.222656 19.410156 L 10.222656 19.40625 L 10.203125 19.40625 L 10.203125 19.402344 L 10.1875 19.402344 L 10.1875 19.398438 L 10.171875 19.398438 L 10.171875 19.390625 L 10.160156 19.390625 L 10.160156 19.386719 L 10.140625 19.386719 L 10.140625 19.382812 L 10.128906 19.382812 L 10.128906 19.375 L 10.113281 19.375 L 10.113281 19.367188 L 10.097656 19.367188 L 10.097656 19.363281 L 10.078125 19.363281 L 10.078125 19.359375 L 10.0625 19.359375 L 10.0625 19.355469 L 10.046875 19.355469 L 10.046875 19.351562 L 10.03125 19.351562 L 10.03125 19.347656 L 10.015625 19.347656 L 10.015625 19.339844 L 10 19.339844 L 10 19.335938 L 9.984375 19.335938 L 9.984375 19.332031 L 9.96875 19.332031 L 9.96875 19.328125 L 9.953125 19.328125 L 9.953125 19.324219 L 9.9375 19.324219 L 9.9375 9.566406 L 13.308594 9.566406 C 13.871094 9.566406 14.390625 9.644531 14.871094 9.796875 C 14.878906 9.800781 14.882812 9.800781 14.886719 9.800781 C 14.886719 9.800781 14.890625 9.800781 14.890625 9.800781 C 14.894531 9.804688 14.898438 9.804688 14.902344 9.808594 C 14.902344 9.808594 14.90625 9.808594 14.90625 9.808594 C 14.910156 9.808594 14.914062 9.808594 14.917969 9.8125 C 14.917969 9.8125 14.921875 9.8125 14.921875 9.8125 C 14.925781 9.8125 14.929688 9.8125 14.933594 9.816406 C 14.933594 9.816406 14.9375 9.816406 14.9375 9.816406 C 14.941406 9.816406 14.945312 9.816406 14.953125 9.820312 C 14.957031 9.824219 14.964844 9.824219 14.96875 9.824219 C 14.976562 9.828125 14.980469 9.828125 14.984375 9.828125 C 14.984375 9.828125 14.988281 9.828125 14.988281 9.828125 C 14.992188 9.832031 14.996094 9.832031 15 9.835938 C 15 9.835938 15.003906 9.835938 15.003906 9.835938 C 15.007812 9.835938 15.011719 9.835938 15.015625 9.839844 C 15.015625 9.839844 15.019531 9.839844 15.019531 9.839844 C 15.023438 9.839844 15.027344 9.839844 15.03125 9.84375 C 15.03125 9.84375 15.035156 9.84375 15.035156 9.84375 C 15.039062 9.847656 15.042969 9.847656 15.050781 9.847656 C 15.054688 9.851562 15.0625 9.851562 15.066406 9.851562 C 15.070312 9.855469 15.078125 9.855469 15.082031 9.859375 C 15.089844 9.859375 15.09375 9.859375 15.097656 9.863281 C 15.097656 9.863281 15.101562 9.863281 15.101562 9.863281 C 15.105469 9.863281 15.109375 9.863281 15.113281 9.867188 C 15.113281 9.867188 15.117188 9.867188 15.117188 9.867188 C 15.121094 9.871094 15.125 9.871094 15.128906 9.871094 C 15.128906 9.871094 15.132812 9.871094 15.132812 9.871094 C 15.136719 9.875 15.140625 9.875 15.144531 9.875 C 15.144531 9.875 15.148438 9.875 15.148438 9.875 C 15.152344 9.878906 15.15625 9.878906 15.164062 9.878906 C 15.167969 9.882812 15.175781 9.882812 15.179688 9.886719 C 15.1875 9.886719 15.191406 9.886719 15.195312 9.890625 C 15.195312 9.890625 15.199219 9.890625 15.199219 9.890625 C 15.203125 9.890625 15.207031 9.890625 15.210938 9.894531 C 15.210938 9.894531 15.214844 9.894531 15.214844 9.894531 C 15.21875 9.898438 15.222656 9.898438 15.226562 9.898438 C 15.226562 9.898438 15.230469 9.898438 15.230469 9.898438 C 15.234375 9.902344 15.238281 9.902344 15.242188 9.902344 C 15.242188 9.902344 15.246094 9.902344 15.246094 9.902344 C 15.25 9.90625 15.253906 9.90625 15.261719 9.910156 C 15.265625 9.910156 15.273438 9.910156 15.277344 9.914062 C 15.285156 9.914062 15.289062 9.914062 15.292969 9.917969 C 15.292969 9.917969 15.296875 9.917969 15.296875 9.917969 C 15.300781 9.921875 15.304688 9.921875 15.308594 9.921875 C 15.308594 9.921875 15.3125 9.921875 15.3125 9.921875 C 15.316406 9.925781 15.320312 9.925781 15.324219 9.925781 C 15.324219 9.925781 15.328125 9.925781 15.328125 9.925781 C 15.332031 9.929688 15.335938 9.929688 15.339844 9.933594 C 15.339844 9.933594 15.34375 9.933594 15.34375 9.933594 C 15.347656 9.933594 15.351562 9.933594 15.359375 9.9375 C 15.363281 9.9375 15.371094 9.9375 15.375 9.941406 C 15.378906 9.941406 15.386719 9.941406 15.390625 9.945312 C 15.398438 9.949219 15.402344 9.949219 15.40625 9.949219 C 15.40625 9.949219 15.410156 9.949219 15.410156 9.949219 C 15.414062 9.953125 15.417969 9.953125 15.421875 9.953125 C 15.421875 9.953125 15.425781 9.953125 15.425781 9.953125 C 15.429688 9.957031 15.433594 9.957031 15.4375 9.960938 C 15.4375 9.960938 15.441406 9.960938 15.441406 9.960938 C 15.445312 9.960938 15.449219 9.960938 15.453125 9.964844 C 15.453125 9.964844 15.457031 9.964844 15.457031 9.964844 C 15.460938 9.964844 15.464844 9.964844 15.472656 9.96875 C 15.476562 9.972656 15.484375 9.972656 15.488281 9.972656 C 15.496094 9.976562 15.5 9.976562 15.503906 9.976562 C 15.503906 9.976562 15.507812 9.976562 15.507812 9.976562 C 15.511719 9.980469 15.515625 9.980469 15.519531 9.984375 C 15.519531 9.984375 15.523438 9.984375 15.523438 9.984375 C 15.527344 9.984375 15.53125 9.984375 15.535156 9.988281 C 15.535156 9.988281 15.539062 9.988281 15.539062 9.988281 C 15.542969 9.988281 15.546875 9.988281 15.550781 9.992188 C 15.550781 9.992188 15.554688 9.992188 15.554688 9.992188 C 15.558594 9.996094 15.5625 9.996094 15.570312 9.996094 C 15.574219 10 15.582031 10 15.585938 10 C 15.59375 10.003906 15.597656 10.003906 15.601562 10.003906 C 15.609375 10.007812 15.613281 10.007812 15.617188 10.011719 C 15.617188 10.011719 15.621094 10.011719 15.621094 10.011719 C 15.625 10.011719 15.628906 10.011719 15.632812 10.015625 C 15.632812 10.015625 15.636719 10.015625 15.636719 10.015625 C 15.640625 10.015625 15.644531 10.015625 15.648438 10.019531 C 15.648438 10.019531 15.652344 10.019531 15.652344 10.019531 C 15.65625 10.023438 15.660156 10.023438 15.667969 10.023438 C 15.671875 10.027344 15.675781 10.027344 15.683594 10.027344 C 15.6875 10.03125 15.695312 10.03125 15.699219 10.035156 C 15.707031 10.035156 15.710938 10.035156 15.714844 10.039062 C 15.714844 10.039062 15.71875 10.039062 15.71875 10.039062 C 15.722656 10.039062 15.726562 10.039062 15.730469 10.042969 C 15.730469 10.042969 15.734375 10.042969 15.734375 10.042969 C 15.738281 10.046875 15.742188 10.046875 15.746094 10.046875 C 15.746094 10.046875 15.75 10.046875 15.75 10.046875 C 15.753906 10.050781 15.757812 10.050781 15.761719 10.050781 C 15.761719 10.050781 15.765625 10.050781 15.765625 10.050781 C 15.769531 10.054688 15.773438 10.054688 15.78125 10.058594 C 15.785156 10.058594 15.792969 10.058594 15.796875 10.0625 C 15.804688 10.0625 15.808594 10.0625 15.8125 10.066406 C 15.8125 10.066406 15.816406 10.066406 15.816406 10.066406 C 15.820312 10.066406 15.824219 10.066406 15.828125 10.070312 C 15.828125 10.070312 15.832031 10.070312 15.832031 10.070312 C 15.835938 10.074219 15.839844 10.074219 15.84375 10.074219 C 15.84375 10.074219 15.847656 10.074219 15.847656 10.074219 C 15.851562 10.078125 15.855469 10.078125 15.859375 10.078125 C 15.859375 10.078125 15.863281 10.078125 15.863281 10.078125 C 15.867188 10.082031 15.871094 10.082031 15.878906 10.085938 C 15.882812 10.085938 15.890625 10.085938 15.894531 10.089844 C 15.902344 10.089844 15.90625 10.089844 15.910156 10.09375 C 15.917969 10.097656 15.921875 10.097656 15.925781 10.097656 C 15.925781 10.097656 15.929688 10.097656 15.929688 10.097656 C 15.933594 10.101562 15.9375 10.101562 15.941406 10.101562 C 15.941406 10.101562 15.945312 10.101562 15.945312 10.101562 C 15.949219 10.105469 15.953125 10.105469 15.957031 10.109375 C 15.957031 10.109375 15.960938 10.109375 15.960938 10.109375 C 15.964844 10.109375 15.96875 10.109375 15.976562 10.113281 C 15.980469 10.113281 15.984375 10.113281 15.992188 10.117188 C 15.996094 10.121094 16.003906 10.121094 16.007812 10.121094 C 16.015625 10.125 16.019531 10.125 16.023438 10.125 C 16.023438 10.125 16.027344 10.125 16.027344 10.125 C 16.03125 10.128906 16.035156 10.128906 16.039062 10.128906 C 16.039062 10.128906 16.042969 10.128906 16.042969 10.128906 C 16.046875 10.132812 16.050781 10.132812 16.054688 10.136719 C 16.054688 10.136719 16.058594 10.136719 16.058594 10.136719 C 16.0625 10.136719 16.066406 10.136719 16.070312 10.140625 C 16.070312 10.140625 16.074219 10.140625 16.074219 10.140625 C 16.078125 10.140625 16.082031 10.140625 16.089844 10.144531 C 16.09375 10.148438 16.101562 10.148438 16.105469 10.148438 C 16.113281 10.152344 16.117188 10.152344 16.121094 10.152344 C 16.121094 10.152344 16.125 10.152344 16.125 10.152344 C 16.128906 10.15625 16.132812 10.15625 16.136719 10.160156 C 16.136719 10.160156 16.140625 10.160156 16.140625 10.160156 C 16.144531 10.160156 16.148438 10.160156 16.152344 10.164062 C 16.152344 10.164062 16.15625 10.164062 16.15625 10.164062 C 16.160156 10.164062 16.164062 10.164062 16.167969 10.167969 C 16.167969 10.167969 16.171875 10.167969 16.171875 10.167969 C 16.175781 10.171875 16.179688 10.171875 16.1875 10.171875 C 16.191406 10.175781 16.199219 10.175781 16.203125 10.175781 C 16.210938 10.179688 16.214844 10.179688 16.21875 10.183594 C 16.226562 10.183594 16.230469 10.183594 16.234375 10.1875 C 16.234375 10.1875 16.238281 10.1875 16.238281 10.1875 C 16.242188 10.1875 16.246094 10.1875 16.25 10.191406 C 16.25 10.191406 16.253906 10.191406 16.253906 10.191406 C 16.257812 10.191406 16.261719 10.191406 16.265625 10.195312 C 16.265625 10.195312 16.269531 10.195312 16.269531 10.195312 C 16.273438 10.199219 16.277344 10.199219 16.285156 10.199219 C 16.289062 10.203125 16.292969 10.203125 16.300781 10.203125 C 16.304688 10.207031 16.3125 10.207031 16.316406 10.210938 C 16.324219 10.210938 16.328125 10.210938 16.332031 10.214844 C 16.332031 10.214844 16.335938 10.214844 16.335938 10.214844 C 16.339844 10.214844 16.34375 10.214844 16.347656 10.21875 C 16.347656 10.21875 16.351562 10.21875 16.351562 10.21875 C 16.355469 10.222656 16.359375 10.222656 16.363281 10.222656 C 16.363281 10.222656 16.367188 10.222656 16.367188 10.222656 C 16.371094 10.226562 16.375 10.226562 16.378906 10.226562 C 16.378906 10.226562 16.382812 10.226562 16.382812 10.226562 C 16.386719 10.230469 16.390625 10.230469 16.398438 10.234375 C 16.402344 10.234375 16.410156 10.234375 16.414062 10.238281 C 16.421875 10.238281 16.425781 10.238281 16.429688 10.242188 C 16.429688 10.242188 16.433594 10.242188 16.433594 10.242188 C 16.4375 10.246094 16.441406 10.246094 16.445312 10.246094 C 16.445312 10.246094 16.449219 10.246094 16.449219 10.246094 C 16.453125 10.25 16.457031 10.25 16.460938 10.25 C 16.460938 10.25 16.464844 10.25 16.464844 10.25 C 16.46875 10.253906 16.472656 10.253906 16.476562 10.253906 C 16.476562 10.253906 16.480469 10.253906 16.480469 10.253906 C 16.484375 10.257812 16.488281 10.257812 16.496094 10.261719 C 16.5 10.261719 16.507812 10.261719 16.511719 10.265625 C 16.515625 10.265625 16.523438 10.265625 16.527344 10.269531 C 16.535156 10.273438 16.539062 10.273438 16.542969 10.273438 C 16.542969 10.273438 16.546875 10.273438 16.546875 10.273438 C 16.550781 10.277344 16.554688 10.277344 16.558594 10.277344 C 16.558594 10.277344 16.5625 10.277344 16.5625 10.277344 C 16.566406 10.28125 16.570312 10.28125 16.574219 10.285156 C 16.574219 10.285156 16.578125 10.285156 16.578125 10.285156 C 16.582031 10.285156 16.585938 10.285156 16.59375 10.289062 C 16.597656 10.289062 16.601562 10.289062 16.609375 10.292969 C 16.613281 10.296875 16.621094 10.296875 16.625 10.296875 C 16.632812 10.300781 16.636719 10.300781 16.640625 10.300781 C 16.640625 10.300781 16.644531 10.300781 16.644531 10.300781 C 16.648438 10.304688 16.652344 10.304688 16.65625 10.308594 C 16.65625 10.308594 16.660156 10.308594 16.660156 10.308594 C 16.664062 10.308594 16.667969 10.308594 16.671875 10.3125 C 16.671875 10.3125 16.675781 10.3125 16.675781 10.3125 C 16.679688 10.3125 16.683594 10.3125 16.6875 10.316406 C 16.6875 10.316406 16.691406 10.316406 16.691406 10.316406 C 16.695312 10.316406 16.699219 10.316406 16.707031 10.320312 C 16.710938 10.324219 16.71875 10.324219 16.722656 10.324219 C 16.730469 10.328125 16.734375 10.328125 16.738281 10.328125 C 16.738281 10.328125 16.742188 10.328125 16.742188 10.328125 C 16.746094 10.332031 16.75 10.332031 16.753906 10.335938 C 16.753906 10.335938 16.757812 10.335938 16.757812 10.335938 C 16.761719 10.335938 16.765625 10.335938 16.769531 10.339844 C 16.769531 10.339844 16.773438 10.339844 16.773438 10.339844 C 16.777344 10.339844 16.78125 10.339844 16.785156 10.34375 C 16.785156 10.34375 16.789062 10.34375 16.789062 10.34375 C 16.792969 10.347656 16.796875 10.347656 16.804688 10.347656 C 16.808594 10.351562 16.816406 10.351562 16.820312 10.351562 C 16.824219 10.355469 16.832031 10.355469 16.835938 10.359375 C 16.84375 10.359375 16.847656 10.359375 16.851562 10.363281 C 16.851562 10.363281 16.855469 10.363281 16.855469 10.363281 C 16.859375 10.363281 16.863281 10.363281 16.867188 10.367188 C 16.867188 10.367188 16.871094 10.367188 16.871094 10.367188 C 16.875 10.371094 16.878906 10.371094 16.882812 10.371094 C 16.882812 10.371094 16.886719 10.371094 16.886719 10.371094 C 16.890625 10.375 16.894531 10.375 16.898438 10.375 C 16.898438 10.375 16.902344 10.375 16.902344 10.375 C 16.90625 10.378906 16.910156 10.378906 16.917969 10.378906 C 16.921875 10.382812 16.929688 10.382812 16.933594 10.386719 C 16.941406 10.386719 16.945312 10.386719 16.949219 10.390625 C 16.949219 10.390625 16.953125 10.390625 16.953125 10.390625 C 16.957031 10.390625 16.960938 10.390625 16.964844 10.394531 C 16.964844 10.394531 16.96875 10.394531 16.96875 10.394531 C 16.972656 10.398438 16.976562 10.398438 16.980469 10.398438 C 16.980469 10.398438 16.984375 10.398438 16.984375 10.398438 C 16.988281 10.402344 16.992188 10.402344 16.996094 10.402344 C 16.996094 10.402344 17 10.402344 17 10.402344 C 17.003906 10.40625 17.007812 10.40625 17.015625 10.410156 C 17.019531 10.410156 17.027344 10.410156 17.03125 10.414062 C 17.039062 10.414062 17.042969 10.414062 17.046875 10.417969 C 17.046875 10.417969 17.050781 10.417969 17.050781 10.417969 C 17.054688 10.421875 17.058594 10.421875 17.0625 10.421875 C 17.0625 10.421875 17.066406 10.421875 17.066406 10.421875 C 17.070312 10.425781 17.074219 10.425781 17.078125 10.425781 C 17.078125 10.425781 17.082031 10.425781 17.082031 10.425781 C 17.085938 10.429688 17.089844 10.429688 17.09375 10.433594 C 17.09375 10.433594 17.097656 10.433594 17.097656 10.433594 C 17.101562 10.433594 17.105469 10.433594 17.113281 10.4375 C 17.117188 10.4375 17.125 10.4375 17.128906 10.441406 C 17.132812 10.441406 17.140625 10.441406 17.144531 10.445312 C 17.152344 10.449219 17.15625 10.449219 17.160156 10.449219 C 17.160156 10.449219 17.164062 10.449219 17.164062 10.449219 C 17.167969 10.453125 17.171875 10.453125 17.175781 10.453125 C 17.175781 10.453125 17.179688 10.453125 17.179688 10.453125 C 17.183594 10.457031 17.1875 10.457031 17.191406 10.460938 C 17.191406 10.460938 17.195312 10.460938 17.195312 10.460938 C 17.199219 10.460938 17.203125 10.460938 17.207031 10.464844 C 17.207031 10.464844 17.210938 10.464844 17.210938 10.464844 C 17.214844 10.464844 17.21875 10.464844 17.226562 10.46875 C 17.230469 10.472656 17.238281 10.472656 17.242188 10.472656 C 17.25 10.476562 17.253906 10.476562 17.257812 10.476562 C 17.257812 10.476562 17.261719 10.476562 17.261719 10.476562 C 17.265625 10.480469 17.269531 10.480469 17.273438 10.484375 C 17.273438 10.484375 17.277344 10.484375 17.277344 10.484375 C 17.28125 10.484375 17.285156 10.484375 17.289062 10.488281 C 17.289062 10.488281 17.292969 10.488281 17.292969 10.488281 C 17.296875 10.488281 17.300781 10.488281 17.304688 10.492188 C 17.304688 10.492188 17.308594 10.492188 17.308594 10.492188 C 17.3125 10.496094 17.316406 10.496094 17.324219 10.496094 C 17.328125 10.5 17.335938 10.5 17.339844 10.5 C 17.347656 10.503906 17.351562 10.503906 17.355469 10.503906 C 17.363281 10.507812 17.367188 10.507812 17.371094 10.511719 C 17.371094 10.511719 17.375 10.511719 17.375 10.511719 C 17.378906 10.511719 17.382812 10.511719 17.386719 10.515625 C 17.386719 10.515625 17.390625 10.515625 17.390625 10.515625 C 17.394531 10.515625 17.398438 10.515625 17.402344 10.519531 C 17.402344 10.519531 17.40625 10.519531 17.40625 10.519531 C 17.410156 10.523438 17.414062 10.523438 17.421875 10.523438 C 17.425781 10.527344 17.429688 10.527344 17.4375 10.527344 C 17.441406 10.53125 17.449219 10.53125 17.453125 10.535156 C 17.460938 10.535156 17.464844 10.535156 17.46875 10.539062 C 17.46875 10.539062 17.472656 10.539062 17.472656 10.539062 C 17.476562 10.539062 17.480469 10.539062 17.484375 10.542969 C 17.484375 10.542969 17.488281 10.542969 17.488281 10.542969 C 17.492188 10.546875 17.496094 10.546875 17.5 10.546875 C 17.5 10.546875 17.503906 10.546875 17.503906 10.546875 C 17.507812 10.550781 17.511719 10.550781 17.515625 10.550781 C 17.515625 10.550781 17.519531 10.550781 17.519531 10.550781 C 17.523438 10.554688 17.527344 10.554688 17.535156 10.558594 C 17.539062 10.558594 17.546875 10.558594 17.550781 10.5625 C 17.558594 10.5625 17.5625 10.5625 17.566406 10.566406 C 17.566406 10.566406 17.570312 10.566406 17.570312 10.566406 C 17.574219 10.566406 17.578125 10.566406 17.582031 10.570312 C 17.582031 10.570312 17.585938 10.570312 17.585938 10.570312 C 17.589844 10.574219 17.59375 10.574219 17.597656 10.574219 C 17.597656 10.574219 17.601562 10.574219 17.601562 10.574219 C 17.605469 10.578125 17.609375 10.578125 17.613281 10.578125 C 17.613281 10.578125 17.617188 10.578125 17.617188 10.578125 C 17.621094 10.582031 17.625 10.582031 17.632812 10.585938 C 17.636719 10.585938 17.644531 10.585938 17.648438 10.589844 C 17.65625 10.589844 17.660156 10.589844 17.664062 10.59375 C 17.671875 10.597656 17.675781 10.597656 17.679688 10.597656 C 17.679688 10.597656 17.683594 10.597656 17.683594 10.597656 C 17.6875 10.601562 17.691406 10.601562 17.695312 10.601562 C 17.695312 10.601562 17.699219 10.601562 17.699219 10.601562 C 17.703125 10.605469 17.707031 10.605469 17.710938 10.609375 C 17.710938 10.609375 17.714844 10.609375 17.714844 10.609375 C 17.71875 10.609375 17.722656 10.609375 17.730469 10.613281 C 17.734375 10.613281 17.738281 10.613281 17.746094 10.617188 C 17.75 10.621094 17.757812 10.621094 17.761719 10.621094 C 17.769531 10.625 17.773438 10.625 17.777344 10.625 C 17.777344 10.625 17.78125 10.625 17.78125 10.625 C 17.785156 10.628906 17.789062 10.628906 17.792969 10.628906 C 17.792969 10.628906 17.796875 10.628906 17.796875 10.628906 C 17.800781 10.632812 17.804688 10.632812 17.808594 10.636719 C 17.808594 10.636719 17.8125 10.636719 17.8125 10.636719 C 17.816406 10.636719 17.820312 10.636719 17.824219 10.640625 C 17.824219 10.640625 17.828125 10.640625 17.828125 10.640625 C 17.832031 10.640625 17.835938 10.640625 17.84375 10.644531 C 17.847656 10.648438 17.855469 10.648438 17.859375 10.648438 C 17.867188 10.652344 17.871094 10.652344 17.875 10.652344 C 17.875 10.652344 17.878906 10.652344 17.878906 10.652344 C 17.882812 10.65625 17.886719 10.65625 17.890625 10.660156 C 17.890625 10.660156 17.894531 10.660156 17.894531 10.660156 C 17.898438 10.660156 17.902344 10.660156 17.90625 10.664062 C 17.90625 10.664062 17.910156 10.664062 17.910156 10.664062 C 17.914062 10.664062 17.917969 10.664062 17.921875 10.667969 C 17.921875 10.667969 17.925781 10.667969 17.925781 10.667969 C 17.929688 10.671875 17.933594 10.671875 17.941406 10.671875 C 17.945312 10.675781 17.953125 10.675781 17.957031 10.675781 C 17.964844 10.679688 17.96875 10.679688 17.972656 10.683594 C 17.980469 10.683594 17.984375 10.683594 17.988281 10.6875 C 17.988281 10.6875 17.992188 10.6875 17.992188 10.6875 C 17.996094 10.6875 18 10.6875 18.003906 10.691406 C 18.003906 10.691406 18.007812 10.691406 18.007812 10.691406 C 18.011719 10.691406 18.015625 10.691406 18.019531 10.695312 C 18.019531 10.695312 18.023438 10.695312 18.023438 10.695312 C 18.027344 10.699219 18.03125 10.699219 18.039062 10.699219 C 18.042969 10.703125 18.046875 10.703125 18.054688 10.703125 C 18.058594 10.707031 18.066406 10.707031 18.070312 10.710938 C 18.078125 10.710938 18.082031 10.710938 18.085938 10.714844 C 18.085938 10.714844 18.089844 10.714844 18.089844 10.714844 C 18.09375 10.714844 18.097656 10.714844 18.101562 10.71875 C 18.101562 10.71875 18.105469 10.71875 18.105469 10.71875 C 18.109375 10.722656 18.113281 10.722656 18.117188 10.722656 C 18.117188 10.722656 18.121094 10.722656 18.121094 10.722656 C 18.125 10.726562 18.128906 10.726562 18.132812 10.726562 C 18.613281 10.878906 19 11.128906 19.296875 11.476562 C 19.589844 11.824219 19.738281 12.296875 19.738281 12.886719 C 19.738281 13.273438 19.664062 13.621094 19.519531 13.925781 C 19.375 14.234375 19.179688 14.484375 18.941406 14.675781 C 18.71875 14.855469 18.480469 14.976562 18.226562 15.046875 C 18.226562 15.046875 18.230469 15.050781 18.234375 15.050781 C 18.238281 15.050781 18.246094 15.050781 18.25 15.054688 C 18.253906 15.054688 18.261719 15.054688 18.265625 15.058594 C 18.269531 15.0625 18.277344 15.0625 18.28125 15.0625 C 18.289062 15.066406 18.292969 15.066406 18.300781 15.066406 C 18.304688 15.070312 18.3125 15.070312 18.316406 15.074219 C 18.320312 15.074219 18.328125 15.074219 18.332031 15.078125 C 18.335938 15.078125 18.34375 15.078125 18.347656 15.082031 C 18.351562 15.085938 18.359375 15.085938 18.363281 15.085938 C 18.367188 15.089844 18.375 15.089844 18.378906 15.089844 C 18.386719 15.09375 18.390625 15.09375 18.398438 15.097656 C 18.402344 15.097656 18.410156 15.097656 18.414062 15.101562 C 18.417969 15.101562 18.425781 15.101562 18.429688 15.105469 C 18.433594 15.109375 18.441406 15.109375 18.445312 15.109375 C 18.449219 15.113281 18.457031 15.113281 18.460938 15.113281 C 18.464844 15.117188 18.472656 15.117188 18.476562 15.117188 C 18.484375 15.121094 18.488281 15.121094 18.496094 15.125 C 18.5 15.125 18.503906 15.125 18.511719 15.128906 C 18.515625 15.128906 18.523438 15.128906 18.527344 15.132812 C 18.648438 15.167969 18.769531 15.214844 18.886719 15.269531 C 19.121094 15.378906 19.335938 15.535156 19.527344 15.726562 C 19.714844 15.921875 19.871094 16.164062 19.980469 16.453125 C 20.03125 16.8125 20.089844 17.152344 20.089844 17.546875 Z M 20.089844 17.546875 " fill-opacity="1" fill-rule="nonzero"/></g><g clip-path="url(#0aa5292d1f)"><path fill="#191301" d="M 17.941406 14.734375 C 17.828125 14.441406 17.679688 14.203125 17.492188 14.003906 C 17.304688 13.8125 17.09375 13.660156 16.859375 13.546875 C 16.667969 13.453125 16.472656 13.390625 16.273438 13.355469 C 16.277344 13.355469 16.277344 13.351562 16.277344 13.351562 C 16.28125 13.351562 16.285156 13.351562 16.285156 13.347656 C 16.289062 13.347656 16.289062 13.347656 16.292969 13.34375 C 16.292969 13.339844 16.296875 13.339844 16.300781 13.339844 C 16.300781 13.335938 16.304688 13.335938 16.304688 13.335938 C 16.308594 13.332031 16.3125 13.332031 16.3125 13.328125 C 16.316406 13.328125 16.316406 13.328125 16.320312 13.324219 C 16.324219 13.324219 16.324219 13.324219 16.328125 13.320312 C 16.328125 13.316406 16.332031 13.316406 16.335938 13.316406 C 16.335938 13.3125 16.339844 13.3125 16.339844 13.3125 C 16.34375 13.308594 16.347656 13.308594 16.347656 13.308594 C 16.351562 13.304688 16.351562 13.304688 16.355469 13.300781 C 16.359375 13.300781 16.359375 13.300781 16.363281 13.296875 C 16.363281 13.296875 16.367188 13.296875 16.367188 13.292969 C 16.371094 13.289062 16.375 13.289062 16.375 13.289062 C 16.378906 13.285156 16.378906 13.285156 16.382812 13.285156 C 16.386719 13.28125 16.386719 13.28125 16.390625 13.277344 C 16.390625 13.277344 16.394531 13.277344 16.398438 13.273438 C 16.398438 13.273438 16.402344 13.273438 16.402344 13.269531 C 16.40625 13.265625 16.410156 13.265625 16.410156 13.265625 C 16.414062 13.261719 16.414062 13.261719 16.417969 13.261719 C 16.421875 13.257812 16.421875 13.257812 16.425781 13.253906 C 16.425781 13.253906 16.429688 13.253906 16.433594 13.25 C 16.433594 13.25 16.4375 13.25 16.4375 13.246094 C 16.441406 13.246094 16.441406 13.246094 16.445312 13.242188 C 16.449219 13.238281 16.449219 13.238281 16.453125 13.238281 C 16.453125 13.234375 16.457031 13.234375 16.460938 13.234375 C 16.460938 13.230469 16.464844 13.230469 16.464844 13.226562 C 16.46875 13.226562 16.472656 13.226562 16.472656 13.222656 C 16.476562 13.222656 16.476562 13.222656 16.480469 13.21875 C 16.484375 13.214844 16.484375 13.214844 16.488281 13.214844 C 16.488281 13.210938 16.492188 13.210938 16.496094 13.210938 C 16.496094 13.207031 16.5 13.207031 16.5 13.203125 C 16.503906 13.203125 16.507812 13.203125 16.507812 13.199219 C 16.511719 13.199219 16.511719 13.199219 16.515625 13.195312 C 16.515625 13.191406 16.519531 13.191406 16.523438 13.191406 C 16.523438 13.1875 16.527344 13.1875 16.527344 13.1875 C 16.53125 13.183594 16.535156 13.183594 16.535156 13.183594 C 16.539062 13.179688 16.539062 13.179688 16.542969 13.175781 C 16.546875 13.175781 16.546875 13.175781 16.550781 13.171875 C 16.550781 13.171875 16.554688 13.171875 16.558594 13.167969 C 16.558594 13.164062 16.5625 13.164062 16.5625 13.164062 C 16.566406 13.160156 16.570312 13.160156 16.570312 13.160156 C 16.574219 13.15625 16.574219 13.15625 16.578125 13.152344 C 16.582031 13.152344 16.582031 13.152344 16.585938 13.148438 C 16.585938 13.148438 16.589844 13.148438 16.589844 13.144531 C 16.59375 13.140625 16.597656 13.140625 16.597656 13.140625 C 16.601562 13.136719 16.601562 13.136719 16.605469 13.136719 C 16.609375 13.132812 16.609375 13.132812 16.613281 13.128906 C 16.613281 13.128906 16.617188 13.128906 16.621094 13.125 C 16.621094 13.125 16.625 13.125 16.625 13.121094 C 16.628906 13.121094 16.632812 13.121094 16.632812 13.117188 C 16.636719 13.113281 16.636719 13.113281 16.640625 13.113281 C 16.644531 13.109375 16.644531 13.109375 16.648438 13.109375 C 16.648438 13.105469 16.652344 13.105469 16.65625 13.101562 C 16.65625 13.101562 16.660156 13.101562 16.660156 13.097656 C 16.757812 13.042969 16.847656 12.980469 16.9375 12.90625 C 17.175781 12.710938 17.367188 12.460938 17.511719 12.152344 C 17.652344 11.847656 17.730469 11.5 17.730469 11.109375 C 17.730469 10.515625 17.582031 10.046875 17.289062 9.695312 C 16.996094 9.347656 16.613281 9.097656 16.140625 8.945312 C 15.667969 8.789062 15.152344 8.714844 14.601562 8.714844 L 11.246094 8.714844 L 11.246094 8.71875 L 11.238281 8.71875 L 11.238281 8.722656 L 11.234375 8.722656 L 11.234375 8.726562 L 11.226562 8.726562 L 11.226562 8.734375 L 11.21875 8.734375 L 11.21875 8.738281 L 11.210938 8.738281 L 11.210938 8.742188 L 11.203125 8.742188 L 11.203125 8.746094 L 11.199219 8.746094 L 11.199219 8.75 L 11.191406 8.75 L 11.191406 8.757812 L 11.183594 8.757812 L 11.183594 8.761719 L 11.175781 8.761719 L 11.175781 8.765625 L 11.171875 8.765625 L 11.171875 8.769531 L 11.164062 8.769531 L 11.164062 8.773438 L 11.15625 8.773438 L 11.15625 8.785156 L 11.148438 8.785156 L 11.148438 8.789062 L 11.140625 8.789062 L 11.140625 8.792969 L 11.136719 8.792969 L 11.136719 8.796875 L 11.128906 8.796875 L 11.128906 8.800781 L 11.121094 8.800781 L 11.121094 8.808594 L 11.113281 8.808594 L 11.113281 8.8125 L 11.109375 8.8125 L 11.109375 8.816406 L 11.101562 8.816406 L 11.101562 8.820312 L 11.097656 8.820312 L 11.097656 8.824219 L 11.089844 8.824219 L 11.089844 8.828125 L 11.082031 8.828125 L 11.082031 8.835938 L 11.074219 8.835938 L 11.074219 8.839844 L 11.066406 8.839844 L 11.066406 8.84375 L 11.0625 8.84375 L 11.0625 8.847656 L 11.054688 8.847656 L 11.054688 8.851562 L 11.050781 8.851562 L 11.050781 8.859375 L 11.042969 8.859375 L 11.042969 8.863281 L 11.035156 8.863281 L 11.035156 8.867188 L 11.027344 8.867188 L 11.027344 8.871094 L 11.023438 8.871094 L 11.023438 8.875 L 11.015625 8.875 L 11.015625 8.882812 L 11.011719 8.882812 L 11.011719 8.886719 L 11.003906 8.886719 L 11.003906 8.890625 L 10.996094 8.890625 L 10.996094 8.894531 L 10.988281 8.894531 L 10.988281 8.910156 L 10.980469 8.910156 L 10.980469 8.914062 L 10.976562 8.914062 L 10.976562 8.921875 L 10.96875 8.921875 L 10.96875 8.925781 L 10.964844 8.925781 L 10.964844 8.929688 L 10.957031 8.929688 L 10.957031 8.933594 L 10.941406 8.933594 L 10.941406 8.9375 L 10.9375 8.9375 L 10.9375 8.945312 L 10.929688 8.945312 L 10.929688 8.949219 L 10.925781 8.949219 L 10.925781 8.953125 L 10.917969 8.953125 L 10.917969 8.957031 L 10.902344 8.957031 L 10.902344 8.960938 L 10.894531 8.960938 L 10.894531 8.964844 L 10.890625 8.964844 L 10.890625 8.972656 L 10.882812 8.972656 L 10.882812 8.976562 L 10.875 8.976562 L 10.875 8.980469 L 10.863281 8.980469 L 10.863281 8.984375 L 10.855469 8.984375 L 10.855469 8.988281 L 10.847656 8.988281 L 10.847656 8.996094 L 10.839844 8.996094 L 10.839844 9 L 10.832031 9 L 10.832031 9.003906 L 10.820312 9.003906 L 10.820312 9.007812 L 10.8125 9.007812 L 10.8125 9.011719 L 10.804688 9.011719 L 10.804688 9.015625 L 10.800781 9.015625 L 10.800781 9.023438 L 10.792969 9.023438 L 10.792969 9.027344 L 10.777344 9.027344 L 10.777344 9.03125 L 10.769531 9.03125 L 10.769531 9.035156 L 10.765625 9.035156 L 10.765625 9.039062 L 10.757812 9.039062 L 10.757812 9.046875 L 10.761719 9.046875 L 10.761719 9.050781 L 10.746094 9.050781 L 10.746094 9.054688 L 10.742188 9.054688 L 10.742188 9.058594 L 10.734375 9.058594 L 10.734375 9.0625 L 10.726562 9.0625 L 10.726562 9.070312 L 10.71875 9.070312 L 10.71875 9.074219 L 10.707031 9.074219 L 10.707031 9.078125 L 10.703125 9.078125 L 10.703125 9.082031 L 10.695312 9.082031 L 10.695312 9.085938 L 10.6875 9.085938 L 10.6875 9.089844 L 10.679688 9.089844 L 10.679688 9.097656 L 10.671875 9.097656 L 10.671875 9.101562 L 10.667969 9.101562 L 10.667969 9.105469 L 10.660156 9.105469 L 10.660156 9.109375 L 10.65625 9.109375 L 10.65625 9.113281 L 10.648438 9.113281 L 10.648438 9.121094 L 10.640625 9.121094 L 10.640625 9.125 L 10.632812 9.125 L 10.632812 9.128906 L 10.628906 9.128906 L 10.628906 9.132812 L 10.621094 9.132812 L 10.621094 9.136719 L 10.617188 9.136719 L 10.617188 9.140625 L 10.609375 9.140625 L 10.609375 9.148438 L 10.601562 9.148438 L 10.601562 9.152344 L 10.59375 9.152344 L 10.59375 9.15625 L 10.585938 9.15625 L 10.585938 9.160156 L 10.582031 9.160156 L 10.582031 9.164062 L 10.578125 9.164062 L 10.578125 9.171875 L 10.570312 9.171875 L 10.570312 9.175781 L 10.5625 9.175781 L 10.5625 9.179688 L 10.554688 9.179688 L 10.554688 9.183594 L 10.546875 9.183594 L 10.546875 9.1875 L 10.542969 9.1875 L 10.542969 9.195312 L 10.535156 9.195312 L 10.535156 9.199219 L 10.527344 9.199219 L 10.527344 9.203125 L 10.519531 9.203125 L 10.519531 9.207031 L 10.511719 9.207031 L 10.511719 9.210938 L 10.507812 9.210938 L 10.507812 9.214844 L 10.5 9.214844 L 10.5 9.222656 L 10.492188 9.222656 L 10.492188 9.226562 L 10.484375 9.226562 L 10.484375 9.230469 L 10.480469 9.230469 L 10.480469 9.210938 L 10.472656 9.210938 L 10.472656 9.214844 L 10.464844 9.214844 L 10.464844 9.222656 L 10.457031 9.222656 L 10.457031 9.226562 L 10.449219 9.226562 L 10.449219 9.230469 L 10.445312 9.230469 L 10.445312 9.234375 L 10.429688 9.234375 L 10.429688 9.238281 L 10.421875 9.238281 L 10.421875 9.246094 L 10.417969 9.246094 L 10.417969 9.25 L 10.410156 9.25 L 10.410156 9.253906 L 10.414062 9.253906 L 10.414062 9.257812 L 10.398438 9.257812 L 10.398438 9.261719 L 10.394531 9.261719 L 10.394531 9.265625 L 10.386719 9.265625 L 10.386719 9.273438 L 10.378906 9.273438 L 10.378906 9.277344 L 10.371094 9.277344 L 10.371094 9.28125 L 10.359375 9.28125 L 10.359375 9.285156 L 10.351562 9.285156 L 10.351562 9.289062 L 10.347656 9.289062 L 10.347656 9.296875 L 10.339844 9.296875 L 10.339844 9.300781 L 10.332031 9.300781 L 10.332031 9.304688 L 10.320312 9.304688 L 10.320312 9.308594 L 10.3125 9.308594 L 10.3125 9.3125 L 10.308594 9.3125 L 10.308594 9.316406 L 10.300781 9.316406 L 10.300781 9.324219 L 10.292969 9.324219 L 10.292969 9.328125 L 10.277344 9.328125 L 10.277344 9.332031 L 10.273438 9.332031 L 10.273438 9.335938 L 10.269531 9.335938 L 10.269531 9.339844 L 10.261719 9.339844 L 10.261719 9.347656 L 10.253906 9.347656 L 10.253906 9.351562 L 10.238281 9.351562 L 10.238281 9.355469 L 10.234375 9.355469 L 10.234375 9.359375 L 10.226562 9.359375 L 10.226562 9.363281 L 10.222656 9.363281 L 10.222656 9.371094 L 10.214844 9.371094 L 10.214844 9.375 L 10.199219 9.375 L 10.199219 9.378906 L 10.195312 9.378906 L 10.195312 9.382812 L 10.1875 9.382812 L 10.1875 9.386719 L 10.183594 9.386719 L 10.183594 9.390625 L 10.175781 9.390625 L 10.175781 9.398438 L 10.167969 9.398438 L 10.167969 9.402344 L 10.160156 9.402344 L 10.160156 9.40625 L 10.15625 9.40625 L 10.15625 9.410156 L 10.148438 9.410156 L 10.148438 9.414062 L 10.140625 9.414062 L 10.140625 9.421875 L 10.136719 9.421875 L 10.136719 9.425781 L 10.128906 9.425781 L 10.128906 9.429688 L 10.125 9.429688 L 10.125 9.433594 L 10.117188 9.433594 L 10.117188 9.4375 L 10.109375 9.4375 L 10.109375 9.441406 L 10.101562 9.441406 L 10.101562 9.449219 L 10.097656 9.449219 L 10.097656 9.453125 L 10.089844 9.453125 L 10.089844 9.457031 L 10.085938 9.457031 L 10.085938 9.460938 L 10.078125 9.460938 L 10.078125 9.464844 L 10.070312 9.464844 L 10.070312 9.472656 L 10.0625 9.472656 L 10.0625 9.476562 L 10.058594 9.476562 L 10.058594 9.480469 L 10.050781 9.480469 L 10.050781 9.484375 L 10.046875 9.484375 L 10.046875 9.488281 L 10.039062 9.488281 L 10.039062 9.496094 L 10.03125 9.496094 L 10.03125 9.5 L 10.023438 9.5 L 10.023438 9.503906 L 10.019531 9.503906 L 10.019531 9.507812 L 10.011719 9.507812 L 10.011719 9.511719 L 10.003906 9.511719 L 10.003906 9.515625 L 10 9.515625 L 10 9.523438 L 9.992188 9.523438 L 9.992188 9.527344 L 9.984375 9.527344 L 9.984375 9.53125 L 9.980469 9.53125 L 9.980469 9.535156 L 9.972656 9.535156 L 9.972656 9.539062 L 9.964844 9.539062 L 9.964844 9.546875 L 9.960938 9.546875 L 9.960938 9.550781 L 9.953125 9.550781 L 9.953125 9.554688 L 9.945312 9.554688 L 9.945312 9.558594 L 9.941406 9.558594 L 9.941406 9.535156 L 9.933594 9.535156 L 9.933594 9.539062 L 9.925781 9.539062 L 9.925781 19.324219 L 13.65625 19.324219 C 14.328125 19.324219 14.894531 19.207031 15.359375 18.972656 C 15.421875 18.941406 15.476562 18.910156 15.53125 18.878906 C 15.535156 18.875 15.535156 18.875 15.539062 18.875 C 15.539062 18.871094 15.542969 18.871094 15.546875 18.867188 C 15.546875 18.867188 15.550781 18.867188 15.550781 18.863281 C 15.554688 18.863281 15.558594 18.863281 15.558594 18.859375 C 15.5625 18.859375 15.5625 18.859375 15.566406 18.855469 C 15.570312 18.851562 15.570312 18.851562 15.574219 18.851562 C 15.574219 18.847656 15.578125 18.847656 15.582031 18.847656 C 15.582031 18.84375 15.585938 18.84375 15.585938 18.839844 C 15.589844 18.839844 15.59375 18.839844 15.59375 18.835938 C 15.597656 18.835938 15.597656 18.835938 15.601562 18.832031 C 15.601562 18.828125 15.605469 18.828125 15.609375 18.828125 C 15.609375 18.824219 15.613281 18.824219 15.613281 18.824219 C 15.617188 18.820312 15.621094 18.820312 15.621094 18.816406 C 15.625 18.816406 15.625 18.816406 15.628906 18.8125 C 15.632812 18.8125 15.632812 18.8125 15.636719 18.808594 C 15.636719 18.804688 15.640625 18.804688 15.644531 18.804688 C 15.644531 18.800781 15.648438 18.800781 15.648438 18.800781 C 15.652344 18.796875 15.65625 18.796875 15.65625 18.796875 C 15.660156 18.792969 15.660156 18.792969 15.664062 18.789062 C 15.667969 18.789062 15.667969 18.789062 15.671875 18.785156 C 15.671875 18.785156 15.675781 18.785156 15.675781 18.78125 C 15.679688 18.777344 15.683594 18.777344 15.683594 18.777344 C 15.6875 18.773438 15.6875 18.773438 15.691406 18.773438 C 15.695312 18.769531 15.695312 18.769531 15.699219 18.765625 C 15.699219 18.765625 15.703125 18.765625 15.707031 18.761719 C 15.707031 18.761719 15.710938 18.761719 15.710938 18.757812 C 15.714844 18.753906 15.71875 18.753906 15.71875 18.753906 C 15.722656 18.75 15.722656 18.75 15.726562 18.75 C 15.730469 18.746094 15.730469 18.746094 15.734375 18.742188 C 15.734375 18.742188 15.738281 18.742188 15.742188 18.738281 C 15.742188 18.738281 15.746094 18.738281 15.746094 18.734375 C 15.75 18.734375 15.753906 18.734375 15.753906 18.730469 C 15.757812 18.726562 15.757812 18.726562 15.761719 18.726562 C 15.761719 18.722656 15.765625 18.722656 15.769531 18.722656 C 15.769531 18.71875 15.773438 18.71875 15.773438 18.714844 C 15.777344 18.714844 15.78125 18.714844 15.78125 18.710938 C 15.785156 18.710938 15.785156 18.710938 15.789062 18.707031 C 15.792969 18.703125 15.792969 18.703125 15.796875 18.703125 C 15.796875 18.699219 15.800781 18.699219 15.804688 18.699219 C 15.804688 18.695312 15.808594 18.695312 15.808594 18.691406 C 15.8125 18.691406 15.816406 18.691406 15.816406 18.6875 C 15.820312 18.6875 15.820312 18.6875 15.824219 18.683594 C 15.828125 18.679688 15.828125 18.679688 15.832031 18.679688 C 15.832031 18.675781 15.835938 18.675781 15.835938 18.675781 C 15.839844 18.671875 15.84375 18.671875 15.84375 18.671875 C 15.847656 18.667969 15.847656 18.667969 15.851562 18.664062 C 15.855469 18.664062 15.855469 18.664062 15.859375 18.660156 C 15.859375 18.660156 15.863281 18.660156 15.867188 18.65625 C 15.867188 18.652344 15.871094 18.652344 15.871094 18.652344 C 15.875 18.648438 15.878906 18.648438 15.878906 18.648438 C 15.882812 18.644531 15.882812 18.644531 15.886719 18.640625 C 15.890625 18.640625 15.890625 18.640625 15.894531 18.636719 C 15.894531 18.636719 15.898438 18.636719 15.902344 18.632812 C 15.902344 18.628906 15.90625 18.628906 15.90625 18.628906 C 15.910156 18.625 15.910156 18.625 15.914062 18.625 C 15.917969 18.621094 15.917969 18.621094 15.921875 18.617188 C 15.921875 18.617188 15.925781 18.617188 15.929688 18.613281 C 15.929688 18.613281 15.933594 18.613281 15.933594 18.609375 C 15.9375 18.609375 15.941406 18.609375 15.941406 18.605469 C 15.945312 18.601562 15.945312 18.601562 15.949219 18.601562 C 15.953125 18.597656 15.953125 18.597656 15.957031 18.597656 C 15.957031 18.59375 15.960938 18.59375 15.964844 18.589844 C 15.964844 18.589844 15.96875 18.589844 15.96875 18.585938 C 15.972656 18.585938 15.976562 18.585938 15.976562 18.582031 C 15.980469 18.578125 15.980469 18.578125 15.984375 18.578125 C 15.984375 18.574219 15.988281 18.574219 15.992188 18.574219 C 15.992188 18.570312 15.996094 18.570312 15.996094 18.566406 C 16 18.566406 16.003906 18.566406 16.003906 18.5625 C 16.007812 18.5625 16.007812 18.5625 16.011719 18.558594 C 16.015625 18.554688 16.015625 18.554688 16.019531 18.554688 C 16.019531 18.550781 16.023438 18.550781 16.027344 18.550781 C 16.027344 18.546875 16.03125 18.546875 16.03125 18.546875 C 16.035156 18.542969 16.039062 18.542969 16.039062 18.539062 C 16.042969 18.539062 16.042969 18.539062 16.046875 18.535156 C 16.050781 18.535156 16.050781 18.535156 16.054688 18.53125 C 16.054688 18.527344 16.058594 18.527344 16.058594 18.527344 C 16.0625 18.523438 16.066406 18.523438 16.066406 18.523438 C 16.070312 18.519531 16.070312 18.519531 16.074219 18.515625 C 16.078125 18.515625 16.078125 18.515625 16.082031 18.511719 C 16.082031 18.511719 16.085938 18.511719 16.089844 18.507812 C 16.089844 18.503906 16.09375 18.503906 16.09375 18.503906 C 16.097656 18.5 16.101562 18.5 16.101562 18.5 C 16.105469 18.496094 16.105469 18.496094 16.109375 18.492188 C 16.113281 18.492188 16.113281 18.492188 16.117188 18.488281 C 16.117188 18.488281 16.121094 18.488281 16.125 18.484375 C 16.125 18.484375 16.128906 18.484375 16.128906 18.480469 C 16.132812 18.476562 16.132812 18.476562 16.136719 18.476562 C 16.140625 18.472656 16.140625 18.472656 16.144531 18.472656 C 16.144531 18.46875 16.148438 18.46875 16.152344 18.464844 C 16.152344 18.464844 16.15625 18.464844 16.15625 18.460938 C 16.160156 18.460938 16.164062 18.460938 16.164062 18.457031 C 16.167969 18.453125 16.167969 18.453125 16.171875 18.453125 C 16.175781 18.449219 16.175781 18.449219 16.179688 18.449219 C 16.179688 18.445312 16.183594 18.445312 16.1875 18.441406 C 16.1875 18.441406 16.191406 18.441406 16.191406 18.4375 C 16.195312 18.4375 16.199219 18.4375 16.199219 18.433594 C 16.203125 18.429688 16.203125 18.429688 16.207031 18.429688 C 16.207031 18.425781 16.210938 18.425781 16.214844 18.425781 C 16.214844 18.421875 16.21875 18.421875 16.21875 18.421875 C 16.222656 18.417969 16.226562 18.417969 16.226562 18.414062 C 16.230469 18.414062 16.230469 18.414062 16.234375 18.410156 C 16.238281 18.410156 16.238281 18.410156 16.242188 18.40625 C 16.242188 18.402344 16.246094 18.402344 16.25 18.402344 C 16.25 18.398438 16.253906 18.398438 16.253906 18.398438 C 16.257812 18.394531 16.261719 18.394531 16.261719 18.390625 C 16.265625 18.390625 16.265625 18.390625 16.269531 18.386719 C 16.273438 18.386719 16.273438 18.386719 16.277344 18.382812 C 16.277344 18.378906 16.28125 18.378906 16.285156 18.378906 C 16.285156 18.375 16.289062 18.375 16.289062 18.375 C 16.292969 18.371094 16.292969 18.371094 16.296875 18.367188 C 16.300781 18.367188 16.300781 18.367188 16.304688 18.363281 C 16.304688 18.363281 16.308594 18.363281 16.3125 18.359375 C 16.3125 18.359375 16.316406 18.359375 16.316406 18.355469 C 16.320312 18.351562 16.324219 18.351562 16.324219 18.351562 C 16.328125 18.347656 16.328125 18.347656 16.332031 18.347656 C 16.335938 18.34375 16.335938 18.34375 16.339844 18.339844 C 16.339844 18.339844 16.34375 18.339844 16.347656 18.335938 C 16.347656 18.335938 16.351562 18.335938 16.351562 18.332031 C 16.355469 18.328125 16.359375 18.328125 16.359375 18.328125 C 16.363281 18.324219 16.363281 18.324219 16.367188 18.324219 C 16.367188 18.320312 16.371094 18.320312 16.375 18.316406 C 16.375 18.316406 16.378906 18.316406 16.378906 18.3125 C 16.382812 18.3125 16.386719 18.3125 16.386719 18.308594 C 16.390625 18.304688 16.390625 18.304688 16.394531 18.304688 C 16.398438 18.300781 16.398438 18.300781 16.402344 18.300781 C 16.402344 18.296875 16.40625 18.296875 16.410156 18.296875 C 16.410156 18.292969 16.414062 18.292969 16.414062 18.289062 C 16.417969 18.289062 16.421875 18.289062 16.421875 18.285156 C 16.425781 18.285156 16.425781 18.285156 16.429688 18.28125 C 16.433594 18.277344 16.433594 18.277344 16.4375 18.277344 C 16.4375 18.273438 16.441406 18.273438 16.441406 18.273438 C 16.445312 18.269531 16.449219 18.269531 16.449219 18.265625 C 16.453125 18.265625 16.453125 18.265625 16.457031 18.261719 C 16.460938 18.261719 16.460938 18.261719 16.464844 18.257812 C 16.464844 18.253906 16.46875 18.253906 16.472656 18.253906 C 16.472656 18.25 16.476562 18.25 16.476562 18.25 C 16.480469 18.246094 16.484375 18.246094 16.484375 18.242188 C 16.488281 18.242188 16.488281 18.242188 16.492188 18.238281 C 16.496094 18.238281 16.496094 18.238281 16.5 18.234375 C 16.5 18.234375 16.503906 18.234375 16.507812 18.230469 C 16.507812 18.226562 16.511719 18.226562 16.511719 18.226562 C 16.515625 18.222656 16.515625 18.222656 16.519531 18.222656 C 16.523438 18.21875 16.523438 18.21875 16.527344 18.214844 C 16.527344 18.214844 16.53125 18.214844 16.535156 18.210938 C 16.535156 18.210938 16.539062 18.210938 16.539062 18.207031 C 16.542969 18.203125 16.546875 18.203125 16.546875 18.203125 C 16.550781 18.199219 16.550781 18.199219 16.554688 18.199219 C 16.558594 18.195312 16.558594 18.195312 16.5625 18.191406 C 16.5625 18.191406 16.566406 18.191406 16.570312 18.1875 C 16.570312 18.1875 16.574219 18.1875 16.574219 18.183594 C 16.578125 18.179688 16.582031 18.179688 16.582031 18.179688 C 16.585938 18.175781 16.585938 18.175781 16.589844 18.175781 C 16.589844 18.171875 16.59375 18.171875 16.597656 18.171875 C 16.597656 18.167969 16.601562 18.167969 16.601562 18.164062 C 16.605469 18.164062 16.609375 18.164062 16.609375 18.160156 C 16.613281 18.160156 16.613281 18.160156 16.617188 18.15625 C 16.621094 18.152344 16.621094 18.152344 16.625 18.152344 C 16.625 18.148438 16.628906 18.148438 16.632812 18.148438 C 16.632812 18.144531 16.636719 18.144531 16.636719 18.140625 C 16.640625 18.140625 16.644531 18.140625 16.644531 18.136719 C 16.648438 18.136719 16.648438 18.136719 16.652344 18.132812 C 16.65625 18.128906 16.65625 18.128906 16.660156 18.128906 C 16.660156 18.125 16.664062 18.125 16.664062 18.125 C 16.667969 18.121094 16.671875 18.121094 16.671875 18.117188 C 16.675781 18.117188 16.675781 18.117188 16.679688 18.113281 C 16.683594 18.113281 16.683594 18.113281 16.6875 18.109375 C 16.6875 18.105469 16.691406 18.105469 16.695312 18.105469 C 16.695312 18.101562 16.699219 18.101562 16.699219 18.101562 C 16.703125 18.097656 16.707031 18.097656 16.707031 18.097656 C 16.710938 18.09375 16.710938 18.09375 16.714844 18.089844 C 16.71875 18.089844 16.71875 18.089844 16.722656 18.085938 C 16.722656 18.085938 16.726562 18.085938 16.730469 18.082031 C 16.730469 18.078125 16.734375 18.078125 16.734375 18.078125 C 16.738281 18.074219 16.738281 18.074219 16.742188 18.074219 C 16.746094 18.070312 16.746094 18.070312 16.75 18.066406 C 16.75 18.066406 16.753906 18.066406 16.757812 18.0625 C 16.757812 18.0625 16.761719 18.0625 16.761719 18.058594 C 16.765625 18.054688 16.769531 18.054688 16.769531 18.054688 C 16.773438 18.050781 16.773438 18.050781 16.777344 18.050781 C 16.78125 18.046875 16.78125 18.046875 16.785156 18.042969 C 16.785156 18.042969 16.789062 18.042969 16.792969 18.039062 C 16.792969 18.039062 16.796875 18.039062 16.796875 18.035156 C 16.800781 18.035156 16.804688 18.035156 16.804688 18.03125 C 16.808594 18.027344 16.808594 18.027344 16.8125 18.027344 C 16.8125 18.023438 16.816406 18.023438 16.820312 18.023438 C 16.820312 18.019531 16.824219 18.019531 16.824219 18.015625 C 16.828125 18.015625 16.832031 18.015625 16.832031 18.011719 C 16.835938 18.011719 16.835938 18.011719 16.839844 18.007812 C 16.84375 18.003906 16.84375 18.003906 16.847656 18.003906 C 16.847656 18 16.851562 18 16.855469 18 C 16.855469 17.996094 16.859375 17.996094 16.859375 17.992188 C 16.863281 17.992188 16.867188 17.992188 16.867188 17.988281 C 16.871094 17.988281 16.871094 17.988281 16.875 17.984375 C 16.878906 17.980469 16.878906 17.980469 16.882812 17.980469 C 16.882812 17.976562 16.886719 17.976562 16.890625 17.976562 C 16.890625 17.972656 16.894531 17.972656 16.894531 17.972656 C 16.898438 17.96875 16.898438 17.96875 16.902344 17.964844 C 16.90625 17.964844 16.90625 17.964844 16.910156 17.960938 C 16.910156 17.960938 16.914062 17.960938 16.917969 17.957031 C 16.917969 17.953125 16.921875 17.953125 16.921875 17.953125 C 17.304688 17.726562 17.601562 17.429688 17.816406 17.066406 C 18.058594 16.648438 18.179688 16.164062 18.179688 15.617188 C 18.105469 15.363281 18.050781 15.023438 17.941406 14.734375 Z M 13.449219 11.359375 C 13.609375 11.394531 13.746094 11.449219 13.863281 11.523438 C 14.089844 11.664062 14.203125 11.933594 14.203125 12.335938 C 14.203125 12.457031 14.1875 12.570312 14.160156 12.675781 L 13.449219 12.675781 Z M 14.421875 16.765625 L 13.445312 16.765625 L 13.445312 15.21875 C 13.714844 15.257812 13.933594 15.339844 14.109375 15.472656 C 14.351562 15.660156 14.472656 15.949219 14.472656 16.34375 C 14.472656 16.5 14.457031 16.640625 14.421875 16.765625 Z M 14.421875 16.765625 " fill-opacity="1" fill-rule="nonzero"/></g><g clip-path="url(#a3bea89166)"><path fill="#ffffff" d="M 11.261719 8.75 L 14.636719 8.75 C 15.199219 8.75 15.71875 8.828125 16.199219 8.984375 C 16.675781 9.136719 17.0625 9.386719 17.359375 9.738281 C 17.652344 10.085938 17.804688 10.558594 17.804688 11.152344 C 17.804688 11.546875 17.730469 11.894531 17.582031 12.203125 C 17.4375 12.511719 17.242188 12.761719 17.003906 12.957031 C 16.761719 13.152344 16.5 13.285156 16.214844 13.347656 C 16.464844 13.378906 16.707031 13.449219 16.941406 13.558594 C 17.179688 13.671875 17.390625 13.824219 17.582031 14.019531 C 17.773438 14.214844 17.925781 14.457031 18.035156 14.75 C 18.148438 15.039062 18.203125 15.378906 18.203125 15.777344 C 18.203125 16.328125 18.082031 16.8125 17.835938 17.234375 C 17.589844 17.652344 17.230469 17.976562 16.761719 18.214844 C 16.292969 18.449219 15.71875 18.566406 15.039062 18.566406 L 11.261719 18.566406 Z M 13.488281 12.683594 L 14.390625 12.683594 C 14.652344 12.683594 14.871094 12.636719 15.050781 12.539062 C 15.226562 12.445312 15.359375 12.3125 15.449219 12.140625 C 15.542969 11.972656 15.585938 11.773438 15.585938 11.550781 C 15.585938 11.152344 15.472656 10.878906 15.242188 10.738281 C 15.015625 10.597656 14.703125 10.527344 14.304688 10.527344 L 13.488281 10.527344 Z M 13.488281 16.785156 L 14.503906 16.785156 C 14.820312 16.785156 15.082031 16.734375 15.28125 16.636719 C 15.484375 16.539062 15.628906 16.402344 15.722656 16.222656 C 15.820312 16.039062 15.867188 15.824219 15.867188 15.570312 C 15.867188 15.175781 15.742188 14.882812 15.496094 14.699219 C 15.25 14.511719 14.90625 14.421875 14.464844 14.421875 L 13.488281 14.421875 Z M 13.488281 16.785156 " fill-opacity="1" fill-rule="nonzero"/><path fill="#191301" d="M 15.082031 18.675781 L 11.238281 18.675781 L 11.238281 8.726562 L 14.679688 8.726562 C 15.246094 8.726562 15.777344 8.804688 16.261719 8.960938 C 16.75 9.117188 17.152344 9.375 17.457031 9.734375 C 17.761719 10.097656 17.917969 10.585938 17.917969 11.195312 C 17.917969 11.597656 17.839844 11.957031 17.6875 12.273438 C 17.539062 12.589844 17.335938 12.851562 17.089844 13.050781 C 16.917969 13.1875 16.738281 13.296875 16.546875 13.371094 C 16.707031 13.410156 16.859375 13.464844 17.015625 13.539062 C 17.253906 13.652344 17.476562 13.8125 17.675781 14.011719 C 17.871094 14.214844 18.03125 14.464844 18.144531 14.765625 C 18.257812 15.0625 18.316406 15.414062 18.316406 15.816406 C 18.316406 16.378906 18.1875 16.878906 17.9375 17.304688 C 17.6875 17.734375 17.316406 18.074219 16.835938 18.3125 C 16.359375 18.550781 15.769531 18.675781 15.082031 18.675781 Z M 11.375 18.535156 L 15.082031 18.535156 C 15.75 18.535156 16.320312 18.421875 16.777344 18.191406 C 17.230469 17.960938 17.582031 17.640625 17.820312 17.238281 C 18.058594 16.832031 18.179688 16.355469 18.179688 15.820312 C 18.179688 15.433594 18.125 15.097656 18.019531 14.816406 C 17.910156 14.535156 17.761719 14.300781 17.578125 14.113281 C 17.394531 13.921875 17.1875 13.773438 16.960938 13.664062 C 16.734375 13.558594 16.496094 13.488281 16.253906 13.460938 L 15.855469 13.410156 L 16.25 13.324219 C 16.519531 13.261719 16.773438 13.136719 17.003906 12.945312 C 17.238281 12.757812 17.425781 12.511719 17.566406 12.214844 C 17.707031 11.917969 17.78125 11.574219 17.78125 11.195312 C 17.78125 10.621094 17.636719 10.160156 17.351562 9.824219 C 17.066406 9.488281 16.6875 9.242188 16.222656 9.089844 C 15.75 8.941406 15.230469 8.863281 14.679688 8.863281 L 11.375 8.863281 Z M 14.546875 16.898438 L 13.460938 16.898438 L 13.460938 14.394531 L 14.507812 14.394531 C 14.964844 14.394531 15.324219 14.496094 15.582031 14.6875 C 15.84375 14.886719 15.980469 15.199219 15.980469 15.613281 C 15.980469 15.875 15.929688 16.109375 15.832031 16.296875 C 15.730469 16.492188 15.570312 16.640625 15.355469 16.742188 C 15.144531 16.847656 14.871094 16.898438 14.546875 16.898438 Z M 13.605469 16.757812 L 14.546875 16.757812 C 14.855469 16.757812 15.105469 16.710938 15.296875 16.617188 C 15.480469 16.527344 15.621094 16.398438 15.707031 16.234375 C 15.792969 16.0625 15.839844 15.855469 15.839844 15.613281 C 15.839844 15.238281 15.730469 14.972656 15.5 14.796875 C 15.265625 14.621094 14.933594 14.535156 14.507812 14.535156 L 13.601562 14.535156 L 13.601562 16.757812 Z M 14.433594 12.796875 L 13.464844 12.796875 L 13.464844 10.5 L 14.351562 10.5 C 14.761719 10.5 15.089844 10.574219 15.328125 10.722656 C 15.574219 10.878906 15.703125 11.171875 15.703125 11.597656 C 15.703125 11.828125 15.65625 12.039062 15.558594 12.21875 C 15.460938 12.402344 15.3125 12.546875 15.125 12.644531 C 14.941406 12.746094 14.707031 12.796875 14.433594 12.796875 Z M 13.605469 12.65625 L 14.433594 12.65625 C 14.683594 12.65625 14.894531 12.613281 15.0625 12.523438 C 15.222656 12.4375 15.347656 12.3125 15.433594 12.152344 C 15.519531 11.996094 15.5625 11.808594 15.5625 11.597656 C 15.5625 11.222656 15.460938 10.96875 15.253906 10.839844 C 15.039062 10.707031 14.734375 10.640625 14.351562 10.640625 L 13.605469 10.640625 Z M 13.605469 12.65625 " fill-opacity="1" fill-rule="nonzero"/></g></svg>