<svg xmlns="http://www.w3.org/2000/svg" xmlns:xlink="http://www.w3.org/1999/xlink" width="500" zoomAndPan="magnify" viewBox="0 0 375 374.999991" height="500" preserveAspectRatio="xMidYMid meet" version="1.0"><defs><clipPath id="d29ec416f0"><path d="M 112.5 112.5 L 262.5 112.5 L 262.5 262.5 L 112.5 262.5 Z M 112.5 112.5 " clip-rule="nonzero"/></clipPath></defs><g clip-path="url(#d29ec416f0)"><path fill="#ffffff" d="M 187.5 112.5 C 146.078125 112.5 112.5 146.078125 112.5 187.5 C 112.5 228.921875 146.078125 262.5 187.5 262.5 C 228.921875 262.5 262.5 228.921875 262.5 187.5 C 262.5 146.078125 228.921875 112.5 187.5 112.5 Z M 201.824219 231.703125 C 199.53125 232.148438 198.710938 230.738281 198.710938 229.523438 C 198.710938 228.03125 198.773438 223.140625 198.773438 217.066406 C 198.773438 212.828125 197.324219 210.058594 195.703125 208.65625 C 205.777344 207.53125 216.359375 203.691406 216.359375 186.246094 C 216.359375 181.289062 214.613281 177.234375 211.710938 174.058594 C 212.175781 172.914062 213.726562 168.292969 211.261719 162.046875 C 211.261719 162.046875 207.472656 160.824219 198.832031 166.703125 C 195.21875 165.699219 191.347656 165.195312 187.507812 165.171875 C 183.660156 165.195312 179.789062 165.699219 176.183594 166.703125 C 167.542969 160.828125 163.746094 162.046875 163.746094 162.046875 C 161.289062 168.300781 162.839844 172.914062 163.304688 174.058594 C 160.410156 177.234375 158.648438 181.289062 158.648438 186.246094 C 158.648438 203.648438 169.207031 207.539062 179.25 208.6875 C 177.960938 209.820312 176.789062 211.824219 176.378906 214.753906 C 173.796875 215.917969 167.25 217.921875 163.214844 210.984375 C 163.214844 210.984375 160.828125 206.625 156.292969 206.300781 C 156.292969 206.300781 151.875 206.242188 155.984375 209.0625 C 155.984375 209.0625 158.949219 210.457031 161.003906 215.707031 C 161.003906 215.707031 163.65625 224.542969 176.242188 221.796875 C 176.265625 225.585938 176.300781 228.441406 176.300781 229.523438 C 176.300781 230.722656 175.476562 232.125 173.210938 231.710938 C 155.234375 225.703125 142.273438 208.6875 142.273438 188.625 C 142.273438 163.539062 162.523438 143.210938 187.507812 143.210938 C 212.488281 143.210938 232.738281 163.546875 232.738281 188.625 C 232.738281 208.679688 219.796875 225.691406 201.832031 231.703125 Z M 201.824219 231.703125 " fill-opacity="1" fill-rule="nonzero"/></g></svg>