<svg xmlns="http://www.w3.org/2000/svg" xmlns:xlink="http://www.w3.org/1999/xlink" width="500" zoomAndPan="magnify" viewBox="0 0 375 374.999991" height="500" preserveAspectRatio="xMidYMid meet" version="1.0"><defs><clipPath id="d61a249dfc"><path d="M 107.625 118 L 265.875 118 L 265.875 298.355469 L 107.625 298.355469 Z M 107.625 118 " clip-rule="nonzero"/></clipPath><clipPath id="fe04e7a670"><path d="M 122 74.855469 L 152 74.855469 L 152 105 L 122 105 Z M 122 74.855469 " clip-rule="nonzero"/></clipPath><clipPath id="02fc0bd5b7"><path d="M 156 74.855469 L 184 74.855469 L 184 105 L 156 105 Z M 156 74.855469 " clip-rule="nonzero"/></clipPath><clipPath id="14bbe8d1f4"><path d="M 188 74.855469 L 223 74.855469 L 223 105 L 188 105 Z M 188 74.855469 " clip-rule="nonzero"/></clipPath><clipPath id="9849596fa1"><path d="M 227 74.855469 L 252 74.855469 L 252 105 L 227 105 Z M 227 74.855469 " clip-rule="nonzero"/></clipPath></defs><g clip-path="url(#d61a249dfc)"><path fill="#e44d26" d="M 265.832031 118.777344 L 251.429688 280.371094 L 186.679688 298.34375 L 122.113281 280.394531 L 107.722656 118.777344 L 265.828125 118.773438 L 265.835938 118.773438 Z M 265.832031 118.777344 " fill-opacity="1" fill-rule="nonzero"/></g><path fill="#f16529" d="M 186.78125 284.605469 L 239.101562 270.082031 L 251.410156 131.992188 L 186.78125 131.988281 Z M 186.78125 284.605469 " fill-opacity="1" fill-rule="nonzero"/><path fill="#ebebeb" d="M 158.777344 171.632812 L 186.78125 171.632812 L 186.78125 151.808594 L 137.144531 151.808594 L 137.621094 157.128906 L 142.484375 211.753906 L 186.78125 211.753906 L 186.78125 191.933594 L 160.585938 191.933594 Z M 158.777344 171.632812 " fill-opacity="1" fill-rule="nonzero"/><path fill="#ebebeb" d="M 163.238281 221.664062 L 143.367188 221.664062 L 146.140625 252.792969 L 186.6875 264.0625 L 186.78125 264.039062 L 186.78125 243.414062 L 186.691406 243.4375 L 164.648438 237.472656 Z M 163.238281 221.664062 " fill-opacity="1" fill-rule="nonzero"/><g clip-path="url(#fe04e7a670)"><path fill="#000000" d="M 122.433594 74.855469 L 132.492188 74.855469 L 132.492188 84.804688 L 141.695312 84.804688 L 141.695312 74.855469 L 151.753906 74.855469 L 151.753906 104.992188 L 141.695312 104.992188 L 141.695312 94.898438 L 132.492188 94.898438 L 132.492188 104.992188 L 122.433594 104.992188 Z M 122.433594 74.855469 " fill-opacity="1" fill-rule="nonzero"/></g><g clip-path="url(#02fc0bd5b7)"><path fill="#000000" d="M 164.984375 84.847656 L 156.128906 84.847656 L 156.128906 74.855469 L 183.902344 74.855469 L 183.902344 84.847656 L 175.039062 84.847656 L 175.039062 104.992188 L 164.984375 104.992188 Z M 164.984375 84.847656 " fill-opacity="1" fill-rule="nonzero"/></g><g clip-path="url(#14bbe8d1f4)"><path fill="#000000" d="M 188.308594 74.855469 L 198.796875 74.855469 L 205.25 85.445312 L 211.695312 74.855469 L 222.1875 74.855469 L 222.1875 104.992188 L 212.171875 104.992188 L 212.171875 90.054688 L 205.25 100.769531 L 205.074219 100.769531 L 198.152344 90.054688 L 198.152344 104.992188 L 188.308594 104.992188 Z M 188.308594 74.855469 " fill-opacity="1" fill-rule="nonzero"/></g><g clip-path="url(#9849596fa1)"><path fill="#000000" d="M 227.195312 74.855469 L 237.253906 74.855469 L 237.253906 95.03125 L 251.402344 95.03125 L 251.402344 104.992188 L 227.195312 104.992188 Z M 227.195312 74.855469 " fill-opacity="1" fill-rule="nonzero"/></g><path fill="#ffffff" d="M 186.710938 211.753906 L 211.085938 211.753906 L 208.789062 237.460938 L 186.710938 243.429688 L 186.710938 264.050781 L 227.289062 252.792969 L 227.585938 249.441406 L 232.242188 197.253906 L 232.722656 191.933594 L 186.710938 191.933594 Z M 186.710938 211.753906 " fill-opacity="1" fill-rule="nonzero"/><path fill="#ffffff" d="M 186.710938 171.582031 L 186.710938 171.632812 L 234.519531 171.632812 L 234.917969 167.175781 L 235.824219 157.128906 L 236.292969 151.808594 L 186.710938 151.808594 Z M 186.710938 171.582031 " fill-opacity="1" fill-rule="nonzero"/></svg>