<svg xmlns="http://www.w3.org/2000/svg" xmlns:xlink="http://www.w3.org/1999/xlink" width="500" zoomAndPan="magnify" viewBox="0 0 375 374.999991" height="500" preserveAspectRatio="xMidYMid meet" version="1.0"><defs><clipPath id="139bf07a8d"><path d="M 121 63.207031 L 248 63.207031 L 248 311.457031 L 121 311.457031 Z M 121 63.207031 " clip-rule="nonzero"/></clipPath></defs><path fill="#4e7896" d="M 165.640625 194.859375 C 165.640625 194.859375 159.085938 198.839844 170.203125 199.976562 C 183.59375 201.683594 190.71875 201.398438 205.539062 198.554688 C 205.539062 198.554688 209.527344 201.113281 214.941406 203.105469 C 181.601562 217.320312 139.421875 202.25 165.644531 194.859375 Z M 161.367188 176.375 C 161.367188 176.375 154.242188 181.777344 165.355469 182.917969 C 179.890625 184.339844 191.289062 184.621094 210.953125 180.640625 C 210.953125 180.640625 213.515625 183.484375 217.792969 184.90625 C 177.609375 196.851562 132.582031 186.042969 161.367188 176.378906 Z M 240.019531 208.789062 C 240.019531 208.789062 244.863281 212.769531 234.605469 215.898438 C 215.511719 221.582031 154.53125 223.289062 137.429688 215.898438 C 131.445312 213.339844 142.84375 209.640625 146.550781 209.074219 C 150.253906 208.21875 152.25 208.21875 152.25 208.21875 C 145.695312 203.671875 108.648438 217.601562 133.441406 221.582031 C 201.546875 232.671875 257.6875 216.75 240.019531 208.789062 Z M 168.777344 157.039062 C 168.777344 157.039062 137.71875 164.429688 157.664062 166.992188 C 166.214844 168.128906 183.027344 167.84375 198.699219 166.707031 C 211.523438 165.570312 224.347656 163.292969 224.347656 163.292969 C 224.347656 163.292969 219.789062 165.285156 216.652344 167.273438 C 185.023438 175.519531 124.324219 171.824219 141.707031 163.292969 C 156.523438 156.183594 168.777344 157.039062 168.777344 157.039062 Z M 224.347656 188.03125 C 256.261719 171.539062 241.445312 155.617188 231.1875 157.609375 C 228.621094 158.175781 227.480469 158.746094 227.480469 158.746094 C 227.480469 158.746094 228.335938 157.039062 230.332031 156.46875 C 250.5625 149.359375 266.523438 177.792969 223.777344 188.882812 C 223.777344 188.882812 224.0625 188.597656 224.347656 188.03125 Z M 171.914062 232.957031 C 202.6875 234.949219 249.703125 231.820312 250.851562 217.320312 C 250.851562 217.320312 248.570312 223.003906 225.488281 227.269531 C 199.273438 232.105469 166.785156 231.535156 147.699219 228.40625 C 147.699219 228.40625 151.6875 231.820312 171.921875 232.957031 Z M 171.914062 232.957031 " fill-opacity="1" fill-rule="nonzero"/><g clip-path="url(#139bf07a8d)"><path fill="#f58219" d="M 204.96875 63.207031 C 204.96875 63.207031 222.632812 81.121094 188.152344 108.132812 C 160.511719 130.027344 181.882812 142.539062 188.152344 156.753906 C 171.910156 142.253906 160.226562 129.457031 168.207031 117.515625 C 179.890625 99.886719 212.09375 91.363281 204.96875 63.207031 Z M 195.855469 144.8125 C 204.117188 154.199219 193.574219 162.726562 193.574219 162.726562 C 193.574219 162.726562 214.660156 151.921875 204.972656 138.558594 C 196.136719 125.765625 189.300781 119.507812 226.34375 98.1875 C 226.34375 98.1875 167.925781 112.691406 195.851562 144.820312 Z M 174.761719 297.5 L 174.761719 269.636719 C 174.761719 262.527344 170.773438 257.691406 160.796875 257.691406 C 155.097656 257.691406 150.253906 259.113281 145.980469 260.816406 L 147.40625 265.933594 C 150.535156 264.796875 154.53125 263.65625 158.804688 263.65625 C 164.21875 263.65625 166.78125 265.933594 166.78125 270.480469 L 166.78125 274.179688 L 163.933594 274.179688 C 150.253906 274.179688 143.984375 279.296875 143.984375 287.542969 C 143.984375 294.367188 148.261719 298.347656 155.953125 298.347656 C 160.800781 298.347656 164.503906 296.074219 167.921875 293.230469 L 168.492188 297.492188 L 174.761719 297.492188 Z M 166.78125 288.402344 C 163.933594 290.960938 160.796875 292.382812 157.949219 292.382812 C 154.242188 292.382812 151.964844 290.105469 151.964844 286.125 C 151.964844 282.144531 154.242188 279.300781 163.363281 279.300781 L 166.78125 279.300781 Z M 201.550781 297.5 L 191.574219 297.5 L 179.609375 258.546875 L 188.15625 258.546875 L 195.566406 282.429688 L 197.277344 289.539062 C 200.980469 279.300781 203.832031 268.78125 204.96875 258.546875 L 213.519531 258.546875 C 211.238281 271.339844 207.25 285.273438 201.550781 297.5 Z M 247.714844 297.5 L 247.714844 269.636719 C 247.714844 262.527344 243.722656 257.691406 233.75 257.691406 C 228.050781 257.691406 223.207031 259.113281 218.929688 260.816406 L 220.070312 265.933594 C 223.492188 264.796875 227.480469 263.65625 231.753906 263.65625 C 237.171875 263.65625 239.734375 265.933594 239.734375 270.480469 L 239.734375 274.179688 L 236.886719 274.179688 C 223.207031 274.179688 216.9375 279.296875 216.9375 287.542969 C 216.9375 294.367188 220.925781 298.347656 228.621094 298.347656 C 233.75 298.347656 237.457031 296.074219 240.875 293.230469 L 241.445312 297.492188 L 247.714844 297.492188 Z M 239.734375 288.402344 C 236.886719 290.960938 233.75 292.382812 230.898438 292.382812 C 227.195312 292.382812 224.917969 290.105469 224.917969 286.125 C 224.917969 282.144531 227.195312 279.300781 236.316406 279.300781 L 239.734375 279.300781 Z M 135.152344 304.039062 C 132.875 307.453125 129.453125 310.011719 125.179688 311.433594 L 121.472656 306.886719 C 124.320312 305.179688 127.171875 302.621094 128.3125 300.347656 C 129.453125 298.355469 129.738281 295.511719 129.738281 288.972656 L 129.738281 244.617188 L 138.285156 244.617188 L 138.285156 288.40625 C 138.285156 297.21875 137.429688 300.632812 135.15625 304.042969 Z M 135.152344 304.039062 " fill-opacity="1" fill-rule="nonzero"/></g></svg>