<svg xmlns="http://www.w3.org/2000/svg" xmlns:xlink="http://www.w3.org/1999/xlink" width="500" zoomAndPan="magnify" viewBox="0 0 375 374.999991" height="500" preserveAspectRatio="xMidYMid meet" version="1.0"><defs><clipPath id="bbf944611f"><path d="M 108.320312 108.320312 L 266.570312 108.320312 L 266.570312 266.570312 L 108.320312 266.570312 Z M 108.320312 108.320312 " clip-rule="nonzero"/></clipPath></defs><g clip-path="url(#bbf944611f)"><path fill="#f7df1e" d="M 108.320312 108.320312 L 266.570312 108.320312 L 266.570312 266.570312 L 108.320312 266.570312 Z M 108.320312 108.320312 " fill-opacity="1" fill-rule="nonzero"/></g><path fill="#000000" d="M 149.933594 240.566406 L 162.042969 233.242188 C 164.378906 237.382812 166.503906 240.886719 171.605469 240.886719 C 176.488281 240.886719 179.570312 238.972656 179.570312 231.539062 L 179.570312 180.976562 L 194.4375 180.976562 L 194.4375 231.75 C 194.4375 247.148438 185.414062 254.164062 172.242188 254.164062 C 160.34375 254.164062 153.4375 248.003906 149.929688 240.566406 " fill-opacity="1" fill-rule="nonzero"/><path fill="#000000" d="M 202.519531 238.972656 L 214.628906 231.960938 C 217.816406 237.167969 221.960938 240.992188 229.285156 240.992188 C 235.449219 240.992188 239.378906 237.914062 239.378906 233.660156 C 239.378906 228.5625 235.34375 226.757812 228.542969 223.78125 L 224.828125 222.1875 C 214.097656 217.621094 206.980469 211.890625 206.980469 199.773438 C 206.980469 188.621094 215.476562 180.121094 228.757812 180.121094 C 238.210938 180.121094 245.011719 183.417969 249.894531 192.023438 L 238.316406 199.457031 C 235.769531 194.890625 233.007812 193.085938 228.757812 193.085938 C 224.402344 193.085938 221.636719 195.847656 221.636719 199.457031 C 221.636719 203.921875 224.402344 205.726562 230.773438 208.488281 L 234.488281 210.078125 C 247.132812 215.5 254.253906 221.019531 254.253906 233.449219 C 254.253906 246.835938 243.738281 254.164062 229.605469 254.164062 C 215.796875 254.164062 206.875 247.574219 202.519531 238.972656 " fill-opacity="1" fill-rule="nonzero"/></svg>