<svg xmlns="http://www.w3.org/2000/svg" xmlns:xlink="http://www.w3.org/1999/xlink" width="1920" zoomAndPan="magnify" viewBox="0 0 1440 809.999993" height="1080" preserveAspectRatio="xMidYMid meet" version="1.0"><defs><clipPath id="84f63d2f53"><path d="M 54.015625 86 L 207.765625 86 L 207.765625 260.449219 L 54.015625 260.449219 Z M 54.015625 86 " clip-rule="nonzero"/></clipPath><clipPath id="813a170878"><path d="M 68 43.699219 L 97 43.699219 L 97 73 L 68 73 Z M 68 43.699219 " clip-rule="nonzero"/></clipPath><clipPath id="2c3b35c3be"><path d="M 101 43.699219 L 129 43.699219 L 129 73 L 101 73 Z M 101 43.699219 " clip-rule="nonzero"/></clipPath><clipPath id="af2208918f"><path d="M 132 43.699219 L 166 43.699219 L 166 73 L 132 73 Z M 132 43.699219 " clip-rule="nonzero"/></clipPath><clipPath id="ea8041d76e"><path d="M 170 43.699219 L 194 43.699219 L 194 73 L 170 73 Z M 170 43.699219 " clip-rule="nonzero"/></clipPath><clipPath id="14fc013bb3"><path d="M 348 430 L 456 430 L 456 482.90625 L 348 482.90625 Z M 348 430 " clip-rule="nonzero"/></clipPath><clipPath id="7c02ce4985"><path d="M 1178 294.238281 L 1301 294.238281 L 1301 534.238281 L 1178 534.238281 Z M 1178 294.238281 " clip-rule="nonzero"/></clipPath><clipPath id="16262a0b6e"><path d="M 405 85 L 556.472656 85 L 556.472656 256.699219 L 405 256.699219 Z M 405 85 " clip-rule="nonzero"/></clipPath><clipPath id="3834157ea8"><path d="M 440 43.699219 L 464 43.699219 L 464 73 L 440 73 Z M 440 43.699219 " clip-rule="nonzero"/></clipPath><clipPath id="1f574cba97"><path d="M 468 43.699219 L 492 43.699219 L 492 73 L 468 73 Z M 468 43.699219 " clip-rule="nonzero"/></clipPath><clipPath id="458defea73"><path d="M 495 43.699219 L 519 43.699219 L 519 73 L 495 73 Z M 495 43.699219 " clip-rule="nonzero"/></clipPath><clipPath id="030950fe90"><path d="M 44.308594 312.488281 L 264.058594 312.488281 L 264.058594 532.238281 L 44.308594 532.238281 Z M 44.308594 312.488281 " clip-rule="nonzero"/></clipPath><clipPath id="8493e335be"><path d="M 767.449219 39.472656 L 978.199219 39.472656 L 978.199219 250.222656 L 767.449219 250.222656 Z M 767.449219 39.472656 " clip-rule="nonzero"/></clipPath><clipPath id="bbfec479a4"><path d="M 1151.660156 42.792969 L 1358.660156 42.792969 L 1358.660156 249.792969 L 1151.660156 249.792969 Z M 1151.660156 42.792969 " clip-rule="nonzero"/></clipPath><clipPath id="aa2a4f7593"><path d="M 1184.746094 42.527344 L 1324.691406 42.527344 C 1325.785156 42.527344 1326.875 42.582031 1327.964844 42.6875 C 1329.054688 42.796875 1330.132812 42.957031 1331.207031 43.167969 C 1332.277344 43.382812 1333.339844 43.648438 1334.386719 43.964844 C 1335.433594 44.28125 1336.460938 44.648438 1337.472656 45.066406 C 1338.480469 45.484375 1339.46875 45.949219 1340.433594 46.464844 C 1341.398438 46.980469 1342.335938 47.539062 1343.246094 48.148438 C 1344.152344 48.753906 1345.03125 49.402344 1345.875 50.097656 C 1346.722656 50.789062 1347.53125 51.523438 1348.304688 52.292969 C 1349.078125 53.066406 1349.8125 53.875 1350.507812 54.71875 C 1351.199219 55.5625 1351.851562 56.4375 1352.457031 57.347656 C 1353.066406 58.253906 1353.628906 59.191406 1354.144531 60.152344 C 1354.660156 61.117188 1355.125 62.101562 1355.542969 63.109375 C 1355.960938 64.121094 1356.332031 65.148438 1356.648438 66.191406 C 1356.964844 67.238281 1357.230469 68.292969 1357.445312 69.367188 C 1357.65625 70.4375 1357.820312 71.515625 1357.925781 72.601562 C 1358.03125 73.6875 1358.085938 74.777344 1358.085938 75.871094 L 1358.085938 216.445312 C 1358.085938 217.535156 1358.03125 218.625 1357.925781 219.710938 C 1357.820312 220.800781 1357.65625 221.878906 1357.445312 222.949219 C 1357.230469 224.019531 1356.964844 225.078125 1356.648438 226.121094 C 1356.332031 227.167969 1355.960938 228.195312 1355.542969 229.203125 C 1355.125 230.210938 1354.660156 231.199219 1354.144531 232.160156 C 1353.628906 233.125 1353.066406 234.058594 1352.457031 234.96875 C 1351.851562 235.875 1351.199219 236.75 1350.507812 237.597656 C 1349.8125 238.441406 1349.078125 239.25 1348.304688 240.019531 C 1347.53125 240.792969 1346.722656 241.523438 1345.875 242.21875 C 1345.03125 242.910156 1344.152344 243.558594 1343.246094 244.167969 C 1342.335938 244.773438 1341.398438 245.335938 1340.433594 245.847656 C 1339.46875 246.363281 1338.480469 246.828125 1337.472656 247.246094 C 1336.460938 247.664062 1335.433594 248.03125 1334.386719 248.351562 C 1333.339844 248.667969 1332.277344 248.933594 1331.207031 249.144531 C 1330.132812 249.359375 1329.054688 249.519531 1327.964844 249.625 C 1326.875 249.730469 1325.785156 249.785156 1324.691406 249.785156 L 1184.746094 249.785156 C 1183.652344 249.785156 1182.5625 249.730469 1181.472656 249.625 C 1180.386719 249.519531 1179.304688 249.359375 1178.230469 249.144531 C 1177.160156 248.933594 1176.101562 248.667969 1175.054688 248.351562 C 1174.007812 248.035156 1172.976562 247.664062 1171.96875 247.246094 C 1170.957031 246.832031 1169.96875 246.363281 1169.003906 245.847656 C 1168.039062 245.335938 1167.101562 244.773438 1166.195312 244.167969 C 1165.285156 243.558594 1164.40625 242.910156 1163.5625 242.21875 C 1162.714844 241.523438 1161.90625 240.792969 1161.132812 240.019531 C 1160.359375 239.25 1159.625 238.441406 1158.933594 237.597656 C 1158.238281 236.75 1157.585938 235.875 1156.980469 234.96875 C 1156.371094 234.058594 1155.8125 233.125 1155.296875 232.160156 C 1154.78125 231.199219 1154.3125 230.210938 1153.894531 229.203125 C 1153.476562 228.195312 1153.109375 227.167969 1152.789062 226.121094 C 1152.472656 225.078125 1152.207031 224.019531 1151.992188 222.949219 C 1151.78125 221.878906 1151.621094 220.800781 1151.511719 219.710938 C 1151.40625 218.625 1151.351562 217.535156 1151.351562 216.445312 L 1151.351562 75.871094 C 1151.351562 74.777344 1151.40625 73.6875 1151.511719 72.601562 C 1151.621094 71.515625 1151.78125 70.4375 1151.992188 69.367188 C 1152.207031 68.292969 1152.472656 67.238281 1152.789062 66.191406 C 1153.109375 65.148438 1153.476562 64.121094 1153.894531 63.109375 C 1154.3125 62.101562 1154.78125 61.117188 1155.296875 60.152344 C 1155.8125 59.191406 1156.371094 58.253906 1156.980469 57.347656 C 1157.589844 56.4375 1158.238281 55.5625 1158.933594 54.71875 C 1159.625 53.875 1160.359375 53.066406 1161.132812 52.292969 C 1161.90625 51.523438 1162.714844 50.789062 1163.5625 50.097656 C 1164.40625 49.402344 1165.285156 48.753906 1166.195312 48.148438 C 1167.101562 47.539062 1168.039062 46.980469 1169.003906 46.464844 C 1169.96875 45.949219 1170.957031 45.484375 1171.96875 45.066406 C 1172.976562 44.648438 1174.007812 44.28125 1175.054688 43.964844 C 1176.101562 43.648438 1177.160156 43.382812 1178.230469 43.167969 C 1179.304688 42.957031 1180.386719 42.796875 1181.472656 42.6875 C 1182.5625 42.582031 1183.652344 42.527344 1184.746094 42.527344 Z M 1184.746094 42.527344 " clip-rule="nonzero"/></clipPath><linearGradient x1="255.753613" gradientTransform="matrix(1.614859, 0, 0, 1.612271, 739.1756, -643.218914)" y1="554.196369" x2="382.744478" gradientUnits="userSpaceOnUse" y2="424.986868" id="97a82164bb"><stop stop-opacity="1" stop-color="rgb(2.69928%, 0.39978%, 20.799255%)" offset="0"/><stop stop-opacity="1" stop-color="rgb(2.867126%, 0.480652%, 20.849609%)" offset="0.0625"/><stop stop-opacity="1" stop-color="rgb(3.189087%, 0.637817%, 20.94574%)" offset="0.0703125"/><stop stop-opacity="1" stop-color="rgb(3.500366%, 0.788879%, 21.038818%)" offset="0.078125"/><stop stop-opacity="1" stop-color="rgb(3.81012%, 0.939941%, 21.131897%)" offset="0.0859375"/><stop stop-opacity="1" stop-color="rgb(4.121399%, 1.091003%, 21.224976%)" offset="0.09375"/><stop stop-opacity="1" stop-color="rgb(4.431152%, 1.243591%, 21.31958%)" offset="0.101562"/><stop stop-opacity="1" stop-color="rgb(4.742432%, 1.394653%, 21.412659%)" offset="0.109375"/><stop stop-opacity="1" stop-color="rgb(5.052185%, 1.545715%, 21.505737%)" offset="0.117188"/><stop stop-opacity="1" stop-color="rgb(5.363464%, 1.696777%, 21.598816%)" offset="0.125"/><stop stop-opacity="1" stop-color="rgb(5.674744%, 1.847839%, 21.691895%)" offset="0.132813"/><stop stop-opacity="1" stop-color="rgb(5.984497%, 1.998901%, 21.784973%)" offset="0.140625"/><stop stop-opacity="1" stop-color="rgb(6.295776%, 2.151489%, 21.878052%)" offset="0.148438"/><stop stop-opacity="1" stop-color="rgb(6.60553%, 2.302551%, 21.97113%)" offset="0.15625"/><stop stop-opacity="1" stop-color="rgb(6.916809%, 2.453613%, 22.065735%)" offset="0.164062"/><stop stop-opacity="1" stop-color="rgb(7.226562%, 2.604675%, 22.158813%)" offset="0.171875"/><stop stop-opacity="1" stop-color="rgb(7.537842%, 2.755737%, 22.251892%)" offset="0.179688"/><stop stop-opacity="1" stop-color="rgb(7.847595%, 2.908325%, 22.344971%)" offset="0.1875"/><stop stop-opacity="1" stop-color="rgb(8.158875%, 3.059387%, 22.438049%)" offset="0.195312"/><stop stop-opacity="1" stop-color="rgb(8.468628%, 3.210449%, 22.531128%)" offset="0.203125"/><stop stop-opacity="1" stop-color="rgb(8.779907%, 3.361511%, 22.624207%)" offset="0.210938"/><stop stop-opacity="1" stop-color="rgb(9.091187%, 3.512573%, 22.717285%)" offset="0.21875"/><stop stop-opacity="1" stop-color="rgb(9.40094%, 3.663635%, 22.810364%)" offset="0.226563"/><stop stop-opacity="1" stop-color="rgb(9.712219%, 3.816223%, 22.904968%)" offset="0.234375"/><stop stop-opacity="1" stop-color="rgb(10.021973%, 3.967285%, 22.998047%)" offset="0.242188"/><stop stop-opacity="1" stop-color="rgb(10.333252%, 4.118347%, 23.091125%)" offset="0.25"/><stop stop-opacity="1" stop-color="rgb(10.643005%, 4.269409%, 23.184204%)" offset="0.257812"/><stop stop-opacity="1" stop-color="rgb(10.954285%, 4.420471%, 23.277283%)" offset="0.265625"/><stop stop-opacity="1" stop-color="rgb(11.264038%, 4.571533%, 23.370361%)" offset="0.273438"/><stop stop-opacity="1" stop-color="rgb(11.575317%, 4.724121%, 23.46344%)" offset="0.28125"/><stop stop-opacity="1" stop-color="rgb(11.885071%, 4.875183%, 23.556519%)" offset="0.289062"/><stop stop-opacity="1" stop-color="rgb(12.19635%, 5.026245%, 23.651123%)" offset="0.296875"/><stop stop-opacity="1" stop-color="rgb(12.507629%, 5.177307%, 23.744202%)" offset="0.304688"/><stop stop-opacity="1" stop-color="rgb(12.817383%, 5.328369%, 23.83728%)" offset="0.3125"/><stop stop-opacity="1" stop-color="rgb(13.128662%, 5.480957%, 23.930359%)" offset="0.320312"/><stop stop-opacity="1" stop-color="rgb(13.438416%, 5.632019%, 24.023438%)" offset="0.328125"/><stop stop-opacity="1" stop-color="rgb(13.749695%, 5.783081%, 24.116516%)" offset="0.335937"/><stop stop-opacity="1" stop-color="rgb(14.059448%, 5.934143%, 24.209595%)" offset="0.34375"/><stop stop-opacity="1" stop-color="rgb(14.370728%, 6.085205%, 24.302673%)" offset="0.351563"/><stop stop-opacity="1" stop-color="rgb(14.680481%, 6.236267%, 24.397278%)" offset="0.359375"/><stop stop-opacity="1" stop-color="rgb(14.99176%, 6.388855%, 24.490356%)" offset="0.367188"/><stop stop-opacity="1" stop-color="rgb(15.301514%, 6.539917%, 24.583435%)" offset="0.375"/><stop stop-opacity="1" stop-color="rgb(15.612793%, 6.690979%, 24.676514%)" offset="0.382812"/><stop stop-opacity="1" stop-color="rgb(15.924072%, 6.842041%, 24.769592%)" offset="0.390625"/><stop stop-opacity="1" stop-color="rgb(16.233826%, 6.993103%, 24.862671%)" offset="0.398438"/><stop stop-opacity="1" stop-color="rgb(16.545105%, 7.144165%, 24.95575%)" offset="0.40625"/><stop stop-opacity="1" stop-color="rgb(16.854858%, 7.296753%, 25.048828%)" offset="0.414062"/><stop stop-opacity="1" stop-color="rgb(17.166138%, 7.447815%, 25.143433%)" offset="0.421875"/><stop stop-opacity="1" stop-color="rgb(17.475891%, 7.598877%, 25.236511%)" offset="0.429687"/><stop stop-opacity="1" stop-color="rgb(17.78717%, 7.749939%, 25.32959%)" offset="0.4375"/><stop stop-opacity="1" stop-color="rgb(18.096924%, 7.901001%, 25.422668%)" offset="0.445313"/><stop stop-opacity="1" stop-color="rgb(18.408203%, 8.053589%, 25.515747%)" offset="0.453125"/><stop stop-opacity="1" stop-color="rgb(18.717957%, 8.204651%, 25.608826%)" offset="0.460938"/><stop stop-opacity="1" stop-color="rgb(19.029236%, 8.355713%, 25.701904%)" offset="0.46875"/><stop stop-opacity="1" stop-color="rgb(19.340515%, 8.506775%, 25.794983%)" offset="0.476562"/><stop stop-opacity="1" stop-color="rgb(19.650269%, 8.657837%, 25.888062%)" offset="0.484375"/><stop stop-opacity="1" stop-color="rgb(19.961548%, 8.808899%, 25.982666%)" offset="0.492188"/><stop stop-opacity="1" stop-color="rgb(20.271301%, 8.961487%, 26.075745%)" offset="0.494581"/><stop stop-opacity="1" stop-color="rgb(20.426941%, 9.037781%, 26.123047%)" offset="0.5"/><stop stop-opacity="1" stop-color="rgb(20.582581%, 9.112549%, 26.168823%)" offset="0.505419"/><stop stop-opacity="1" stop-color="rgb(20.73822%, 9.188843%, 26.216125%)" offset="0.507813"/><stop stop-opacity="1" stop-color="rgb(20.892334%, 9.263611%, 26.261902%)" offset="0.515625"/><stop stop-opacity="1" stop-color="rgb(21.203613%, 9.414673%, 26.35498%)" offset="0.523438"/><stop stop-opacity="1" stop-color="rgb(21.513367%, 9.565735%, 26.448059%)" offset="0.53125"/><stop stop-opacity="1" stop-color="rgb(21.824646%, 9.718323%, 26.541138%)" offset="0.539063"/><stop stop-opacity="1" stop-color="rgb(22.134399%, 9.869385%, 26.634216%)" offset="0.546875"/><stop stop-opacity="1" stop-color="rgb(22.445679%, 10.020447%, 26.728821%)" offset="0.554688"/><stop stop-opacity="1" stop-color="rgb(22.756958%, 10.171509%, 26.821899%)" offset="0.5625"/><stop stop-opacity="1" stop-color="rgb(23.066711%, 10.322571%, 26.914978%)" offset="0.570312"/><stop stop-opacity="1" stop-color="rgb(23.377991%, 10.473633%, 27.008057%)" offset="0.578125"/><stop stop-opacity="1" stop-color="rgb(23.687744%, 10.626221%, 27.101135%)" offset="0.585938"/><stop stop-opacity="1" stop-color="rgb(23.999023%, 10.777283%, 27.194214%)" offset="0.59375"/><stop stop-opacity="1" stop-color="rgb(24.308777%, 10.928345%, 27.287292%)" offset="0.601562"/><stop stop-opacity="1" stop-color="rgb(24.620056%, 11.079407%, 27.380371%)" offset="0.609375"/><stop stop-opacity="1" stop-color="rgb(24.92981%, 11.230469%, 27.474976%)" offset="0.617188"/><stop stop-opacity="1" stop-color="rgb(25.241089%, 11.381531%, 27.568054%)" offset="0.625"/><stop stop-opacity="1" stop-color="rgb(25.550842%, 11.534119%, 27.661133%)" offset="0.632812"/><stop stop-opacity="1" stop-color="rgb(25.862122%, 11.685181%, 27.754211%)" offset="0.640625"/><stop stop-opacity="1" stop-color="rgb(26.173401%, 11.836243%, 27.84729%)" offset="0.648438"/><stop stop-opacity="1" stop-color="rgb(26.483154%, 11.987305%, 27.940369%)" offset="0.65625"/><stop stop-opacity="1" stop-color="rgb(26.794434%, 12.138367%, 28.033447%)" offset="0.664062"/><stop stop-opacity="1" stop-color="rgb(27.104187%, 12.290955%, 28.126526%)" offset="0.671875"/><stop stop-opacity="1" stop-color="rgb(27.415466%, 12.442017%, 28.22113%)" offset="0.679687"/><stop stop-opacity="1" stop-color="rgb(27.72522%, 12.593079%, 28.314209%)" offset="0.6875"/><stop stop-opacity="1" stop-color="rgb(28.036499%, 12.744141%, 28.407288%)" offset="0.695313"/><stop stop-opacity="1" stop-color="rgb(28.346252%, 12.895203%, 28.500366%)" offset="0.703125"/><stop stop-opacity="1" stop-color="rgb(28.657532%, 13.046265%, 28.593445%)" offset="0.710938"/><stop stop-opacity="1" stop-color="rgb(28.967285%, 13.198853%, 28.686523%)" offset="0.71875"/><stop stop-opacity="1" stop-color="rgb(29.278564%, 13.349915%, 28.779602%)" offset="0.726563"/><stop stop-opacity="1" stop-color="rgb(29.589844%, 13.500977%, 28.872681%)" offset="0.734375"/><stop stop-opacity="1" stop-color="rgb(29.899597%, 13.652039%, 28.967285%)" offset="0.742188"/><stop stop-opacity="1" stop-color="rgb(30.210876%, 13.803101%, 29.060364%)" offset="0.75"/><stop stop-opacity="1" stop-color="rgb(30.52063%, 13.955688%, 29.153442%)" offset="0.757812"/><stop stop-opacity="1" stop-color="rgb(30.831909%, 14.10675%, 29.246521%)" offset="0.765625"/><stop stop-opacity="1" stop-color="rgb(31.141663%, 14.257812%, 29.3396%)" offset="0.773438"/><stop stop-opacity="1" stop-color="rgb(31.452942%, 14.408875%, 29.432678%)" offset="0.78125"/><stop stop-opacity="1" stop-color="rgb(31.762695%, 14.559937%, 29.525757%)" offset="0.789062"/><stop stop-opacity="1" stop-color="rgb(32.073975%, 14.710999%, 29.618835%)" offset="0.796875"/><stop stop-opacity="1" stop-color="rgb(32.383728%, 14.863586%, 29.711914%)" offset="0.804688"/><stop stop-opacity="1" stop-color="rgb(32.695007%, 15.014648%, 29.806519%)" offset="0.8125"/><stop stop-opacity="1" stop-color="rgb(33.006287%, 15.16571%, 29.899597%)" offset="0.820312"/><stop stop-opacity="1" stop-color="rgb(33.31604%, 15.316772%, 29.992676%)" offset="0.828125"/><stop stop-opacity="1" stop-color="rgb(33.627319%, 15.467834%, 30.085754%)" offset="0.835938"/><stop stop-opacity="1" stop-color="rgb(33.937073%, 15.618896%, 30.178833%)" offset="0.84375"/><stop stop-opacity="1" stop-color="rgb(34.248352%, 15.771484%, 30.271912%)" offset="0.851562"/><stop stop-opacity="1" stop-color="rgb(34.558105%, 15.922546%, 30.36499%)" offset="0.859375"/><stop stop-opacity="1" stop-color="rgb(34.869385%, 16.073608%, 30.458069%)" offset="0.867187"/><stop stop-opacity="1" stop-color="rgb(35.179138%, 16.22467%, 30.552673%)" offset="0.875"/><stop stop-opacity="1" stop-color="rgb(35.490417%, 16.375732%, 30.645752%)" offset="0.882813"/><stop stop-opacity="1" stop-color="rgb(35.800171%, 16.52832%, 30.738831%)" offset="0.890625"/><stop stop-opacity="1" stop-color="rgb(36.11145%, 16.679382%, 30.831909%)" offset="0.898438"/><stop stop-opacity="1" stop-color="rgb(36.422729%, 16.830444%, 30.924988%)" offset="0.90625"/><stop stop-opacity="1" stop-color="rgb(36.732483%, 16.981506%, 31.018066%)" offset="0.914063"/><stop stop-opacity="1" stop-color="rgb(37.043762%, 17.132568%, 31.111145%)" offset="0.921875"/><stop stop-opacity="1" stop-color="rgb(37.353516%, 17.28363%, 31.204224%)" offset="0.929688"/><stop stop-opacity="1" stop-color="rgb(37.664795%, 17.436218%, 31.298828%)" offset="0.9375"/><stop stop-opacity="1" stop-color="rgb(37.908936%, 17.555237%, 31.37207%)" offset="1"/></linearGradient><clipPath id="3a88a1c8eb"><path d="M 767.449219 294.238281 L 1003.699219 294.238281 L 1003.699219 530.488281 L 767.449219 530.488281 Z M 767.449219 294.238281 " clip-rule="nonzero"/></clipPath><clipPath id="e0d6a0019b"><path d="M 598.9375 574.703125 L 841.1875 574.703125 L 841.1875 768.203125 L 598.9375 768.203125 Z M 598.9375 574.703125 " clip-rule="nonzero"/></clipPath></defs><g clip-path="url(#84f63d2f53)"><path fill="#e44d26" d="M 207.726562 86.296875 L 193.734375 243.011719 L 130.824219 260.441406 L 68.09375 243.035156 L 54.113281 86.296875 L 207.722656 86.292969 L 207.730469 86.292969 Z M 207.726562 86.296875 " fill-opacity="1" fill-rule="nonzero"/></g><path fill="#f16529" d="M 130.921875 247.117188 L 181.757812 233.03125 L 193.714844 99.113281 L 130.921875 99.109375 Z M 130.921875 247.117188 " fill-opacity="1" fill-rule="nonzero"/><path fill="#ebebeb" d="M 103.714844 137.558594 L 130.921875 137.558594 L 130.921875 118.332031 L 82.699219 118.332031 L 83.160156 123.492188 L 87.886719 176.464844 L 130.921875 176.464844 L 130.921875 157.246094 L 105.472656 157.246094 Z M 103.714844 137.558594 " fill-opacity="1" fill-rule="nonzero"/><path fill="#ebebeb" d="M 108.050781 186.078125 L 88.746094 186.078125 L 91.4375 216.261719 L 130.832031 227.195312 L 130.921875 227.171875 L 130.921875 207.167969 L 130.835938 207.191406 L 109.417969 201.410156 Z M 108.050781 186.078125 " fill-opacity="1" fill-rule="nonzero"/><g clip-path="url(#813a170878)"><path fill="#ffffff" d="M 68.40625 43.699219 L 78.179688 43.699219 L 78.179688 53.351562 L 87.117188 53.351562 L 87.117188 43.699219 L 96.890625 43.699219 L 96.890625 72.929688 L 87.121094 72.929688 L 87.121094 63.140625 L 78.179688 63.140625 L 78.179688 72.929688 L 68.40625 72.929688 Z M 68.40625 43.699219 " fill-opacity="1" fill-rule="nonzero"/></g><g clip-path="url(#2c3b35c3be)"><path fill="#ffffff" d="M 109.746094 53.394531 L 101.140625 53.394531 L 101.140625 43.699219 L 128.128906 43.699219 L 128.128906 53.394531 L 119.515625 53.394531 L 119.515625 72.929688 L 109.746094 72.929688 Z M 109.746094 53.394531 " fill-opacity="1" fill-rule="nonzero"/></g><g clip-path="url(#af2208918f)"><path fill="#ffffff" d="M 132.410156 43.699219 L 142.597656 43.699219 L 148.867188 53.96875 L 155.128906 43.699219 L 165.324219 43.699219 L 165.324219 72.929688 L 155.59375 72.929688 L 155.59375 58.441406 L 148.867188 68.832031 L 148.699219 68.832031 L 141.972656 58.441406 L 141.972656 72.929688 L 132.410156 72.929688 Z M 132.410156 43.699219 " fill-opacity="1" fill-rule="nonzero"/></g><g clip-path="url(#ea8041d76e)"><path fill="#ffffff" d="M 170.1875 43.699219 L 179.960938 43.699219 L 179.960938 63.265625 L 193.710938 63.265625 L 193.710938 72.929688 L 170.1875 72.929688 Z M 170.1875 43.699219 " fill-opacity="1" fill-rule="nonzero"/></g><path fill="#ffffff" d="M 130.855469 176.464844 L 154.539062 176.464844 L 152.304688 201.394531 L 130.855469 207.1875 L 130.855469 227.183594 L 170.277344 216.261719 L 170.566406 213.011719 L 175.089844 162.402344 L 175.558594 157.246094 L 130.855469 157.246094 Z M 130.855469 176.464844 " fill-opacity="1" fill-rule="nonzero"/><path fill="#ffffff" d="M 130.855469 137.507812 L 130.855469 137.558594 L 177.304688 137.558594 L 177.691406 133.234375 L 178.570312 123.492188 L 179.027344 118.332031 L 130.855469 118.332031 Z M 130.855469 137.507812 " fill-opacity="1" fill-rule="nonzero"/><g clip-path="url(#14fc013bb3)"><path fill="#00618a" d="M 348.34375 471.050781 L 356.902344 471.050781 L 356.902344 437.328125 L 370.15625 466.734375 C 371.71875 470.28125 373.859375 471.554688 378.058594 471.554688 C 382.253906 471.554688 384.3125 470.292969 385.878906 466.734375 L 399.132812 437.328125 L 399.132812 471.0625 L 407.695312 471.0625 L 407.695312 437.382812 C 407.695312 434.097656 406.375 432.507812 403.660156 431.6875 C 397.15625 429.660156 392.792969 431.414062 390.820312 435.796875 L 377.8125 464.820312 L 365.21875 435.78125 C 363.324219 431.402344 358.878906 429.648438 352.375 431.675781 C 349.660156 432.496094 348.34375 434.085938 348.34375 437.371094 Z M 414.8125 443.59375 L 423.367188 443.59375 L 423.367188 462.179688 C 423.289062 463.1875 423.695312 465.558594 428.382812 465.632812 C 430.777344 465.667969 446.851562 465.632812 447 465.632812 L 447 443.5 L 455.578125 443.5 C 455.613281 443.5 455.566406 473.675781 455.570312 473.804688 C 455.617188 481.25 446.316406 482.863281 442.027344 482.992188 L 414.996094 482.992188 L 414.996094 477.242188 L 442.078125 477.242188 C 447.585938 476.660156 446.9375 473.925781 446.9375 473.007812 L 446.9375 470.765625 L 428.742188 470.765625 C 420.277344 470.691406 414.886719 467 414.820312 462.761719 C 414.8125 462.378906 415 443.773438 414.8125 443.589844 Z M 414.8125 443.59375 " fill-opacity="1" fill-rule="nonzero"/></g><path fill="#e48e00" d="M 462.175781 471.050781 L 486.789062 471.050781 C 489.667969 471.050781 492.46875 470.449219 494.695312 469.40625 C 498.398438 467.710938 500.210938 465.410156 500.210938 462.398438 L 500.210938 456.15625 C 500.210938 453.6875 498.152344 451.390625 494.117188 449.855469 C 491.976562 449.035156 489.34375 448.597656 486.792969 448.597656 L 476.417969 448.597656 C 472.964844 448.597656 471.316406 447.554688 470.90625 445.257812 C 470.824219 444.984375 470.824219 444.75 470.824219 444.488281 L 470.824219 440.601562 C 470.824219 440.382812 470.824219 440.164062 470.90625 439.890625 C 471.316406 438.136719 472.222656 437.644531 475.269531 437.355469 C 475.515625 437.355469 475.84375 437.300781 476.09375 437.300781 L 500.539062 437.300781 L 500.539062 431.609375 L 476.503906 431.609375 C 473.046875 431.609375 471.234375 431.828125 469.589844 432.320312 C 464.476562 433.910156 462.253906 436.441406 462.253906 440.820312 L 462.253906 445.804688 C 462.253906 449.640625 466.621094 452.925781 473.941406 453.691406 C 474.769531 453.746094 475.589844 453.800781 476.414062 453.800781 L 485.304688 453.800781 C 485.632812 453.800781 485.960938 453.800781 486.207031 453.855469 C 488.925781 454.074219 490.078125 454.566406 490.902344 455.550781 C 491.410156 456.058594 491.5625 456.539062 491.5625 457.070312 L 491.5625 462.054688 C 491.5625 462.65625 491.148438 463.425781 490.328125 464.082031 C 489.585938 464.738281 488.351562 465.175781 486.703125 465.285156 C 486.375 465.285156 486.128906 465.339844 485.800781 465.339844 L 462.171875 465.339844 L 462.171875 471.035156 Z M 553.613281 461.136719 C 553.613281 466.996094 557.976562 470.285156 566.78125 470.941406 C 567.605469 471.003906 568.429688 471.039062 569.253906 471.050781 L 591.5625 471.050781 L 591.5625 465.355469 L 569.085938 465.355469 C 564.066406 465.355469 562.171875 464.09375 562.171875 461.082031 L 562.171875 431.621094 L 553.613281 431.621094 Z M 505.671875 461.433594 L 505.671875 441.132812 C 505.671875 435.972656 509.300781 432.84375 516.476562 431.855469 C 517.242188 431.75 518.011719 431.691406 518.785156 431.691406 L 535.035156 431.691406 C 535.835938 431.691406 536.636719 431.746094 537.429688 431.855469 C 544.605469 432.84375 548.234375 435.972656 548.234375 441.132812 L 548.234375 461.433594 C 548.234375 465.617188 546.691406 467.859375 543.140625 469.320312 L 551.574219 476.914062 L 541.632812 476.914062 L 534.808594 470.769531 L 527.941406 471.203125 L 518.785156 471.203125 C 517.21875 471.203125 515.570312 470.984375 513.753906 470.488281 C 508.296875 469.007812 505.671875 466.15625 505.671875 461.433594 Z M 514.910156 460.929688 C 514.910156 461.203125 514.992188 461.476562 515.074219 461.804688 C 515.582031 464.167969 517.796875 465.484375 521.167969 465.484375 L 528.945312 465.484375 L 521.800781 459.046875 L 531.742188 459.046875 L 537.957031 464.660156 C 539.105469 464.050781 539.859375 463.117188 540.113281 461.917969 C 540.199219 461.644531 540.199219 461.367188 540.199219 461.09375 L 540.199219 441.625 C 540.199219 441.40625 540.199219 441.121094 540.113281 440.859375 C 539.609375 438.664062 537.390625 437.402344 534.09375 437.402344 L 521.1875 437.402344 C 517.382812 437.402344 514.921875 439.046875 514.921875 441.625 L 514.921875 460.941406 Z M 514.910156 460.929688 " fill-opacity="1" fill-rule="nonzero"/><path fill="#00618a" d="M 599.085938 422.171875 C 593.824219 422.03125 589.804688 422.515625 586.367188 423.960938 C 585.390625 424.375 583.835938 424.382812 583.675781 425.605469 C 584.210938 426.167969 584.296875 427.003906 584.722656 427.695312 C 585.542969 429.019531 586.929688 430.796875 588.164062 431.726562 C 589.515625 432.742188 590.90625 433.832031 592.355469 434.714844 C 594.929688 436.28125 597.804688 437.175781 600.285156 438.746094 C 601.746094 439.671875 603.199219 440.835938 604.625 441.882812 C 605.328125 442.398438 605.804688 443.199219 606.71875 443.523438 L 606.71875 443.375 C 606.234375 442.761719 606.113281 441.921875 605.671875 441.285156 L 603.726562 439.34375 C 601.824219 436.8125 599.410156 434.613281 596.84375 432.773438 C 594.796875 431.304688 590.214844 429.328125 589.359375 426.949219 L 589.210938 426.800781 C 590.664062 426.632812 592.363281 426.113281 593.703125 425.753906 C 595.953125 425.152344 597.964844 425.308594 600.289062 424.710938 L 603.429688 423.8125 L 603.429688 423.214844 C 602.253906 422.011719 601.417969 420.421875 600.136719 419.332031 C 596.789062 416.484375 593.128906 413.640625 589.367188 411.269531 C 587.277344 409.953125 584.695312 409.097656 582.480469 407.984375 C 581.738281 407.609375 580.429688 407.414062 579.9375 406.789062 C 578.777344 405.308594 578.144531 403.433594 577.246094 401.722656 C 575.367188 398.113281 573.523438 394.171875 571.859375 390.375 C 570.722656 387.785156 569.980469 385.230469 568.566406 382.90625 C 561.773438 371.761719 554.457031 365.03125 543.128906 358.421875 C 540.71875 357.015625 537.816406 356.457031 534.75 355.734375 L 529.8125 355.433594 C 528.804688 355.015625 527.761719 353.789062 526.816406 353.191406 C 523.0625 350.824219 513.4375 345.679688 510.65625 352.433594 C 508.902344 356.703125 513.277344 360.871094 514.847656 363.035156 C 515.945312 364.554688 517.351562 366.253906 518.136719 367.964844 C 518.652344 369.085938 518.742188 370.210938 519.1875 371.398438 C 520.273438 374.3125 521.21875 377.503906 522.625 380.207031 C 523.335938 381.574219 524.121094 383.015625 525.019531 384.238281 C 525.574219 384.992188 526.519531 385.320312 526.667969 386.480469 C 525.742188 387.773438 525.691406 389.773438 525.167969 391.410156 C 522.832031 398.769531 523.710938 407.914062 527.113281 413.359375 C 528.160156 415.03125 530.617188 418.617188 533.996094 417.242188 C 536.953125 416.039062 536.28125 412.316406 537.140625 409.03125 C 537.332031 408.28125 537.214844 407.738281 537.589844 407.238281 L 537.589844 407.386719 L 540.285156 412.761719 C 542.277344 415.964844 545.816406 419.316406 548.8125 421.574219 C 550.367188 422.746094 551.605469 424.773438 553.601562 425.457031 L 553.601562 425.308594 L 553.453125 425.308594 C 553.0625 424.699219 552.453125 424.449219 551.953125 423.964844 C 550.785156 422.820312 549.480469 421.394531 548.511719 420.082031 C 545.785156 416.390625 543.375 412.347656 541.179688 408.136719 C 540.132812 406.128906 539.21875 403.910156 538.339844 401.867188 C 538 401.078125 538.003906 399.886719 537.292969 399.476562 C 536.324219 400.976562 534.898438 402.1875 534.148438 403.957031 C 532.953125 406.785156 532.796875 410.234375 532.355469 413.8125 C 532.089844 413.90625 532.207031 413.839844 532.054688 413.960938 C 529.972656 413.460938 529.238281 411.320312 528.464844 409.480469 C 526.503906 404.835938 526.140625 397.355469 527.863281 392.011719 C 528.308594 390.628906 530.324219 386.269531 529.511719 384.992188 C 529.121094 383.71875 527.835938 382.96875 527.117188 382.003906 C 526.226562 380.800781 525.335938 379.214844 524.722656 377.824219 C 523.117188 374.203125 522.371094 370.140625 520.683594 366.476562 C 519.875 364.726562 518.511719 362.957031 517.390625 361.410156 C 516.148438 359.691406 514.761719 358.417969 513.800781 356.347656 C 513.457031 355.605469 512.992188 354.421875 513.5 353.660156 C 513.550781 353.433594 513.65625 353.242188 513.816406 353.078125 C 513.980469 352.917969 514.175781 352.8125 514.398438 352.761719 C 515.265625 352.09375 517.683594 352.984375 518.589844 353.359375 C 520.984375 354.355469 522.992188 355.300781 525.023438 356.644531 C 526 357.277344 526.988281 358.539062 528.164062 358.886719 L 529.511719 358.886719 C 531.617188 359.371094 533.976562 359.039062 535.941406 359.632812 C 539.421875 360.6875 542.539062 362.332031 545.371094 364.113281 C 553.996094 369.546875 561.046875 377.285156 565.871094 386.523438 C 566.648438 388.007812 566.980469 389.429688 567.667969 391.003906 C 569.046875 394.167969 570.78125 397.453125 572.15625 400.558594 C 573.527344 403.660156 574.859375 406.789062 576.792969 409.371094 C 577.8125 410.722656 581.742188 411.453125 583.527344 412.207031 C 584.78125 412.734375 586.832031 413.285156 588.015625 413.996094 C 590.28125 415.359375 592.476562 416.984375 594.601562 418.480469 C 595.664062 419.226562 598.929688 420.863281 599.089844 422.210938 Z M 599.085938 422.171875 " fill-opacity="1" fill-rule="nonzero"/><path fill="#00618a" d="M 532.207031 365.28125 C 531.109375 365.261719 530.335938 365.398438 529.515625 365.578125 L 529.515625 365.730469 L 529.664062 365.730469 C 530.1875 366.804688 531.109375 367.492188 531.757812 368.417969 L 533.253906 371.550781 L 533.402344 371.402344 C 534.332031 370.75 534.753906 369.707031 534.75 368.117188 C 534.378906 367.726562 534.324219 367.238281 534 366.773438 C 533.574219 366.152344 532.730469 365.800781 532.207031 365.277344 Z M 532.207031 365.28125 " fill-opacity="1" fill-rule="evenodd"/><path fill="#e48e00" d="M 595.585938 465.191406 C 595.585938 468.953125 598.5625 471.488281 601.894531 471.488281 C 605.226562 471.488281 608.203125 468.953125 608.203125 465.191406 C 608.203125 461.433594 605.226562 458.898438 601.894531 458.898438 C 598.5625 458.898438 595.585938 461.433594 595.585938 465.191406 Z M 606.789062 465.191406 C 606.789062 468.046875 604.601562 470.179688 601.890625 470.179688 C 599.152344 470.179688 596.992188 468.046875 596.992188 465.191406 C 596.992188 462.339844 599.148438 460.207031 601.890625 460.207031 C 604.601562 460.207031 606.789062 462.339844 606.789062 465.191406 Z M 603.59375 468.785156 L 605.003906 468.785156 L 602.9375 465.628906 C 604.046875 465.511719 604.886719 464.972656 604.886719 463.664062 C 604.886719 462.203125 603.960938 461.601562 602.179688 461.601562 L 599.367188 461.601562 L 599.367188 468.785156 L 600.578125 468.785156 L 600.578125 465.679688 L 601.707031 465.679688 L 603.589844 468.785156 Z M 600.578125 464.671875 L 600.578125 462.605469 L 601.976562 462.605469 C 602.699219 462.605469 603.574219 462.742188 603.574219 463.582031 C 603.574219 464.589844 602.785156 464.671875 601.875 464.671875 Z M 600.578125 464.671875 " fill-opacity="1" fill-rule="evenodd"/><path fill="#4e7896" d="M 1221.351562 421.515625 C 1221.351562 421.515625 1215.015625 425.363281 1225.761719 426.464844 C 1238.710938 428.113281 1245.597656 427.839844 1259.925781 425.089844 C 1259.925781 425.089844 1263.78125 427.5625 1269.015625 429.488281 C 1236.78125 443.230469 1196.003906 428.660156 1221.355469 421.515625 Z M 1217.222656 403.648438 C 1217.222656 403.648438 1210.332031 408.871094 1221.078125 409.96875 C 1235.128906 411.34375 1246.148438 411.621094 1265.160156 407.769531 C 1265.160156 407.769531 1267.640625 410.519531 1271.773438 411.894531 C 1232.925781 423.441406 1189.390625 412.992188 1217.21875 403.648438 Z M 1293.265625 434.980469 C 1293.265625 434.980469 1297.949219 438.832031 1288.027344 441.855469 C 1269.570312 447.351562 1210.609375 449 1194.078125 441.855469 C 1188.292969 439.382812 1199.3125 435.804688 1202.894531 435.257812 C 1206.476562 434.433594 1208.402344 434.433594 1208.402344 434.433594 C 1202.066406 430.035156 1166.25 443.503906 1190.21875 447.351562 C 1256.066406 458.074219 1310.34375 442.679688 1293.261719 434.980469 Z M 1224.386719 384.953125 C 1224.386719 384.953125 1194.355469 392.097656 1213.640625 394.574219 C 1221.90625 395.671875 1238.160156 395.398438 1253.316406 394.296875 C 1265.714844 393.199219 1278.113281 391 1278.113281 391 C 1278.113281 391 1273.703125 392.921875 1270.671875 394.847656 C 1240.089844 402.820312 1181.40625 399.246094 1198.210938 391 C 1212.539062 384.125 1224.386719 384.949219 1224.386719 384.949219 Z M 1278.109375 414.914062 C 1308.96875 398.972656 1294.640625 383.578125 1284.722656 385.5 C 1282.242188 386.050781 1281.140625 386.601562 1281.140625 386.601562 C 1281.140625 386.601562 1281.96875 384.953125 1283.894531 384.402344 C 1303.457031 377.53125 1318.886719 405.019531 1277.558594 415.738281 C 1277.558594 415.738281 1277.835938 415.464844 1278.109375 414.914062 Z M 1227.414062 458.347656 C 1257.171875 460.273438 1302.625 457.25 1303.734375 443.226562 C 1303.734375 443.226562 1301.53125 448.726562 1279.214844 452.847656 C 1253.867188 457.523438 1222.460938 456.972656 1204.003906 453.949219 C 1204.003906 453.949219 1207.863281 457.25 1227.421875 458.347656 Z M 1227.414062 458.347656 " fill-opacity="1" fill-rule="nonzero"/><g clip-path="url(#7c02ce4985)"><path fill="#f58219" d="M 1259.375 294.238281 C 1259.375 294.238281 1276.457031 311.558594 1243.117188 337.671875 C 1216.394531 358.839844 1237.058594 370.933594 1243.117188 384.675781 C 1227.414062 370.65625 1216.117188 358.289062 1223.832031 346.742188 C 1235.128906 329.699219 1266.265625 321.457031 1259.375 294.238281 Z M 1250.5625 373.132812 C 1258.550781 382.207031 1248.359375 390.453125 1248.359375 390.453125 C 1248.359375 390.453125 1268.746094 380.007812 1259.378906 367.085938 C 1250.835938 354.71875 1244.226562 348.667969 1280.042969 328.058594 C 1280.042969 328.058594 1223.5625 342.078125 1250.5625 373.140625 Z M 1230.171875 520.746094 L 1230.171875 493.804688 C 1230.171875 486.933594 1226.3125 482.261719 1216.671875 482.261719 C 1211.160156 482.261719 1206.476562 483.636719 1202.34375 485.277344 L 1203.722656 490.226562 C 1206.746094 489.128906 1210.609375 488.027344 1214.742188 488.027344 C 1219.976562 488.027344 1222.457031 490.226562 1222.457031 494.625 L 1222.457031 498.199219 L 1219.703125 498.199219 C 1206.476562 498.199219 1200.414062 503.148438 1200.414062 511.117188 C 1200.414062 517.714844 1204.546875 521.566406 1211.988281 521.566406 C 1216.671875 521.566406 1220.253906 519.367188 1223.558594 516.617188 L 1224.109375 520.738281 L 1230.171875 520.738281 Z M 1222.457031 511.949219 C 1219.699219 514.421875 1216.671875 515.796875 1213.914062 515.796875 C 1210.332031 515.796875 1208.128906 513.597656 1208.128906 509.75 C 1208.128906 505.902344 1210.332031 503.152344 1219.148438 503.152344 L 1222.457031 503.152344 Z M 1256.070312 520.746094 L 1246.425781 520.746094 L 1234.855469 483.085938 L 1243.121094 483.085938 L 1250.285156 506.175781 L 1251.9375 513.046875 C 1255.519531 503.152344 1258.273438 492.980469 1259.375 483.085938 L 1267.640625 483.085938 C 1265.4375 495.457031 1261.582031 508.925781 1256.070312 520.746094 Z M 1300.703125 520.746094 L 1300.703125 493.804688 C 1300.703125 486.933594 1296.84375 482.261719 1287.203125 482.261719 C 1281.691406 482.261719 1277.007812 483.636719 1272.875 485.277344 L 1273.976562 490.226562 C 1277.285156 489.128906 1281.140625 488.027344 1285.273438 488.027344 C 1290.507812 488.027344 1292.988281 490.226562 1292.988281 494.625 L 1292.988281 498.199219 L 1290.234375 498.199219 C 1277.007812 498.199219 1270.945312 503.148438 1270.945312 511.117188 C 1270.945312 517.714844 1274.804688 521.566406 1282.242188 521.566406 C 1287.203125 521.566406 1290.785156 519.367188 1294.089844 516.617188 L 1294.640625 520.738281 L 1300.703125 520.738281 Z M 1292.988281 511.949219 C 1290.234375 514.421875 1287.203125 515.796875 1284.445312 515.796875 C 1280.863281 515.796875 1278.660156 513.597656 1278.660156 509.75 C 1278.660156 505.902344 1280.867188 503.152344 1289.679688 503.152344 L 1292.988281 503.152344 Z M 1191.875 527.070312 C 1189.671875 530.367188 1186.367188 532.839844 1182.234375 534.214844 L 1178.648438 529.820312 C 1181.402344 528.171875 1184.160156 525.695312 1185.261719 523.496094 C 1186.363281 521.574219 1186.640625 518.824219 1186.640625 512.5 L 1186.640625 469.617188 L 1194.90625 469.617188 L 1194.90625 511.953125 C 1194.90625 520.472656 1194.078125 523.773438 1191.878906 527.070312 Z M 1191.875 527.070312 " fill-opacity="1" fill-rule="nonzero"/></g><g clip-path="url(#16262a0b6e)"><path fill="#264de4" d="M 480.65625 256.695312 L 418.84375 239.589844 L 405.066406 85.5625 L 556.425781 85.558594 L 542.644531 239.5625 L 480.660156 256.691406 Z M 480.65625 256.695312 " fill-opacity="1" fill-rule="nonzero"/></g><path fill="#2965f1" d="M 530.839844 229.757812 L 542.621094 98.152344 L 480.75 98.152344 L 480.75 243.597656 L 530.839844 229.753906 Z M 530.839844 229.757812 " fill-opacity="1" fill-rule="nonzero"/><path fill="#ebebeb" d="M 436.648438 155.28125 L 438.347656 174.167969 L 480.75 174.167969 L 480.75 155.28125 Z M 436.648438 155.28125 " fill-opacity="1" fill-rule="nonzero"/><path fill="#ebebeb" d="M 433.234375 117.039062 L 434.957031 135.933594 L 480.75 135.933594 L 480.75 117.039062 Z M 433.234375 117.039062 " fill-opacity="1" fill-rule="nonzero"/><path fill="#ebebeb" d="M 480.75 204.339844 L 480.667969 204.363281 L 459.5625 198.679688 L 458.214844 183.613281 L 439.191406 183.613281 L 441.847656 213.277344 L 480.660156 224.019531 L 480.75 223.996094 Z M 480.75 204.339844 " fill-opacity="1" fill-rule="nonzero"/><g clip-path="url(#3834157ea8)"><path fill="#ffffff" d="M 440.691406 43.699219 L 463.640625 43.699219 L 463.640625 53.269531 L 450.289062 53.269531 L 450.289062 62.835938 L 463.640625 62.835938 L 463.640625 72.402344 L 440.691406 72.402344 Z M 440.691406 43.699219 " fill-opacity="1" fill-rule="nonzero"/></g><g clip-path="url(#1f574cba97)"><path fill="#ffffff" d="M 468.230469 43.699219 L 491.179688 43.699219 L 491.179688 52.019531 L 477.832031 52.019531 L 477.832031 53.683594 L 491.179688 53.683594 L 491.179688 72.820312 L 468.230469 72.820312 L 468.230469 64.085938 L 481.585938 64.085938 L 481.585938 62.421875 L 468.230469 62.421875 Z M 468.230469 43.699219 " fill-opacity="1" fill-rule="nonzero"/></g><g clip-path="url(#458defea73)"><path fill="#ffffff" d="M 495.773438 43.699219 L 518.722656 43.699219 L 518.722656 52.019531 L 505.367188 52.019531 L 505.367188 53.683594 L 518.722656 53.683594 L 518.722656 72.820312 L 495.773438 72.820312 L 495.773438 64.085938 L 509.125 64.085938 L 509.125 62.421875 L 495.773438 62.421875 Z M 495.773438 43.699219 " fill-opacity="1" fill-rule="nonzero"/></g><path fill="#ffffff" d="M 524.734375 155.28125 L 528.152344 117.039062 L 480.683594 117.039062 L 480.683594 135.933594 L 507.386719 135.933594 L 505.664062 155.28125 L 480.683594 155.28125 L 480.683594 174.167969 L 504.019531 174.167969 L 501.820312 198.667969 L 480.683594 204.359375 L 480.683594 224.007812 L 519.53125 213.277344 L 519.816406 210.085938 L 524.269531 160.351562 Z M 524.734375 155.28125 " fill-opacity="1" fill-rule="nonzero"/><g clip-path="url(#030950fe90)"><path fill="#ffffff" d="M 44.308594 312.488281 L 44.308594 532.238281 L 264.058594 532.238281 L 264.058594 312.488281 Z M 64.289062 332.464844 L 244.082031 332.464844 L 244.082031 512.261719 L 64.289062 512.261719 Z M 162.886719 366.039062 C 156.574219 366.039062 152.878906 369.414062 152.878906 375.714844 C 152.878906 382.140625 156.582031 385.722656 162.886719 385.722656 C 169.296875 385.722656 172.992188 382.128906 172.992188 375.714844 C 172.992188 369.402344 169.296875 366.039062 162.886719 366.039062 Z M 193.984375 376.574219 C 192.785156 388.640625 188.875 393.53125 179.195312 394.621094 L 179.195312 404.53125 C 188.117188 404.53125 187.78125 404.1875 187.78125 405.605469 L 187.78125 434.75 C 187.78125 447.257812 192.792969 452.328125 206.058594 452.328125 C 212.363281 452.328125 219.320312 450.53125 224.105469 448.132812 L 221.0625 438.320312 C 203.230469 445.0625 204.128906 432.890625 204.128906 431.042969 L 204.128906 404.511719 L 221.0625 404.511719 L 221.0625 393.429688 L 204.128906 393.429688 L 204.128906 376.574219 Z M 111.519531 394.542969 C 99.957031 394.59375 86 399.210938 86 416.179688 C 86 424.328125 90.144531 430.09375 95.578125 432.820312 C 88.726562 439.113281 85.453125 442.046875 85.453125 446.183594 C 85.453125 449.230469 86.765625 451.929688 90.351562 453.558594 C 86.546875 457.152344 84.265625 459.886719 84.265625 464.890625 C 84.265625 473.59375 91.980469 478.703125 111.988281 478.703125 C 131.34375 478.703125 142.558594 471.519531 142.558594 458.804688 C 142.558594 442.714844 130.265625 443.367188 101.121094 441.519531 L 104.808594 435.628906 C 112.199219 437.695312 137.210938 438.359375 137.210938 417.152344 C 137.210938 412.039062 135.144531 408.453125 133.074219 405.957031 L 143.300781 405.195312 L 143.300781 395.714844 L 121.664062 395.714844 C 118.945312 395.007812 115.371094 394.527344 111.519531 394.542969 Z M 149.738281 394.640625 L 148.527344 403.671875 C 155.378906 406.058594 155.921875 405.714844 155.921875 408.003906 L 155.921875 440.738281 C 155.921875 443.136719 155.808594 442.707031 148.527344 443.6875 L 148.527344 452.328125 L 180.171875 452.328125 L 180.171875 443.6875 L 174.511719 442.925781 C 172.886719 442.707031 172.777344 442.476562 172.777344 440.738281 L 172.777344 394.640625 Z M 112.4375 405.605469 C 126.019531 405.605469 126.347656 424.976562 112.105469 424.976562 C 97.75 424.976562 98.402344 405.605469 112.4375 405.605469 Z M 100.242188 456.503906 C 121.449219 458.03125 126.015625 457.488281 126.015625 461.730469 C 126.015625 470.542969 97.414062 470.535156 97.414062 462.375 C 97.414062 460.199219 98.824219 458.351562 100.242188 456.503906 Z M 100.242188 456.503906 " fill-opacity="1" fill-rule="nonzero"/></g><g clip-path="url(#8493e335be)"><path fill="#f7df1e" d="M 767.449219 39.472656 L 978.199219 39.472656 L 978.199219 250.222656 L 767.449219 250.222656 Z M 767.449219 39.472656 " fill-opacity="1" fill-rule="nonzero"/></g><path fill="#000000" d="M 822.863281 215.589844 L 838.992188 205.832031 C 842.101562 211.347656 844.933594 216.015625 851.726562 216.015625 C 858.226562 216.015625 862.335938 213.464844 862.335938 203.570312 L 862.335938 136.226562 L 882.136719 136.226562 L 882.136719 203.847656 C 882.136719 224.355469 870.117188 233.699219 852.574219 233.699219 C 836.726562 233.699219 827.53125 225.492188 822.863281 215.589844 " fill-opacity="1" fill-rule="nonzero"/><path fill="#000000" d="M 892.894531 213.464844 L 909.023438 204.128906 C 913.269531 211.0625 918.785156 216.15625 928.542969 216.15625 C 936.75 216.15625 941.984375 212.058594 941.984375 206.394531 C 941.984375 199.601562 936.609375 197.199219 927.554688 193.238281 L 922.605469 191.113281 C 908.3125 185.03125 898.839844 177.398438 898.839844 161.261719 C 898.839844 146.410156 910.148438 135.09375 927.839844 135.09375 C 940.429688 135.09375 949.484375 139.480469 955.988281 150.941406 L 940.570312 160.84375 C 937.175781 154.757812 933.496094 152.355469 927.839844 152.355469 C 922.039062 152.355469 918.359375 156.035156 918.359375 160.84375 C 918.359375 166.785156 922.039062 169.191406 930.527344 172.871094 L 935.472656 174.988281 C 952.308594 182.207031 961.792969 189.558594 961.792969 206.113281 C 961.792969 223.9375 947.789062 233.699219 928.96875 233.699219 C 910.578125 233.699219 898.699219 224.925781 892.894531 213.464844 " fill-opacity="1" fill-rule="nonzero"/><g clip-path="url(#bbfec479a4)"><g clip-path="url(#aa2a4f7593)"><path fill="url(#97a82164bb)" d="M 1151.660156 42.792969 L 1151.660156 249.785156 L 1358.085938 249.785156 L 1358.085938 42.792969 Z M 1151.660156 42.792969 " fill-rule="nonzero"/></g></g><path fill="#ffffff" d="M 1256.269531 131.734375 C 1261.550781 131.734375 1265.550781 130.605469 1268.277344 128.296875 C 1271.007812 125.984375 1272.371094 122.621094 1272.371094 118.152344 C 1272.371094 113.734375 1271.007812 110.382812 1268.277344 108.089844 C 1265.535156 105.738281 1261.546875 104.5625 1256.269531 104.5625 L 1237.730469 104.5625 L 1237.730469 131.738281 L 1256.269531 131.738281 M 1257.398438 187.886719 C 1264.128906 187.886719 1269.175781 186.484375 1272.542969 183.675781 C 1275.964844 180.867188 1277.675781 176.625 1277.675781 170.949219 C 1277.675781 165.386719 1275.996094 161.230469 1272.628906 158.480469 C 1269.265625 155.671875 1264.1875 154.269531 1257.402344 154.269531 L 1237.734375 154.269531 L 1237.734375 187.890625 L 1257.402344 187.890625 M 1288.558594 141.714844 C 1295.75 143.777344 1301.320312 147.59375 1305.265625 153.152344 C 1309.210938 158.710938 1311.183594 165.535156 1311.183594 173.617188 C 1311.183594 186 1306.949219 195.230469 1298.480469 201.308594 C 1290.007812 207.382812 1277.128906 210.421875 1259.839844 210.421875 L 1204.230469 210.421875 L 1204.230469 82.066406 L 1254.535156 82.066406 C 1272.578125 82.066406 1285.632812 84.761719 1293.695312 90.148438 C 1301.816406 95.539062 1305.878906 104.167969 1305.878906 116.035156 C 1305.878906 122.28125 1304.398438 127.613281 1301.441406 132.027344 C 1298.480469 136.382812 1294.171875 139.605469 1288.558594 141.746094 " fill-opacity="1" fill-rule="nonzero"/><g clip-path="url(#3a88a1c8eb)"><path fill="#e47eb8" d="M 928.886719 522.613281 C 891.972656 522.613281 861.949219 492.589844 861.949219 455.675781 C 861.949219 418.761719 891.972656 388.738281 928.886719 388.738281 C 965.800781 388.738281 995.824219 418.761719 995.824219 455.675781 C 995.824219 492.589844 965.800781 522.613281 928.886719 522.613281 Z M 838.324219 428.113281 C 796.964844 428.113281 775.324219 417.855469 775.324219 412.363281 L 775.324219 408.011719 C 787.738281 416.054688 813.101562 420.238281 838.324219 420.238281 C 847.167969 420.238281 855.84375 419.730469 863.886719 418.777344 C 862.363281 421.4375 860.996094 424.175781 859.796875 427.023438 C 852.796875 427.714844 845.597656 428.113281 838.324219 428.113281 Z M 854.074219 455.675781 C 854.074219 456.800781 854.199219 457.890625 854.242188 459.015625 C 848.953125 459.382812 843.628906 459.613281 838.324219 459.613281 C 796.964844 459.613281 775.324219 449.355469 775.324219 443.863281 L 775.324219 423.761719 C 787.738281 431.804688 813.101562 435.988281 838.324219 435.988281 C 844.644531 435.988281 850.875 435.648438 856.996094 435.144531 C 855.136719 441.679688 854.074219 448.554688 854.074219 455.675781 Z M 775.324219 376.511719 C 787.738281 384.554688 813.101562 388.738281 838.324219 388.738281 C 863.550781 388.738281 888.910156 384.554688 901.324219 376.511719 L 901.324219 386.183594 C 888.789062 391.183594 877.929688 399.472656 869.777344 409.996094 C 860.273438 411.53125 849.460938 412.363281 838.324219 412.363281 C 796.964844 412.363281 775.324219 402.105469 775.324219 396.613281 Z M 775.324219 360.761719 C 787.738281 368.804688 813.101562 372.988281 838.324219 372.988281 C 863.550781 372.988281 888.910156 368.804688 901.324219 360.761719 L 901.324219 365.113281 C 901.324219 370.605469 879.683594 380.863281 838.324219 380.863281 C 796.964844 380.863281 775.324219 370.605469 775.324219 365.113281 Z M 775.324219 329.261719 C 787.738281 337.304688 813.101562 341.488281 838.324219 341.488281 C 863.550781 341.488281 888.910156 337.304688 901.324219 329.261719 L 901.324219 349.363281 C 901.324219 354.855469 879.683594 365.113281 838.324219 365.113281 C 796.964844 365.113281 775.324219 354.855469 775.324219 349.363281 Z M 838.324219 302.113281 C 879.683594 302.113281 901.324219 312.371094 901.324219 317.863281 C 901.324219 323.355469 879.683594 333.613281 838.324219 333.613281 C 796.964844 333.613281 775.324219 323.355469 775.324219 317.863281 C 775.324219 312.371094 796.964844 302.113281 838.324219 302.113281 Z M 928.886719 380.863281 C 922.074219 380.863281 915.476562 381.863281 909.199219 383.585938 L 909.199219 317.863281 C 909.199219 302.34375 873.546875 294.238281 838.324219 294.238281 C 803.101562 294.238281 767.449219 302.34375 767.449219 317.863281 L 767.449219 443.863281 C 767.449219 459.382812 803.101562 467.488281 838.324219 467.488281 C 843.875 467.488281 849.476562 467.242188 854.996094 466.859375 C 860.425781 502.804688 891.433594 530.488281 928.886719 530.488281 C 970.136719 530.488281 1003.699219 496.925781 1003.699219 455.675781 C 1003.699219 414.425781 970.136719 380.863281 928.886719 380.863281 " fill-opacity="1" fill-rule="nonzero"/></g><path fill="#e47eb8" d="M 893.449219 435.988281 C 897.785156 435.988281 901.324219 439.527344 901.324219 443.863281 C 901.324219 446.03125 903.09375 447.800781 905.261719 447.800781 C 907.429688 447.800781 909.199219 446.03125 909.199219 443.863281 C 909.199219 435.171875 902.140625 428.113281 893.449219 428.113281 C 884.757812 428.113281 877.699219 435.171875 877.699219 443.863281 C 877.699219 452.554688 884.757812 459.613281 893.449219 459.613281 C 897.785156 459.613281 901.324219 463.152344 901.324219 467.488281 C 901.324219 471.824219 897.785156 475.363281 893.449219 475.363281 C 889.113281 475.363281 885.574219 471.824219 885.574219 467.488281 C 885.574219 465.320312 883.804688 463.550781 881.636719 463.550781 C 879.46875 463.550781 877.699219 465.320312 877.699219 467.488281 C 877.699219 476.179688 884.757812 483.238281 893.449219 483.238281 C 902.140625 483.238281 909.199219 476.179688 909.199219 467.488281 C 909.199219 458.796875 902.140625 451.738281 893.449219 451.738281 C 889.113281 451.738281 885.574219 448.199219 885.574219 443.863281 C 885.574219 439.527344 889.113281 435.988281 893.449219 435.988281 " fill-opacity="1" fill-rule="nonzero"/><path fill="#e47eb8" d="M 940.699219 466.304688 L 940.039062 465.304688 C 938.839844 463.488281 936.394531 463.011719 934.578125 464.210938 C 932.761719 465.414062 932.269531 467.859375 933.484375 469.671875 L 936.609375 474.347656 C 935.46875 474.980469 934.191406 475.363281 932.824219 475.363281 C 928.488281 475.363281 924.949219 471.824219 924.949219 467.488281 L 924.949219 443.863281 C 924.949219 439.527344 928.488281 435.988281 932.824219 435.988281 C 937.160156 435.988281 940.699219 439.527344 940.699219 443.863281 Z M 932.824219 428.113281 C 924.132812 428.113281 917.074219 435.171875 917.074219 443.863281 L 917.074219 467.488281 C 917.074219 476.179688 924.132812 483.238281 932.824219 483.238281 C 935.824219 483.238281 938.59375 482.363281 940.976562 480.902344 L 941.359375 481.484375 C 942.546875 483.253906 945.050781 483.746094 946.820312 482.578125 C 948.636719 481.378906 949.128906 478.933594 947.914062 477.117188 L 946.542969 475.070312 C 947.789062 472.808594 948.574219 470.257812 948.574219 467.488281 L 948.574219 443.863281 C 948.574219 435.171875 941.515625 428.113281 932.824219 428.113281 " fill-opacity="1" fill-rule="nonzero"/><path fill="#e47eb8" d="M 964.324219 475.363281 L 964.324219 432.050781 C 964.324219 429.882812 962.554688 428.113281 960.386719 428.113281 C 958.21875 428.113281 956.449219 429.882812 956.449219 432.050781 L 956.449219 479.300781 C 956.449219 481.46875 958.21875 483.238281 960.386719 483.238281 L 976.136719 483.238281 C 978.304688 483.238281 980.074219 481.46875 980.074219 479.300781 C 980.074219 477.132812 978.304688 475.363281 976.136719 475.363281 L 964.324219 475.363281 " fill-opacity="1" fill-rule="nonzero"/><g clip-path="url(#e0d6a0019b)"><path fill="#ffffff" d="M 611.054688 574.703125 C 604.386719 574.703125 598.945312 580.136719 598.945312 586.796875 L 598.945312 756.109375 C 598.945312 762.769531 604.386719 768.203125 611.054688 768.203125 L 829.070312 768.203125 C 835.742188 768.203125 841.183594 762.769531 841.183594 756.109375 L 841.183594 586.796875 C 841.183594 580.136719 835.742188 574.703125 829.070312 574.703125 Z M 611.054688 582.765625 L 829.070312 582.765625 C 831.292969 582.765625 833.109375 584.578125 833.109375 586.796875 L 833.109375 756.109375 C 833.109375 758.332031 831.292969 760.140625 829.070312 760.140625 L 611.054688 760.140625 C 608.832031 760.140625 607.019531 758.332031 607.019531 756.109375 L 607.019531 586.796875 C 607.019531 584.578125 608.832031 582.765625 611.054688 582.765625 Z M 661.082031 622.953125 C 659.363281 622.953125 657.847656 624.039062 657.28125 625.644531 L 631.433594 698.207031 C 630.691406 700.300781 631.777344 702.601562 633.890625 703.339844 C 634.332031 703.5 634.792969 703.578125 635.234375 703.578125 C 636.886719 703.578125 638.449219 702.554688 639.050781 700.902344 L 646.714844 679.34375 C 646.792969 679.359375 646.855469 679.390625 646.949219 679.390625 L 675.210938 679.390625 C 675.289062 679.390625 675.351562 679.359375 675.433594 679.34375 L 683.097656 700.902344 C 683.855469 702.996094 686.171875 704.082031 688.269531 703.339844 C 690.367188 702.601562 691.457031 700.300781 690.714844 698.207031 L 664.867188 625.644531 C 664.296875 624.039062 662.785156 622.953125 661.082031 622.953125 Z M 707.953125 623.078125 C 705.710938 623.078125 703.914062 624.875 703.914062 627.109375 L 703.914062 699.671875 C 703.914062 701.910156 705.710938 703.703125 707.953125 703.703125 C 710.191406 703.703125 711.988281 701.910156 711.988281 699.671875 L 711.988281 671.453125 L 736.210938 671.453125 C 745.125 671.453125 752.363281 664.226562 752.363281 655.328125 L 752.363281 639.203125 C 752.363281 630.308594 745.125 623.078125 736.210938 623.078125 Z M 768.511719 623.078125 C 766.273438 623.078125 764.472656 624.875 764.472656 627.109375 C 764.472656 629.347656 766.273438 631.140625 768.511719 631.140625 L 776.585938 631.140625 L 776.585938 695.640625 L 768.511719 695.640625 C 766.273438 695.640625 764.472656 697.4375 764.472656 699.671875 C 764.472656 701.910156 766.273438 703.703125 768.511719 703.703125 L 792.734375 703.703125 C 794.972656 703.703125 796.773438 701.910156 796.773438 699.671875 C 796.773438 697.4375 794.972656 695.640625 792.734375 695.640625 L 784.660156 695.640625 L 784.660156 631.140625 L 792.734375 631.140625 C 794.972656 631.140625 796.773438 629.347656 796.773438 627.109375 C 796.773438 624.875 794.972656 623.078125 792.734375 623.078125 Z M 711.988281 631.140625 L 736.210938 631.140625 C 740.660156 631.140625 744.289062 634.761719 744.289062 639.203125 L 744.289062 655.328125 C 744.289062 659.769531 740.660156 663.390625 736.210938 663.390625 L 711.988281 663.390625 Z M 661.082031 639.015625 L 672.578125 671.328125 L 649.566406 671.328125 Z M 619.128906 735.953125 C 616.90625 735.953125 615.09375 737.765625 615.09375 739.984375 L 615.09375 748.046875 C 615.09375 750.269531 616.90625 752.078125 619.128906 752.078125 C 621.355469 752.078125 623.167969 750.269531 623.167969 748.046875 L 623.167969 739.984375 C 623.167969 737.765625 621.355469 735.953125 619.128906 735.953125 Z M 639.316406 735.953125 C 637.09375 735.953125 635.28125 737.765625 635.28125 739.984375 L 635.28125 748.046875 C 635.28125 750.269531 637.09375 752.078125 639.316406 752.078125 C 641.539062 752.078125 643.355469 750.269531 643.355469 748.046875 L 643.355469 739.984375 C 643.355469 737.765625 641.539062 735.953125 639.316406 735.953125 Z M 659.503906 735.953125 C 657.28125 735.953125 655.464844 737.765625 655.464844 739.984375 L 655.464844 748.046875 C 655.464844 750.269531 657.28125 752.078125 659.503906 752.078125 C 661.726562 752.078125 663.542969 750.269531 663.542969 748.046875 L 663.542969 739.984375 C 663.542969 737.765625 661.726562 735.953125 659.503906 735.953125 Z M 679.691406 735.953125 C 677.464844 735.953125 675.652344 737.765625 675.652344 739.984375 L 675.652344 748.046875 C 675.652344 750.269531 677.464844 752.078125 679.691406 752.078125 C 681.914062 752.078125 683.726562 750.269531 683.726562 748.046875 L 683.726562 739.984375 C 683.726562 737.765625 681.914062 735.953125 679.691406 735.953125 Z M 699.875 735.953125 C 697.652344 735.953125 695.839844 737.765625 695.839844 739.984375 L 695.839844 748.046875 C 695.839844 750.269531 697.652344 752.078125 699.875 752.078125 C 702.101562 752.078125 703.914062 750.269531 703.914062 748.046875 L 703.914062 739.984375 C 703.914062 737.765625 702.101562 735.953125 699.875 735.953125 Z M 720.0625 735.953125 C 717.839844 735.953125 716.027344 737.765625 716.027344 739.984375 L 716.027344 748.046875 C 716.027344 750.269531 717.839844 752.078125 720.0625 752.078125 C 722.285156 752.078125 724.101562 750.269531 724.101562 748.046875 L 724.101562 739.984375 C 724.101562 737.765625 722.285156 735.953125 720.0625 735.953125 Z M 740.25 735.953125 C 738.027344 735.953125 736.210938 737.765625 736.210938 739.984375 L 736.210938 748.046875 C 736.210938 750.269531 738.027344 752.078125 740.25 752.078125 C 742.472656 752.078125 744.289062 750.269531 744.289062 748.046875 L 744.289062 739.984375 C 744.289062 737.765625 742.472656 735.953125 740.25 735.953125 Z M 760.4375 735.953125 C 758.210938 735.953125 756.398438 737.765625 756.398438 739.984375 L 756.398438 748.046875 C 756.398438 750.269531 758.210938 752.078125 760.4375 752.078125 C 762.660156 752.078125 764.472656 750.269531 764.472656 748.046875 L 764.472656 739.984375 C 764.472656 737.765625 762.660156 735.953125 760.4375 735.953125 Z M 780.621094 735.953125 C 778.398438 735.953125 776.585938 737.765625 776.585938 739.984375 L 776.585938 748.046875 C 776.585938 750.269531 778.398438 752.078125 780.621094 752.078125 C 782.847656 752.078125 784.660156 750.269531 784.660156 748.046875 L 784.660156 739.984375 C 784.660156 737.765625 782.847656 735.953125 780.621094 735.953125 Z M 800.808594 735.953125 C 798.585938 735.953125 796.773438 737.765625 796.773438 739.984375 L 796.773438 748.046875 C 796.773438 750.269531 798.585938 752.078125 800.808594 752.078125 C 803.03125 752.078125 804.847656 750.269531 804.847656 748.046875 L 804.847656 739.984375 C 804.847656 737.765625 803.03125 735.953125 800.808594 735.953125 Z M 820.996094 735.953125 C 818.773438 735.953125 816.957031 737.765625 816.957031 739.984375 L 816.957031 748.046875 C 816.957031 750.269531 818.773438 752.078125 820.996094 752.078125 C 823.21875 752.078125 825.035156 750.269531 825.035156 748.046875 L 825.035156 739.984375 C 825.035156 737.765625 823.21875 735.953125 820.996094 735.953125 Z M 820.996094 735.953125 " fill-opacity="1" fill-rule="nonzero"/></g></svg>